M48
;DRILL file {KiCad (5.0.2)-1} date 9/8/2019 8:12:36 AM
;FORMAT={2:4/ absolute / inch / suppress leading zeros}
FMAT,2
INCH,TZ
T1C0.0150
T2C0.0236
T3C0.0250
T4C0.0315
T5C0.0335
T6C0.0354
T7C0.0370
T8C0.0394
T9C0.0400
T10C0.0433
T11C0.0470
T12C0.0472
T13C0.1200
T14C0.1550
%
G90
G05
T1
X49490Y-49010
X51350Y-45800
X53900Y-51200
X57130Y-49330
X57150Y-49950
X57220Y-47170
X57670Y-50250
X58200Y-48450
X58280Y-48970
X58630Y-48540
X58860Y-44300
X58930Y-47960
X59120Y-44050
X59180Y-43650
X59269Y-47555
X59540Y-49330
X59820Y-46970
X60100Y-30850
X60100Y-49055
X60170Y-48480
X60570Y-50890
X60750Y-45500
X60760Y-51400
X62100Y-30250
X62100Y-42400
X62350Y-47350
X62600Y-44600
X62880Y-41570
X63409Y-51700
X63450Y-48735
X63800Y-48850
X64250Y-49800
X64350Y-51900
X64750Y-45550
X66550Y-42000
X67010Y-42480
X67265Y-43455
X67510Y-41560
X67700Y-47650
X67780Y-42600
X67950Y-41600
X69005Y-42000
X69380Y-48140
T3
X40200Y-27600
X40200Y-35800
X41025Y-27600
X41025Y-35800
T4
X47031Y-36750
X49000Y-36750
X68500Y-44850
X68500Y-46819
X49750Y-31250
X53750Y-31250
X50500Y-37000
X54500Y-37000
X49500Y-41281
X49500Y-43250
X41500Y-41250
X41500Y-45250
X62750Y-47950
X62750Y-49919
X55250Y-42750
X59250Y-42750
X48000Y-39250
X48000Y-43250
X65550Y-44850
X65550Y-46819
X49750Y-33250
X53750Y-33250
X57900Y-33250
X61900Y-33250
X63750Y-25750
X64750Y-24750
X65750Y-25750
X63900Y-35900
X65869Y-35900
X57281Y-39850
X59250Y-39850
X57900Y-31250
X61900Y-31250
X53250Y-27000
X57250Y-27000
X64050Y-44831
X64050Y-46800
X67000Y-44850
X67000Y-46819
X44000Y-41250
X44000Y-45250
X45000Y-31750
X48000Y-31750
X57250Y-41300
X59219Y-41300
X65750Y-40500
X65750Y-41500
X65750Y-42500
X65750Y-43500
X68750Y-40500
X68750Y-41500
X68750Y-42500
X68750Y-43500
X43500Y-36250
X45469Y-36250
X49800Y-35150
X51769Y-35150
X46500Y-49500
X46500Y-50500
X46500Y-51500
X63750Y-28500
X64750Y-27500
X65750Y-28500
X53250Y-25250
X57250Y-25250
X50500Y-39000
X54500Y-39000
X45000Y-34500
X48000Y-34500
X50250Y-49500
X50250Y-51469
X61900Y-37450
X65900Y-37450
X54500Y-49781
X54500Y-51750
X42750Y-41250
X42750Y-45250
X45000Y-29250
X48000Y-29250
X43000Y-47781
X43000Y-49750
X54850Y-33250
X56819Y-33250
X60600Y-40550
X60600Y-41550
X60600Y-42550
X60600Y-43550
X63600Y-40550
X63600Y-41550
X63600Y-42550
X63600Y-43550
X53050Y-35150
X57050Y-35150
X55750Y-37000
X59750Y-37000
X63750Y-31250
X64750Y-30250
X65750Y-31250
X49750Y-29250
X51719Y-29250
X69650Y-28200
X69650Y-32200
X43750Y-27000
X45719Y-27000
X57250Y-29250
X61250Y-29250
X59750Y-25750
X60750Y-24750
X61750Y-25750
X54500Y-47000
X54500Y-48969
X68000Y-24500
X68000Y-25500
X68000Y-26500
X68000Y-27500
X68000Y-28500
X68000Y-29500
X68000Y-30500
X68000Y-31500
X68000Y-32500
X68000Y-33500
X71050Y-28200
X71050Y-32200
X63750Y-34000
X64750Y-33000
X65750Y-34000
X54850Y-31250
X56819Y-31250
X48000Y-27000
X52000Y-27000
X53281Y-29250
X55250Y-29250
X45250Y-41250
X45250Y-45250
X70250Y-34750
X70250Y-35750
X70250Y-36750
X70250Y-37750
X70250Y-38750
X70250Y-39750
X70250Y-40750
X70250Y-41750
X70250Y-42750
X70250Y-43750
T5
X73325Y-49409
X73325Y-51378
T6
X71950Y-48150
X71950Y-49150
T7
X47000Y-47000
X47984Y-45031
X48969Y-47000
X72500Y-25510
X72500Y-27870
X72500Y-30230
X72500Y-32590
X72500Y-34950
X72500Y-37310
X72500Y-39670
X72500Y-42030
X72500Y-44390
X72500Y-46750
X72650Y-24510
X72650Y-26870
X72650Y-29230
X72650Y-31590
X72650Y-33950
X72650Y-36310
X72650Y-38670
X72650Y-41030
X72650Y-43390
X72650Y-45750
X39500Y-26675
X39500Y-36675
X41750Y-26675
X41750Y-36675
X74000Y-25510
X74000Y-27870
X74000Y-30230
X74000Y-32590
X74000Y-34950
X74000Y-37310
X74000Y-39670
X74000Y-42030
X74000Y-44390
X74000Y-46750
X74150Y-24510
X74150Y-26870
X74150Y-29230
X74150Y-31590
X74150Y-33950
X74150Y-36310
X74150Y-38670
X74150Y-41030
X74150Y-43390
X74150Y-45750
T8
X51750Y-40750
X51750Y-41750
X52750Y-40750
X52750Y-41750
X53750Y-40750
X53750Y-41750
X68000Y-35850
X68000Y-36850
T9
X33000Y-36000
X33000Y-40000
X35000Y-38000
X35000Y-39000
X33000Y-27750
X33000Y-31750
X35000Y-29750
X35000Y-30750
T10
X40750Y-51500
X44750Y-51500
T11
X31820Y-42640
X31820Y-48460
T12
X38250Y-24500
X46250Y-24500
X38250Y-38750
X46250Y-38750
T13
X70050Y-25470
X34950Y-25470
X34950Y-50530
X70050Y-50530
T14
X39000Y-44000
X39000Y-47100
T2
X74250Y-49016G85X74526Y-49016
G05
X74526Y-51772G85X74250Y-51772
G05
T0
M30
