G04 #@! TF.GenerationSoftware,KiCad,Pcbnew,(5.0.2)-1*
G04 #@! TF.CreationDate,2019-09-08T08:12:19-05:00*
G04 #@! TF.ProjectId,qrp_wattmeter,7172705f-7761-4747-946d-657465722e6b,rev?*
G04 #@! TF.SameCoordinates,Original*
G04 #@! TF.FileFunction,Legend,Top*
G04 #@! TF.FilePolarity,Positive*
%FSLAX46Y46*%
G04 Gerber Fmt 4.6, Leading zero omitted, Abs format (unit mm)*
G04 Created by KiCad (PCBNEW (5.0.2)-1) date 9/8/2019 8:12:19 AM*
%MOMM*%
%LPD*%
G01*
G04 APERTURE LIST*
%ADD10C,0.152400*%
%ADD11C,0.300000*%
%ADD12C,0.150000*%
%ADD13C,0.120000*%
%ADD14C,0.177800*%
%ADD15C,5.563000*%
%ADD16C,1.702000*%
%ADD17O,1.702000X1.702000*%
%ADD18R,1.352000X1.602000*%
%ADD19R,1.302000X0.852000*%
%ADD20R,1.602000X1.352000*%
%ADD21R,1.202000X1.202000*%
%ADD22R,1.702000X1.702000*%
%ADD23O,2.302000X2.302000*%
%ADD24R,2.302000X2.302000*%
%ADD25C,1.880000*%
%ADD26R,0.462000X0.352000*%
%ADD27C,1.902000*%
%ADD28R,1.902000X1.902000*%
%ADD29C,1.602000*%
%ADD30C,2.769000*%
%ADD31C,6.452000*%
%ADD32C,5.182000*%
%ADD33R,2.002000X1.302000*%
%ADD34O,2.002000X1.302000*%
%ADD35R,2.002000X1.602000*%
%ADD36C,1.552000*%
%ADD37R,1.452000X0.502000*%
%ADD38O,1.802000X1.802000*%
%ADD39R,1.802000X1.802000*%
%ADD40R,1.072000X1.372000*%
%ADD41R,1.622000X1.622000*%
%ADD42C,1.622000*%
%ADD43R,0.902000X2.002000*%
%ADD44O,2.502000X2.502000*%
%ADD45C,2.502000*%
%ADD46R,2.102000X1.802000*%
%ADD47O,3.112000X1.612000*%
%ADD48C,1.372000*%
%ADD49C,0.864000*%
%ADD50C,0.702000*%
%ADD51R,2.102000X4.602000*%
%ADD52R,1.702000X0.662000*%
%ADD53R,0.662000X1.702000*%
G04 APERTURE END LIST*
D10*
X175602828Y-95763542D02*
X174459971Y-95763542D01*
X175031400Y-96334971D02*
X175031400Y-95192114D01*
D11*
X101307828Y-124311228D02*
X100164971Y-124311228D01*
X100736400Y-125278847D02*
X100736400Y-123343609D01*
X67399257Y-67860171D02*
X68256400Y-67860171D01*
X67827828Y-69360171D02*
X67827828Y-67860171D01*
X68756400Y-69217314D02*
X68827828Y-69288742D01*
X68756400Y-69360171D01*
X68684971Y-69288742D01*
X68756400Y-69217314D01*
X68756400Y-69360171D01*
X69399257Y-69288742D02*
X69613542Y-69360171D01*
X69970685Y-69360171D01*
X70113542Y-69288742D01*
X70184971Y-69217314D01*
X70256400Y-69074457D01*
X70256400Y-68931600D01*
X70184971Y-68788742D01*
X70113542Y-68717314D01*
X69970685Y-68645885D01*
X69684971Y-68574457D01*
X69542114Y-68503028D01*
X69470685Y-68431600D01*
X69399257Y-68288742D01*
X69399257Y-68145885D01*
X69470685Y-68003028D01*
X69542114Y-67931600D01*
X69684971Y-67860171D01*
X70042114Y-67860171D01*
X70256400Y-67931600D01*
X70899257Y-69360171D02*
X70899257Y-68360171D01*
X70899257Y-67860171D02*
X70827828Y-67931600D01*
X70899257Y-68003028D01*
X70970685Y-67931600D01*
X70899257Y-67860171D01*
X70899257Y-68003028D01*
X71827828Y-69360171D02*
X71684971Y-69288742D01*
X71613542Y-69145885D01*
X71613542Y-67860171D01*
X72399257Y-69360171D02*
X72399257Y-67860171D01*
X72542114Y-68788742D02*
X72970685Y-69360171D01*
X72970685Y-68360171D02*
X72399257Y-68931600D01*
D12*
X84163361Y-115944704D02*
X84163361Y-116516133D01*
X84125266Y-116630419D01*
X84049076Y-116706609D01*
X83934790Y-116744704D01*
X83858600Y-116744704D01*
X84925266Y-116744704D02*
X84544314Y-116744704D01*
X84544314Y-115944704D01*
X85649076Y-116668514D02*
X85610980Y-116706609D01*
X85496695Y-116744704D01*
X85420504Y-116744704D01*
X85306219Y-116706609D01*
X85230028Y-116630419D01*
X85191933Y-116554228D01*
X85153838Y-116401847D01*
X85153838Y-116287561D01*
X85191933Y-116135180D01*
X85230028Y-116058990D01*
X85306219Y-115982800D01*
X85420504Y-115944704D01*
X85496695Y-115944704D01*
X85610980Y-115982800D01*
X85649076Y-116020895D01*
X86220504Y-115944704D02*
X86220504Y-116516133D01*
X86182409Y-116630419D01*
X86106219Y-116706609D01*
X85991933Y-116744704D01*
X85915742Y-116744704D01*
X86982409Y-116744704D02*
X86601457Y-116744704D01*
X86601457Y-115944704D01*
X87706219Y-116668514D02*
X87668123Y-116706609D01*
X87553838Y-116744704D01*
X87477647Y-116744704D01*
X87363361Y-116706609D01*
X87287171Y-116630419D01*
X87249076Y-116554228D01*
X87210980Y-116401847D01*
X87210980Y-116287561D01*
X87249076Y-116135180D01*
X87287171Y-116058990D01*
X87363361Y-115982800D01*
X87477647Y-115944704D01*
X87553838Y-115944704D01*
X87668123Y-115982800D01*
X87706219Y-116020895D01*
X88277647Y-115944704D02*
X88277647Y-116516133D01*
X88239552Y-116630419D01*
X88163361Y-116706609D01*
X88049076Y-116744704D01*
X87972885Y-116744704D01*
X89039552Y-116744704D02*
X88658600Y-116744704D01*
X88658600Y-115944704D01*
X89763361Y-116668514D02*
X89725266Y-116706609D01*
X89610980Y-116744704D01*
X89534790Y-116744704D01*
X89420504Y-116706609D01*
X89344314Y-116630419D01*
X89306219Y-116554228D01*
X89268123Y-116401847D01*
X89268123Y-116287561D01*
X89306219Y-116135180D01*
X89344314Y-116058990D01*
X89420504Y-115982800D01*
X89534790Y-115944704D01*
X89610980Y-115944704D01*
X89725266Y-115982800D01*
X89763361Y-116020895D01*
X90334790Y-115944704D02*
X90334790Y-116516133D01*
X90296695Y-116630419D01*
X90220504Y-116706609D01*
X90106219Y-116744704D01*
X90030028Y-116744704D01*
X91096695Y-116744704D02*
X90715742Y-116744704D01*
X90715742Y-115944704D01*
X91820504Y-116668514D02*
X91782409Y-116706609D01*
X91668123Y-116744704D01*
X91591933Y-116744704D01*
X91477647Y-116706609D01*
X91401457Y-116630419D01*
X91363361Y-116554228D01*
X91325266Y-116401847D01*
X91325266Y-116287561D01*
X91363361Y-116135180D01*
X91401457Y-116058990D01*
X91477647Y-115982800D01*
X91591933Y-115944704D01*
X91668123Y-115944704D01*
X91782409Y-115982800D01*
X91820504Y-116020895D01*
D10*
X91240428Y-81296933D02*
X91966142Y-81296933D01*
X91095285Y-82022647D02*
X91603285Y-79482647D01*
X92111285Y-82022647D01*
X92619285Y-80329314D02*
X92619285Y-82022647D01*
X92619285Y-80571219D02*
X92691857Y-80450266D01*
X92837000Y-80329314D01*
X93054714Y-80329314D01*
X93199857Y-80450266D01*
X93272428Y-80692171D01*
X93272428Y-82022647D01*
X93780428Y-80329314D02*
X94361000Y-80329314D01*
X93998142Y-79482647D02*
X93998142Y-81659790D01*
X94070714Y-81901695D01*
X94215857Y-82022647D01*
X94361000Y-82022647D01*
X94869000Y-81780742D02*
X94941571Y-81901695D01*
X94869000Y-82022647D01*
X94796428Y-81901695D01*
X94869000Y-81780742D01*
X94869000Y-82022647D01*
X91615380Y-100005847D02*
X92341095Y-100005847D01*
X91978238Y-102545847D02*
X91978238Y-100005847D01*
X92643476Y-100005847D02*
X93490142Y-102545847D01*
X93490142Y-100005847D02*
X92643476Y-102545847D01*
D13*
G04 #@! TO.C,R24*
X148936000Y-78065000D02*
X148936000Y-80685000D01*
X148936000Y-80685000D02*
X155356000Y-80685000D01*
X155356000Y-80685000D02*
X155356000Y-78065000D01*
X155356000Y-78065000D02*
X148936000Y-78065000D01*
X148046000Y-79375000D02*
X148936000Y-79375000D01*
X156246000Y-79375000D02*
X155356000Y-79375000D01*
G04 #@! TO.C,C1*
X175300000Y-114009000D02*
X175300000Y-118829000D01*
X172680000Y-114009000D02*
X172680000Y-118829000D01*
X175300000Y-114009000D02*
X174986000Y-114009000D01*
X172994000Y-114009000D02*
X172680000Y-114009000D01*
X175300000Y-118829000D02*
X174986000Y-118829000D01*
X172994000Y-118829000D02*
X172680000Y-118829000D01*
G04 #@! TO.C,C2*
X145505000Y-103906000D02*
X145505000Y-103592000D01*
X145505000Y-106212000D02*
X145505000Y-105898000D01*
X150325000Y-103906000D02*
X150325000Y-103592000D01*
X150325000Y-106212000D02*
X150325000Y-105898000D01*
X150325000Y-103592000D02*
X145505000Y-103592000D01*
X150325000Y-106212000D02*
X145505000Y-106212000D01*
G04 #@! TO.C,C3*
X165501000Y-118829000D02*
X165187000Y-118829000D01*
X167807000Y-118829000D02*
X167493000Y-118829000D01*
X165501000Y-114009000D02*
X165187000Y-114009000D01*
X167807000Y-114009000D02*
X167493000Y-114009000D01*
X165187000Y-114009000D02*
X165187000Y-118829000D01*
X167807000Y-114009000D02*
X167807000Y-118829000D01*
G04 #@! TO.C,C4*
X119550000Y-92035000D02*
X124370000Y-92035000D01*
X119550000Y-94655000D02*
X124370000Y-94655000D01*
X119550000Y-92035000D02*
X119550000Y-92349000D01*
X119550000Y-94341000D02*
X119550000Y-94655000D01*
X124370000Y-92035000D02*
X124370000Y-92349000D01*
X124370000Y-94341000D02*
X124370000Y-94655000D01*
G04 #@! TO.C,C5*
X131402000Y-90277000D02*
X131402000Y-90591000D01*
X131402000Y-87971000D02*
X131402000Y-88285000D01*
X126582000Y-90277000D02*
X126582000Y-90591000D01*
X126582000Y-87971000D02*
X126582000Y-88285000D01*
X126582000Y-90591000D02*
X131402000Y-90591000D01*
X126582000Y-87971000D02*
X131402000Y-87971000D01*
G04 #@! TO.C,C6*
X115400000Y-93071000D02*
X115400000Y-93385000D01*
X115400000Y-90765000D02*
X115400000Y-91079000D01*
X110580000Y-93071000D02*
X110580000Y-93385000D01*
X110580000Y-90765000D02*
X110580000Y-91079000D01*
X110580000Y-93385000D02*
X115400000Y-93385000D01*
X110580000Y-90765000D02*
X115400000Y-90765000D01*
G04 #@! TO.C,C7*
X144229000Y-85451000D02*
X144229000Y-85765000D01*
X144229000Y-83145000D02*
X144229000Y-83459000D01*
X139409000Y-85451000D02*
X139409000Y-85765000D01*
X139409000Y-83145000D02*
X139409000Y-83459000D01*
X139409000Y-85765000D02*
X144229000Y-85765000D01*
X139409000Y-83145000D02*
X144229000Y-83145000D01*
G04 #@! TO.C,C8*
X111215000Y-67270000D02*
X116035000Y-67270000D01*
X111215000Y-69890000D02*
X116035000Y-69890000D01*
X111215000Y-67270000D02*
X111215000Y-67584000D01*
X111215000Y-69576000D02*
X111215000Y-69890000D01*
X116035000Y-67270000D02*
X116035000Y-67584000D01*
X116035000Y-69576000D02*
X116035000Y-69890000D01*
G04 #@! TO.C,C9*
X144229000Y-80371000D02*
X144229000Y-80685000D01*
X144229000Y-78065000D02*
X144229000Y-78379000D01*
X139409000Y-80371000D02*
X139409000Y-80685000D01*
X139409000Y-78065000D02*
X139409000Y-78379000D01*
X139409000Y-80685000D02*
X144229000Y-80685000D01*
X139409000Y-78065000D02*
X144229000Y-78065000D01*
G04 #@! TO.C,C10*
X107910000Y-126275000D02*
X107910000Y-121455000D01*
X110530000Y-126275000D02*
X110530000Y-121455000D01*
X107910000Y-126275000D02*
X108224000Y-126275000D01*
X110216000Y-126275000D02*
X110530000Y-126275000D01*
X107910000Y-121455000D02*
X108224000Y-121455000D01*
X110216000Y-121455000D02*
X110530000Y-121455000D01*
G04 #@! TO.C,C11*
X140245000Y-75291000D02*
X140245000Y-75605000D01*
X140245000Y-72985000D02*
X140245000Y-73299000D01*
X135425000Y-75291000D02*
X135425000Y-75605000D01*
X135425000Y-72985000D02*
X135425000Y-73299000D01*
X135425000Y-75605000D02*
X140245000Y-75605000D01*
X135425000Y-72985000D02*
X140245000Y-72985000D01*
G04 #@! TO.C,C12*
X114515000Y-125575000D02*
X114515000Y-124575000D01*
X112815000Y-124575000D02*
X112815000Y-125575000D01*
G04 #@! TO.C,C13*
X169184000Y-118829000D02*
X168870000Y-118829000D01*
X171490000Y-118829000D02*
X171176000Y-118829000D01*
X169184000Y-114009000D02*
X168870000Y-114009000D01*
X171490000Y-114009000D02*
X171176000Y-114009000D01*
X168870000Y-114009000D02*
X168870000Y-118829000D01*
X171490000Y-114009000D02*
X171490000Y-118829000D01*
G04 #@! TO.C,C14*
X124675000Y-127500000D02*
X124675000Y-126500000D01*
X122975000Y-126500000D02*
X122975000Y-127500000D01*
G04 #@! TO.C,C15*
X126455000Y-72985000D02*
X131275000Y-72985000D01*
X126455000Y-75605000D02*
X131275000Y-75605000D01*
X126455000Y-72985000D02*
X126455000Y-73299000D01*
X126455000Y-75291000D02*
X126455000Y-75605000D01*
X131275000Y-72985000D02*
X131275000Y-73299000D01*
X131275000Y-75291000D02*
X131275000Y-75605000D01*
G04 #@! TO.C,C16*
X126639000Y-130640000D02*
X126325000Y-130640000D01*
X128945000Y-130640000D02*
X128631000Y-130640000D01*
X126639000Y-125820000D02*
X126325000Y-125820000D01*
X128945000Y-125820000D02*
X128631000Y-125820000D01*
X126325000Y-125820000D02*
X126325000Y-130640000D01*
X128945000Y-125820000D02*
X128945000Y-130640000D01*
G04 #@! TO.C,C17*
X150405000Y-102529000D02*
X145585000Y-102529000D01*
X150405000Y-99909000D02*
X145585000Y-99909000D01*
X150405000Y-102529000D02*
X150405000Y-102215000D01*
X150405000Y-100223000D02*
X150405000Y-99909000D01*
X145585000Y-102529000D02*
X145585000Y-102215000D01*
X145585000Y-100223000D02*
X145585000Y-99909000D01*
G04 #@! TO.C,C20*
X133950000Y-131099000D02*
X134650000Y-131099000D01*
X134650000Y-132299000D02*
X133950000Y-132299000D01*
G04 #@! TO.C,C21*
X134655000Y-115535000D02*
X133955000Y-115535000D01*
X133955000Y-114335000D02*
X134655000Y-114335000D01*
G04 #@! TO.C,C22*
X158389000Y-126703000D02*
X158075000Y-126703000D01*
X160695000Y-126703000D02*
X160381000Y-126703000D01*
X158389000Y-121883000D02*
X158075000Y-121883000D01*
X160695000Y-121883000D02*
X160381000Y-121883000D01*
X158075000Y-121883000D02*
X158075000Y-126703000D01*
X160695000Y-121883000D02*
X160695000Y-126703000D01*
G04 #@! TO.C,C23*
X147348000Y-115429400D02*
X148348000Y-115429400D01*
X148348000Y-113729400D02*
X147348000Y-113729400D01*
G04 #@! TO.C,C24*
X124420000Y-109765000D02*
X124420000Y-104945000D01*
X127040000Y-109765000D02*
X127040000Y-104945000D01*
X124420000Y-109765000D02*
X124734000Y-109765000D01*
X126726000Y-109765000D02*
X127040000Y-109765000D01*
X124420000Y-104945000D02*
X124734000Y-104945000D01*
X126726000Y-104945000D02*
X127040000Y-104945000D01*
G04 #@! TO.C,C25*
X163997000Y-113962000D02*
X163997000Y-118782000D01*
X161377000Y-113962000D02*
X161377000Y-118782000D01*
X163997000Y-113962000D02*
X163683000Y-113962000D01*
X161691000Y-113962000D02*
X161377000Y-113962000D01*
X163997000Y-118782000D02*
X163683000Y-118782000D01*
X161691000Y-118782000D02*
X161377000Y-118782000D01*
G04 #@! TO.C,C26*
X162396000Y-89876000D02*
X167216000Y-89876000D01*
X162396000Y-92496000D02*
X167216000Y-92496000D01*
X162396000Y-89876000D02*
X162396000Y-90190000D01*
X162396000Y-92182000D02*
X162396000Y-92496000D01*
X167216000Y-89876000D02*
X167216000Y-90190000D01*
X167216000Y-92182000D02*
X167216000Y-92496000D01*
G04 #@! TO.C,C27*
X137434000Y-124290000D02*
X137120000Y-124290000D01*
X139740000Y-124290000D02*
X139426000Y-124290000D01*
X137434000Y-119470000D02*
X137120000Y-119470000D01*
X139740000Y-119470000D02*
X139426000Y-119470000D01*
X137120000Y-119470000D02*
X137120000Y-124290000D01*
X139740000Y-119470000D02*
X139740000Y-124290000D01*
G04 #@! TO.C,C28*
X137120000Y-131355000D02*
X137120000Y-126535000D01*
X139740000Y-131355000D02*
X139740000Y-126535000D01*
X137120000Y-131355000D02*
X137434000Y-131355000D01*
X139426000Y-131355000D02*
X139740000Y-131355000D01*
X137120000Y-126535000D02*
X137434000Y-126535000D01*
X139426000Y-126535000D02*
X139740000Y-126535000D01*
G04 #@! TO.C,D1*
X115780000Y-86630000D02*
X115780000Y-88630000D01*
X115780000Y-88630000D02*
X119630000Y-88630000D01*
X115780000Y-86630000D02*
X119630000Y-86630000D01*
G04 #@! TO.C,D2*
X116710000Y-86570000D02*
X116710000Y-88690000D01*
X120940000Y-87630000D02*
X120170000Y-87630000D01*
X115280000Y-87630000D02*
X116050000Y-87630000D01*
X120170000Y-86570000D02*
X116050000Y-86570000D01*
X120170000Y-88690000D02*
X120170000Y-86570000D01*
X116050000Y-88690000D02*
X120170000Y-88690000D01*
X116050000Y-86570000D02*
X116050000Y-88690000D01*
G04 #@! TO.C,D3*
X110405000Y-132220000D02*
X110405000Y-129400000D01*
X104785000Y-130810000D02*
X105925000Y-130810000D01*
X112385000Y-130810000D02*
X111245000Y-130810000D01*
X105925000Y-132220000D02*
X111245000Y-132220000D01*
X105925000Y-129400000D02*
X105925000Y-132220000D01*
X111245000Y-129400000D02*
X105925000Y-129400000D01*
X111245000Y-132220000D02*
X111245000Y-129400000D01*
G04 #@! TO.C,D4*
X116710000Y-73235000D02*
X116710000Y-75355000D01*
X120940000Y-74295000D02*
X120170000Y-74295000D01*
X115280000Y-74295000D02*
X116050000Y-74295000D01*
X120170000Y-73235000D02*
X116050000Y-73235000D01*
X120170000Y-75355000D02*
X120170000Y-73235000D01*
X116050000Y-75355000D02*
X120170000Y-75355000D01*
X116050000Y-73235000D02*
X116050000Y-75355000D01*
G04 #@! TO.C,D5*
X116040000Y-73295000D02*
X119890000Y-73295000D01*
X116040000Y-75295000D02*
X119890000Y-75295000D01*
X116040000Y-73295000D02*
X116040000Y-75295000D01*
G04 #@! TO.C,D6*
X116050000Y-79585000D02*
X116050000Y-81705000D01*
X116050000Y-81705000D02*
X120170000Y-81705000D01*
X120170000Y-81705000D02*
X120170000Y-79585000D01*
X120170000Y-79585000D02*
X116050000Y-79585000D01*
X115280000Y-80645000D02*
X116050000Y-80645000D01*
X120940000Y-80645000D02*
X120170000Y-80645000D01*
X116710000Y-79585000D02*
X116710000Y-81705000D01*
G04 #@! TO.C,D7*
X115780000Y-79645000D02*
X119630000Y-79645000D01*
X115780000Y-81645000D02*
X119630000Y-81645000D01*
X115780000Y-79645000D02*
X115780000Y-81645000D01*
D12*
G04 #@! TO.C,D8*
X198120000Y-121031000D02*
X191262000Y-121031000D01*
X198120000Y-60071000D02*
X198120000Y-121031000D01*
X191262000Y-60071000D02*
X198120000Y-60071000D01*
X191262000Y-121031000D02*
X191262000Y-60071000D01*
D13*
G04 #@! TO.C,D9*
X182180000Y-128813000D02*
X184030000Y-128813000D01*
X182180000Y-130013000D02*
X184030000Y-130013000D01*
X184030000Y-130013000D02*
X184030000Y-128813000D01*
G04 #@! TO.C,D10*
X184030000Y-128616000D02*
X184030000Y-127416000D01*
X182180000Y-128616000D02*
X184030000Y-128616000D01*
X182180000Y-127416000D02*
X184030000Y-127416000D01*
D12*
G04 #@! TO.C,D11*
X187452000Y-121031000D02*
X187452000Y-60071000D01*
X187452000Y-60071000D02*
X194310000Y-60071000D01*
X194310000Y-60071000D02*
X194310000Y-121031000D01*
X194310000Y-121031000D02*
X187452000Y-121031000D01*
D13*
G04 #@! TO.C,D12*
X183833000Y-125131000D02*
X183989000Y-125131000D01*
X181517000Y-125131000D02*
X181673000Y-125131000D01*
X183832837Y-122529870D02*
G75*
G02X183833000Y-124611961I-1079837J-1041130D01*
G01*
X181673163Y-122529870D02*
G75*
G03X181673000Y-124611961I1079837J-1041130D01*
G01*
X183831608Y-121898665D02*
G75*
G02X183988516Y-125131000I-1078608J-1672335D01*
G01*
X181674392Y-121898665D02*
G75*
G03X181517484Y-125131000I1078608J-1672335D01*
G01*
G04 #@! TO.C,F1*
X168905000Y-129105000D02*
X170905000Y-129105000D01*
X170905000Y-131245000D02*
X168905000Y-131245000D01*
D12*
G04 #@! TO.C,J1*
X82575400Y-89662000D02*
X90398600Y-89662000D01*
X90398600Y-89662000D02*
X90424000Y-103327200D01*
X90424000Y-103327200D02*
X82575400Y-103327200D01*
G04 #@! TO.C,J3*
X90424000Y-82372200D02*
X82575400Y-82372200D01*
X90398600Y-68707000D02*
X90424000Y-82372200D01*
X82575400Y-68707000D02*
X90398600Y-68707000D01*
D13*
G04 #@! TO.C,J4*
X185395000Y-129700000D02*
X185845000Y-129700000D01*
X185395000Y-129700000D02*
X185395000Y-129250000D01*
X185945000Y-124100000D02*
X185945000Y-124550000D01*
X187795000Y-124100000D02*
X185945000Y-124100000D01*
X190345000Y-131900000D02*
X190095000Y-131900000D01*
X190345000Y-124100000D02*
X190095000Y-124100000D01*
X187795000Y-131900000D02*
X185945000Y-131900000D01*
X185945000Y-131900000D02*
X185945000Y-131450000D01*
G04 #@! TO.C,J5*
X130115000Y-107375000D02*
X130115000Y-106045000D01*
X131445000Y-107375000D02*
X130115000Y-107375000D01*
X130115000Y-104775000D02*
X130115000Y-102175000D01*
X132715000Y-104775000D02*
X130115000Y-104775000D01*
X132715000Y-107375000D02*
X132715000Y-104775000D01*
X130115000Y-102175000D02*
X137855000Y-102175000D01*
X132715000Y-107375000D02*
X137855000Y-107375000D01*
X137855000Y-107375000D02*
X137855000Y-102175000D01*
G04 #@! TO.C,JP1*
X161549000Y-130938000D02*
X161549000Y-129158000D01*
X164089000Y-129158000D02*
X164089000Y-130938000D01*
X164089000Y-129158000D02*
X161549000Y-129158000D01*
X161549000Y-130938000D02*
X164089000Y-130938000D01*
G04 #@! TO.C,Q1*
X166789184Y-87482795D02*
G75*
G02X166265000Y-88210000I-2324184J1122795D01*
G01*
X166821400Y-85261193D02*
G75*
G03X164465000Y-83760000I-2356400J-1098807D01*
G01*
X162108600Y-85261193D02*
G75*
G02X164465000Y-83760000I2356400J-1098807D01*
G01*
X162140816Y-87482795D02*
G75*
G03X162665000Y-88210000I2324184J1122795D01*
G01*
X162665000Y-88210000D02*
X166265000Y-88210000D01*
G04 #@! TO.C,Q2*
X162665000Y-81225000D02*
X166265000Y-81225000D01*
X162140816Y-80497795D02*
G75*
G03X162665000Y-81225000I2324184J1122795D01*
G01*
X162108600Y-78276193D02*
G75*
G02X164465000Y-76775000I2356400J-1098807D01*
G01*
X166821400Y-78276193D02*
G75*
G03X164465000Y-76775000I-2356400J-1098807D01*
G01*
X166789184Y-80497795D02*
G75*
G02X166265000Y-81225000I-2324184J1122795D01*
G01*
G04 #@! TO.C,Q3*
X156629184Y-66527795D02*
G75*
G02X156105000Y-67255000I-2324184J1122795D01*
G01*
X156661400Y-64306193D02*
G75*
G03X154305000Y-62805000I-2356400J-1098807D01*
G01*
X151948600Y-64306193D02*
G75*
G02X154305000Y-62805000I2356400J-1098807D01*
G01*
X151980816Y-66527795D02*
G75*
G03X152505000Y-67255000I2324184J1122795D01*
G01*
X152505000Y-67255000D02*
X156105000Y-67255000D01*
G04 #@! TO.C,Q4*
X126055000Y-121410000D02*
X126055000Y-119950000D01*
X129215000Y-121410000D02*
X129215000Y-118250000D01*
X129215000Y-121410000D02*
X128285000Y-121410000D01*
X126055000Y-121410000D02*
X126985000Y-121410000D01*
G04 #@! TO.C,Q5*
X166789184Y-66527795D02*
G75*
G02X166265000Y-67255000I-2324184J1122795D01*
G01*
X166821400Y-64306193D02*
G75*
G03X164465000Y-62805000I-2356400J-1098807D01*
G01*
X162108600Y-64306193D02*
G75*
G02X164465000Y-62805000I2356400J-1098807D01*
G01*
X162140816Y-66527795D02*
G75*
G03X162665000Y-67255000I2324184J1122795D01*
G01*
X162665000Y-67255000D02*
X166265000Y-67255000D01*
G04 #@! TO.C,Q6*
X162665000Y-74240000D02*
X166265000Y-74240000D01*
X162140816Y-73512795D02*
G75*
G03X162665000Y-74240000I2324184J1122795D01*
G01*
X162108600Y-71291193D02*
G75*
G02X164465000Y-69790000I2356400J-1098807D01*
G01*
X166821400Y-71291193D02*
G75*
G03X164465000Y-69790000I-2356400J-1098807D01*
G01*
X166789184Y-73512795D02*
G75*
G02X166265000Y-74240000I-2324184J1122795D01*
G01*
G04 #@! TO.C,R1*
X130140000Y-97750000D02*
X130140000Y-100370000D01*
X130140000Y-100370000D02*
X136560000Y-100370000D01*
X136560000Y-100370000D02*
X136560000Y-97750000D01*
X136560000Y-97750000D02*
X130140000Y-97750000D01*
X129250000Y-99060000D02*
X130140000Y-99060000D01*
X137450000Y-99060000D02*
X136560000Y-99060000D01*
G04 #@! TO.C,R2*
X137450000Y-93980000D02*
X136560000Y-93980000D01*
X129250000Y-93980000D02*
X130140000Y-93980000D01*
X136560000Y-92670000D02*
X130140000Y-92670000D01*
X136560000Y-95290000D02*
X136560000Y-92670000D01*
X130140000Y-95290000D02*
X136560000Y-95290000D01*
X130140000Y-92670000D02*
X130140000Y-95290000D01*
G04 #@! TO.C,R3*
X136617000Y-87971000D02*
X136617000Y-90591000D01*
X136617000Y-90591000D02*
X143037000Y-90591000D01*
X143037000Y-90591000D02*
X143037000Y-87971000D01*
X143037000Y-87971000D02*
X136617000Y-87971000D01*
X135727000Y-89281000D02*
X136617000Y-89281000D01*
X143927000Y-89281000D02*
X143037000Y-89281000D01*
G04 #@! TO.C,R4*
X98535000Y-98425000D02*
X101305000Y-98425000D01*
X116095000Y-98425000D02*
X113325000Y-98425000D01*
X101305000Y-100735000D02*
X113325000Y-100735000D01*
X101305000Y-96115000D02*
X101305000Y-100735000D01*
X113325000Y-96115000D02*
X101305000Y-96115000D01*
X113325000Y-100735000D02*
X113325000Y-96115000D01*
G04 #@! TO.C,R5*
X156246000Y-84455000D02*
X155356000Y-84455000D01*
X148046000Y-84455000D02*
X148936000Y-84455000D01*
X155356000Y-83145000D02*
X148936000Y-83145000D01*
X155356000Y-85765000D02*
X155356000Y-83145000D01*
X148936000Y-85765000D02*
X155356000Y-85765000D01*
X148936000Y-83145000D02*
X148936000Y-85765000D01*
G04 #@! TO.C,R6*
X135545000Y-84455000D02*
X134655000Y-84455000D01*
X127345000Y-84455000D02*
X128235000Y-84455000D01*
X134655000Y-83145000D02*
X128235000Y-83145000D01*
X134655000Y-85765000D02*
X134655000Y-83145000D01*
X128235000Y-85765000D02*
X134655000Y-85765000D01*
X128235000Y-83145000D02*
X128235000Y-85765000D01*
G04 #@! TO.C,R7*
X128235000Y-78065000D02*
X128235000Y-80685000D01*
X128235000Y-80685000D02*
X134655000Y-80685000D01*
X134655000Y-80685000D02*
X134655000Y-78065000D01*
X134655000Y-78065000D02*
X128235000Y-78065000D01*
X127345000Y-79375000D02*
X128235000Y-79375000D01*
X135545000Y-79375000D02*
X134655000Y-79375000D01*
G04 #@! TO.C,R8*
X113325000Y-64540000D02*
X113325000Y-59920000D01*
X113325000Y-59920000D02*
X101305000Y-59920000D01*
X101305000Y-59920000D02*
X101305000Y-64540000D01*
X101305000Y-64540000D02*
X113325000Y-64540000D01*
X116095000Y-62230000D02*
X113325000Y-62230000D01*
X98535000Y-62230000D02*
X101305000Y-62230000D01*
G04 #@! TO.C,R9*
X143475000Y-92670000D02*
X143475000Y-95290000D01*
X143475000Y-95290000D02*
X149895000Y-95290000D01*
X149895000Y-95290000D02*
X149895000Y-92670000D01*
X149895000Y-92670000D02*
X143475000Y-92670000D01*
X142585000Y-93980000D02*
X143475000Y-93980000D01*
X150785000Y-93980000D02*
X149895000Y-93980000D01*
G04 #@! TO.C,R10*
X154595000Y-74295000D02*
X153705000Y-74295000D01*
X146395000Y-74295000D02*
X147285000Y-74295000D01*
X153705000Y-72985000D02*
X147285000Y-72985000D01*
X153705000Y-75605000D02*
X153705000Y-72985000D01*
X147285000Y-75605000D02*
X153705000Y-75605000D01*
X147285000Y-72985000D02*
X147285000Y-75605000D01*
G04 #@! TO.C,R11*
X131100000Y-68580000D02*
X130210000Y-68580000D01*
X122900000Y-68580000D02*
X123790000Y-68580000D01*
X130210000Y-67270000D02*
X123790000Y-67270000D01*
X130210000Y-69890000D02*
X130210000Y-67270000D01*
X123790000Y-69890000D02*
X130210000Y-69890000D01*
X123790000Y-67270000D02*
X123790000Y-69890000D01*
G04 #@! TO.C,R12*
X137125000Y-67270000D02*
X137125000Y-69890000D01*
X137125000Y-69890000D02*
X143545000Y-69890000D01*
X143545000Y-69890000D02*
X143545000Y-67270000D01*
X143545000Y-67270000D02*
X137125000Y-67270000D01*
X136235000Y-68580000D02*
X137125000Y-68580000D01*
X144435000Y-68580000D02*
X143545000Y-68580000D01*
G04 #@! TO.C,R13*
X144435000Y-64135000D02*
X143545000Y-64135000D01*
X136235000Y-64135000D02*
X137125000Y-64135000D01*
X143545000Y-62825000D02*
X137125000Y-62825000D01*
X143545000Y-65445000D02*
X143545000Y-62825000D01*
X137125000Y-65445000D02*
X143545000Y-65445000D01*
X137125000Y-62825000D02*
X137125000Y-65445000D01*
G04 #@! TO.C,R14*
X104100000Y-113065000D02*
X106720000Y-113065000D01*
X106720000Y-113065000D02*
X106720000Y-106645000D01*
X106720000Y-106645000D02*
X104100000Y-106645000D01*
X104100000Y-106645000D02*
X104100000Y-113065000D01*
X105410000Y-113955000D02*
X105410000Y-113065000D01*
X105410000Y-105755000D02*
X105410000Y-106645000D01*
G04 #@! TO.C,R15*
X108585000Y-105755000D02*
X108585000Y-106645000D01*
X108585000Y-113955000D02*
X108585000Y-113065000D01*
X107275000Y-106645000D02*
X107275000Y-113065000D01*
X109895000Y-106645000D02*
X107275000Y-106645000D01*
X109895000Y-113065000D02*
X109895000Y-106645000D01*
X107275000Y-113065000D02*
X109895000Y-113065000D01*
G04 #@! TO.C,R16*
X110450000Y-113065000D02*
X113070000Y-113065000D01*
X113070000Y-113065000D02*
X113070000Y-106645000D01*
X113070000Y-106645000D02*
X110450000Y-106645000D01*
X110450000Y-106645000D02*
X110450000Y-113065000D01*
X111760000Y-113955000D02*
X111760000Y-113065000D01*
X111760000Y-105755000D02*
X111760000Y-106645000D01*
G04 #@! TO.C,R17*
X114935000Y-113955000D02*
X114935000Y-113065000D01*
X114935000Y-105755000D02*
X114935000Y-106645000D01*
X116245000Y-113065000D02*
X116245000Y-106645000D01*
X113625000Y-113065000D02*
X116245000Y-113065000D01*
X113625000Y-106645000D02*
X113625000Y-113065000D01*
X116245000Y-106645000D02*
X113625000Y-106645000D01*
G04 #@! TO.C,R18*
X167370000Y-122120000D02*
X169370000Y-122120000D01*
X169370000Y-124260000D02*
X167370000Y-124260000D01*
G04 #@! TO.C,R19*
X169370000Y-127435000D02*
X167370000Y-127435000D01*
X167370000Y-125295000D02*
X169370000Y-125295000D01*
G04 #@! TO.C,R20*
X142205000Y-107275000D02*
X142205000Y-109895000D01*
X142205000Y-109895000D02*
X148625000Y-109895000D01*
X148625000Y-109895000D02*
X148625000Y-107275000D01*
X148625000Y-107275000D02*
X142205000Y-107275000D01*
X141315000Y-108585000D02*
X142205000Y-108585000D01*
X149515000Y-108585000D02*
X148625000Y-108585000D01*
G04 #@! TO.C,R21*
X121920000Y-100675000D02*
X121920000Y-101565000D01*
X121920000Y-108875000D02*
X121920000Y-107985000D01*
X120610000Y-101565000D02*
X120610000Y-107985000D01*
X123230000Y-101565000D02*
X120610000Y-101565000D01*
X123230000Y-107985000D02*
X123230000Y-101565000D01*
X120610000Y-107985000D02*
X123230000Y-107985000D01*
G04 #@! TO.C,R22*
X175601000Y-79918000D02*
X178221000Y-79918000D01*
X178221000Y-79918000D02*
X178221000Y-73498000D01*
X178221000Y-73498000D02*
X175601000Y-73498000D01*
X175601000Y-73498000D02*
X175601000Y-79918000D01*
X176911000Y-80808000D02*
X176911000Y-79918000D01*
X176911000Y-72608000D02*
X176911000Y-73498000D01*
G04 #@! TO.C,R23*
X180467000Y-72608000D02*
X180467000Y-73498000D01*
X180467000Y-80808000D02*
X180467000Y-79918000D01*
X179157000Y-73498000D02*
X179157000Y-79918000D01*
X181777000Y-73498000D02*
X179157000Y-73498000D01*
X181777000Y-79918000D02*
X181777000Y-73498000D01*
X179157000Y-79918000D02*
X181777000Y-79918000D01*
G04 #@! TO.C,R25*
X158206000Y-95123000D02*
X159096000Y-95123000D01*
X166406000Y-95123000D02*
X165516000Y-95123000D01*
X159096000Y-96433000D02*
X165516000Y-96433000D01*
X159096000Y-93813000D02*
X159096000Y-96433000D01*
X165516000Y-93813000D02*
X159096000Y-93813000D01*
X165516000Y-96433000D02*
X165516000Y-93813000D01*
G04 #@! TO.C,R26*
X177035000Y-109855000D02*
X179835000Y-109855000D01*
X177035000Y-86825000D02*
X177035000Y-112565000D01*
X179835000Y-86825000D02*
X177035000Y-86825000D01*
X179835000Y-112565000D02*
X179835000Y-86825000D01*
X177035000Y-112565000D02*
X179835000Y-112565000D01*
G04 #@! TO.C,R27*
X171320000Y-86530000D02*
X174120000Y-86530000D01*
X174120000Y-86530000D02*
X174120000Y-60790000D01*
X174120000Y-60790000D02*
X171320000Y-60790000D01*
X171320000Y-60790000D02*
X171320000Y-86530000D01*
X171320000Y-83820000D02*
X174120000Y-83820000D01*
D12*
G04 #@! TO.C,RV1*
X119888000Y-120904000D02*
X123952000Y-120904000D01*
X118618000Y-118110000D02*
X118618000Y-115316000D01*
X125222000Y-115316000D02*
X125222000Y-118364000D01*
X123952000Y-114046000D02*
G75*
G02X125222000Y-115316000I0J-1270000D01*
G01*
X118618000Y-115316000D02*
G75*
G02X119888000Y-114046000I1270000J0D01*
G01*
D13*
G04 #@! TO.C,SW1*
X169550000Y-89789000D02*
X175890000Y-89789000D01*
X169550000Y-94869000D02*
X175890000Y-94869000D01*
X169550000Y-94869000D02*
X169550000Y-89789000D01*
X175890000Y-89789000D02*
X175890000Y-94869000D01*
X171450000Y-89789000D02*
X171450000Y-94869000D01*
D14*
G04 #@! TO.C,T1*
X96520000Y-87630000D02*
X96520000Y-73152000D01*
X96520000Y-73152000D02*
X109982000Y-73152000D01*
X109982000Y-73152000D02*
X109982000Y-87630000D01*
X109982000Y-87630000D02*
X96520000Y-87630000D01*
X100330000Y-87630000D02*
X100330000Y-88392000D01*
X106045000Y-87630000D02*
X106045000Y-88392000D01*
D13*
G04 #@! TO.C,U1*
X173465000Y-101540000D02*
X171815000Y-101540000D01*
X173465000Y-111820000D02*
X173465000Y-101540000D01*
X168165000Y-111820000D02*
X173465000Y-111820000D01*
X168165000Y-101540000D02*
X168165000Y-111820000D01*
X169815000Y-101540000D02*
X168165000Y-101540000D01*
X171815000Y-101540000D02*
G75*
G02X169815000Y-101540000I-1000000J0D01*
G01*
G04 #@! TO.C,U2*
X158734000Y-101667000D02*
G75*
G02X156734000Y-101667000I-1000000J0D01*
G01*
X156734000Y-101667000D02*
X155084000Y-101667000D01*
X155084000Y-101667000D02*
X155084000Y-111947000D01*
X155084000Y-111947000D02*
X160384000Y-111947000D01*
X160384000Y-111947000D02*
X160384000Y-101667000D01*
X160384000Y-101667000D02*
X158734000Y-101667000D01*
G04 #@! TO.C,U3*
X116987205Y-130594184D02*
G75*
G02X116260000Y-130070000I1122795J2324184D01*
G01*
X119208807Y-130626400D02*
G75*
G03X120710000Y-128270000I-1098807J2356400D01*
G01*
X119208807Y-125913600D02*
G75*
G02X120710000Y-128270000I-1098807J-2356400D01*
G01*
X116987205Y-125945816D02*
G75*
G03X116260000Y-126470000I1122795J-2324184D01*
G01*
X116260000Y-126470000D02*
X116260000Y-130070000D01*
G04 #@! TO.C,Y1*
X135900000Y-130525000D02*
X135900000Y-117925000D01*
X130800000Y-130525000D02*
X135900000Y-130525000D01*
X130800000Y-117925000D02*
X130800000Y-130525000D01*
D12*
G04 #@! TO.C,U4*
X153419000Y-118650000D02*
X153419000Y-117175000D01*
X154019000Y-129000000D02*
X154019000Y-128330000D01*
X143669000Y-129000000D02*
X143669000Y-128330000D01*
X143669000Y-118650000D02*
X143669000Y-119320000D01*
X154019000Y-118650000D02*
X154019000Y-119320000D01*
X143669000Y-118650000D02*
X144339000Y-118650000D01*
X143669000Y-129000000D02*
X144339000Y-129000000D01*
X154019000Y-129000000D02*
X153349000Y-129000000D01*
X154019000Y-118650000D02*
X153419000Y-118650000D01*
G04 #@! TO.C,R24*
X151503142Y-77517380D02*
X151169809Y-77041190D01*
X150931714Y-77517380D02*
X150931714Y-76517380D01*
X151312666Y-76517380D01*
X151407904Y-76565000D01*
X151455523Y-76612619D01*
X151503142Y-76707857D01*
X151503142Y-76850714D01*
X151455523Y-76945952D01*
X151407904Y-76993571D01*
X151312666Y-77041190D01*
X150931714Y-77041190D01*
X151884095Y-76612619D02*
X151931714Y-76565000D01*
X152026952Y-76517380D01*
X152265047Y-76517380D01*
X152360285Y-76565000D01*
X152407904Y-76612619D01*
X152455523Y-76707857D01*
X152455523Y-76803095D01*
X152407904Y-76945952D01*
X151836476Y-77517380D01*
X152455523Y-77517380D01*
X153312666Y-76850714D02*
X153312666Y-77517380D01*
X153074571Y-76469761D02*
X152836476Y-77184047D01*
X153455523Y-77184047D01*
G04 #@! TO.C,C1*
X176998333Y-119737142D02*
X176950714Y-119784761D01*
X176807857Y-119832380D01*
X176712619Y-119832380D01*
X176569761Y-119784761D01*
X176474523Y-119689523D01*
X176426904Y-119594285D01*
X176379285Y-119403809D01*
X176379285Y-119260952D01*
X176426904Y-119070476D01*
X176474523Y-118975238D01*
X176569761Y-118880000D01*
X176712619Y-118832380D01*
X176807857Y-118832380D01*
X176950714Y-118880000D01*
X176998333Y-118927619D01*
X177950714Y-119832380D02*
X177379285Y-119832380D01*
X177665000Y-119832380D02*
X177665000Y-118832380D01*
X177569761Y-118975238D01*
X177474523Y-119070476D01*
X177379285Y-119118095D01*
G04 #@! TO.C,C2*
X142708333Y-104624142D02*
X142660714Y-104671761D01*
X142517857Y-104719380D01*
X142422619Y-104719380D01*
X142279761Y-104671761D01*
X142184523Y-104576523D01*
X142136904Y-104481285D01*
X142089285Y-104290809D01*
X142089285Y-104147952D01*
X142136904Y-103957476D01*
X142184523Y-103862238D01*
X142279761Y-103767000D01*
X142422619Y-103719380D01*
X142517857Y-103719380D01*
X142660714Y-103767000D01*
X142708333Y-103814619D01*
X143089285Y-103814619D02*
X143136904Y-103767000D01*
X143232142Y-103719380D01*
X143470238Y-103719380D01*
X143565476Y-103767000D01*
X143613095Y-103814619D01*
X143660714Y-103909857D01*
X143660714Y-104005095D01*
X143613095Y-104147952D01*
X143041666Y-104719380D01*
X143660714Y-104719380D01*
G04 #@! TO.C,C3*
X166203333Y-121261142D02*
X166155714Y-121308761D01*
X166012857Y-121356380D01*
X165917619Y-121356380D01*
X165774761Y-121308761D01*
X165679523Y-121213523D01*
X165631904Y-121118285D01*
X165584285Y-120927809D01*
X165584285Y-120784952D01*
X165631904Y-120594476D01*
X165679523Y-120499238D01*
X165774761Y-120404000D01*
X165917619Y-120356380D01*
X166012857Y-120356380D01*
X166155714Y-120404000D01*
X166203333Y-120451619D01*
X166536666Y-120356380D02*
X167155714Y-120356380D01*
X166822380Y-120737333D01*
X166965238Y-120737333D01*
X167060476Y-120784952D01*
X167108095Y-120832571D01*
X167155714Y-120927809D01*
X167155714Y-121165904D01*
X167108095Y-121261142D01*
X167060476Y-121308761D01*
X166965238Y-121356380D01*
X166679523Y-121356380D01*
X166584285Y-121308761D01*
X166536666Y-121261142D01*
G04 #@! TO.C,C4*
X121793333Y-91142142D02*
X121745714Y-91189761D01*
X121602857Y-91237380D01*
X121507619Y-91237380D01*
X121364761Y-91189761D01*
X121269523Y-91094523D01*
X121221904Y-90999285D01*
X121174285Y-90808809D01*
X121174285Y-90665952D01*
X121221904Y-90475476D01*
X121269523Y-90380238D01*
X121364761Y-90285000D01*
X121507619Y-90237380D01*
X121602857Y-90237380D01*
X121745714Y-90285000D01*
X121793333Y-90332619D01*
X122650476Y-90570714D02*
X122650476Y-91237380D01*
X122412380Y-90189761D02*
X122174285Y-90904047D01*
X122793333Y-90904047D01*
G04 #@! TO.C,C5*
X123785333Y-88368142D02*
X123737714Y-88415761D01*
X123594857Y-88463380D01*
X123499619Y-88463380D01*
X123356761Y-88415761D01*
X123261523Y-88320523D01*
X123213904Y-88225285D01*
X123166285Y-88034809D01*
X123166285Y-87891952D01*
X123213904Y-87701476D01*
X123261523Y-87606238D01*
X123356761Y-87511000D01*
X123499619Y-87463380D01*
X123594857Y-87463380D01*
X123737714Y-87511000D01*
X123785333Y-87558619D01*
X124690095Y-87463380D02*
X124213904Y-87463380D01*
X124166285Y-87939571D01*
X124213904Y-87891952D01*
X124309142Y-87844333D01*
X124547238Y-87844333D01*
X124642476Y-87891952D01*
X124690095Y-87939571D01*
X124737714Y-88034809D01*
X124737714Y-88272904D01*
X124690095Y-88368142D01*
X124642476Y-88415761D01*
X124547238Y-88463380D01*
X124309142Y-88463380D01*
X124213904Y-88415761D01*
X124166285Y-88368142D01*
G04 #@! TO.C,C6*
X109688333Y-89892142D02*
X109640714Y-89939761D01*
X109497857Y-89987380D01*
X109402619Y-89987380D01*
X109259761Y-89939761D01*
X109164523Y-89844523D01*
X109116904Y-89749285D01*
X109069285Y-89558809D01*
X109069285Y-89415952D01*
X109116904Y-89225476D01*
X109164523Y-89130238D01*
X109259761Y-89035000D01*
X109402619Y-88987380D01*
X109497857Y-88987380D01*
X109640714Y-89035000D01*
X109688333Y-89082619D01*
X110545476Y-88987380D02*
X110355000Y-88987380D01*
X110259761Y-89035000D01*
X110212142Y-89082619D01*
X110116904Y-89225476D01*
X110069285Y-89415952D01*
X110069285Y-89796904D01*
X110116904Y-89892142D01*
X110164523Y-89939761D01*
X110259761Y-89987380D01*
X110450238Y-89987380D01*
X110545476Y-89939761D01*
X110593095Y-89892142D01*
X110640714Y-89796904D01*
X110640714Y-89558809D01*
X110593095Y-89463571D01*
X110545476Y-89415952D01*
X110450238Y-89368333D01*
X110259761Y-89368333D01*
X110164523Y-89415952D01*
X110116904Y-89463571D01*
X110069285Y-89558809D01*
G04 #@! TO.C,C7*
X141746932Y-82272142D02*
X141699313Y-82319761D01*
X141556456Y-82367380D01*
X141461218Y-82367380D01*
X141318360Y-82319761D01*
X141223122Y-82224523D01*
X141175503Y-82129285D01*
X141127884Y-81938809D01*
X141127884Y-81795952D01*
X141175503Y-81605476D01*
X141223122Y-81510238D01*
X141318360Y-81415000D01*
X141461218Y-81367380D01*
X141556456Y-81367380D01*
X141699313Y-81415000D01*
X141746932Y-81462619D01*
X142080265Y-81367380D02*
X142746932Y-81367380D01*
X142318360Y-82367380D01*
G04 #@! TO.C,C8*
X108418333Y-68937142D02*
X108370714Y-68984761D01*
X108227857Y-69032380D01*
X108132619Y-69032380D01*
X107989761Y-68984761D01*
X107894523Y-68889523D01*
X107846904Y-68794285D01*
X107799285Y-68603809D01*
X107799285Y-68460952D01*
X107846904Y-68270476D01*
X107894523Y-68175238D01*
X107989761Y-68080000D01*
X108132619Y-68032380D01*
X108227857Y-68032380D01*
X108370714Y-68080000D01*
X108418333Y-68127619D01*
X108989761Y-68460952D02*
X108894523Y-68413333D01*
X108846904Y-68365714D01*
X108799285Y-68270476D01*
X108799285Y-68222857D01*
X108846904Y-68127619D01*
X108894523Y-68080000D01*
X108989761Y-68032380D01*
X109180238Y-68032380D01*
X109275476Y-68080000D01*
X109323095Y-68127619D01*
X109370714Y-68222857D01*
X109370714Y-68270476D01*
X109323095Y-68365714D01*
X109275476Y-68413333D01*
X109180238Y-68460952D01*
X108989761Y-68460952D01*
X108894523Y-68508571D01*
X108846904Y-68556190D01*
X108799285Y-68651428D01*
X108799285Y-68841904D01*
X108846904Y-68937142D01*
X108894523Y-68984761D01*
X108989761Y-69032380D01*
X109180238Y-69032380D01*
X109275476Y-68984761D01*
X109323095Y-68937142D01*
X109370714Y-68841904D01*
X109370714Y-68651428D01*
X109323095Y-68556190D01*
X109275476Y-68508571D01*
X109180238Y-68460952D01*
G04 #@! TO.C,C9*
X141652333Y-77172142D02*
X141604714Y-77219761D01*
X141461857Y-77267380D01*
X141366619Y-77267380D01*
X141223761Y-77219761D01*
X141128523Y-77124523D01*
X141080904Y-77029285D01*
X141033285Y-76838809D01*
X141033285Y-76695952D01*
X141080904Y-76505476D01*
X141128523Y-76410238D01*
X141223761Y-76315000D01*
X141366619Y-76267380D01*
X141461857Y-76267380D01*
X141604714Y-76315000D01*
X141652333Y-76362619D01*
X142128523Y-77267380D02*
X142319000Y-77267380D01*
X142414238Y-77219761D01*
X142461857Y-77172142D01*
X142557095Y-77029285D01*
X142604714Y-76838809D01*
X142604714Y-76457857D01*
X142557095Y-76362619D01*
X142509476Y-76315000D01*
X142414238Y-76267380D01*
X142223761Y-76267380D01*
X142128523Y-76315000D01*
X142080904Y-76362619D01*
X142033285Y-76457857D01*
X142033285Y-76695952D01*
X142080904Y-76791190D01*
X142128523Y-76838809D01*
X142223761Y-76886428D01*
X142414238Y-76886428D01*
X142509476Y-76838809D01*
X142557095Y-76791190D01*
X142604714Y-76695952D01*
G04 #@! TO.C,C10*
X104767142Y-121642142D02*
X104719523Y-121689761D01*
X104576666Y-121737380D01*
X104481428Y-121737380D01*
X104338571Y-121689761D01*
X104243333Y-121594523D01*
X104195714Y-121499285D01*
X104148095Y-121308809D01*
X104148095Y-121165952D01*
X104195714Y-120975476D01*
X104243333Y-120880238D01*
X104338571Y-120785000D01*
X104481428Y-120737380D01*
X104576666Y-120737380D01*
X104719523Y-120785000D01*
X104767142Y-120832619D01*
X105719523Y-121737380D02*
X105148095Y-121737380D01*
X105433809Y-121737380D02*
X105433809Y-120737380D01*
X105338571Y-120880238D01*
X105243333Y-120975476D01*
X105148095Y-121023095D01*
X106338571Y-120737380D02*
X106433809Y-120737380D01*
X106529047Y-120785000D01*
X106576666Y-120832619D01*
X106624285Y-120927857D01*
X106671904Y-121118333D01*
X106671904Y-121356428D01*
X106624285Y-121546904D01*
X106576666Y-121642142D01*
X106529047Y-121689761D01*
X106433809Y-121737380D01*
X106338571Y-121737380D01*
X106243333Y-121689761D01*
X106195714Y-121642142D01*
X106148095Y-121546904D01*
X106100476Y-121356428D01*
X106100476Y-121118333D01*
X106148095Y-120927857D01*
X106195714Y-120832619D01*
X106243333Y-120785000D01*
X106338571Y-120737380D01*
G04 #@! TO.C,C11*
X137192142Y-72092142D02*
X137144523Y-72139761D01*
X137001666Y-72187380D01*
X136906428Y-72187380D01*
X136763571Y-72139761D01*
X136668333Y-72044523D01*
X136620714Y-71949285D01*
X136573095Y-71758809D01*
X136573095Y-71615952D01*
X136620714Y-71425476D01*
X136668333Y-71330238D01*
X136763571Y-71235000D01*
X136906428Y-71187380D01*
X137001666Y-71187380D01*
X137144523Y-71235000D01*
X137192142Y-71282619D01*
X138144523Y-72187380D02*
X137573095Y-72187380D01*
X137858809Y-72187380D02*
X137858809Y-71187380D01*
X137763571Y-71330238D01*
X137668333Y-71425476D01*
X137573095Y-71473095D01*
X139096904Y-72187380D02*
X138525476Y-72187380D01*
X138811190Y-72187380D02*
X138811190Y-71187380D01*
X138715952Y-71330238D01*
X138620714Y-71425476D01*
X138525476Y-71473095D01*
G04 #@! TO.C,C12*
X113657142Y-121642142D02*
X113609523Y-121689761D01*
X113466666Y-121737380D01*
X113371428Y-121737380D01*
X113228571Y-121689761D01*
X113133333Y-121594523D01*
X113085714Y-121499285D01*
X113038095Y-121308809D01*
X113038095Y-121165952D01*
X113085714Y-120975476D01*
X113133333Y-120880238D01*
X113228571Y-120785000D01*
X113371428Y-120737380D01*
X113466666Y-120737380D01*
X113609523Y-120785000D01*
X113657142Y-120832619D01*
X114609523Y-121737380D02*
X114038095Y-121737380D01*
X114323809Y-121737380D02*
X114323809Y-120737380D01*
X114228571Y-120880238D01*
X114133333Y-120975476D01*
X114038095Y-121023095D01*
X114990476Y-120832619D02*
X115038095Y-120785000D01*
X115133333Y-120737380D01*
X115371428Y-120737380D01*
X115466666Y-120785000D01*
X115514285Y-120832619D01*
X115561904Y-120927857D01*
X115561904Y-121023095D01*
X115514285Y-121165952D01*
X114942857Y-121737380D01*
X115561904Y-121737380D01*
G04 #@! TO.C,C13*
X169410142Y-121388142D02*
X169362523Y-121435761D01*
X169219666Y-121483380D01*
X169124428Y-121483380D01*
X168981571Y-121435761D01*
X168886333Y-121340523D01*
X168838714Y-121245285D01*
X168791095Y-121054809D01*
X168791095Y-120911952D01*
X168838714Y-120721476D01*
X168886333Y-120626238D01*
X168981571Y-120531000D01*
X169124428Y-120483380D01*
X169219666Y-120483380D01*
X169362523Y-120531000D01*
X169410142Y-120578619D01*
X170362523Y-121483380D02*
X169791095Y-121483380D01*
X170076809Y-121483380D02*
X170076809Y-120483380D01*
X169981571Y-120626238D01*
X169886333Y-120721476D01*
X169791095Y-120769095D01*
X170695857Y-120483380D02*
X171314904Y-120483380D01*
X170981571Y-120864333D01*
X171124428Y-120864333D01*
X171219666Y-120911952D01*
X171267285Y-120959571D01*
X171314904Y-121054809D01*
X171314904Y-121292904D01*
X171267285Y-121388142D01*
X171219666Y-121435761D01*
X171124428Y-121483380D01*
X170838714Y-121483380D01*
X170743476Y-121435761D01*
X170695857Y-121388142D01*
G04 #@! TO.C,C14*
X122547142Y-130532142D02*
X122499523Y-130579761D01*
X122356666Y-130627380D01*
X122261428Y-130627380D01*
X122118571Y-130579761D01*
X122023333Y-130484523D01*
X121975714Y-130389285D01*
X121928095Y-130198809D01*
X121928095Y-130055952D01*
X121975714Y-129865476D01*
X122023333Y-129770238D01*
X122118571Y-129675000D01*
X122261428Y-129627380D01*
X122356666Y-129627380D01*
X122499523Y-129675000D01*
X122547142Y-129722619D01*
X123499523Y-130627380D02*
X122928095Y-130627380D01*
X123213809Y-130627380D02*
X123213809Y-129627380D01*
X123118571Y-129770238D01*
X123023333Y-129865476D01*
X122928095Y-129913095D01*
X124356666Y-129960714D02*
X124356666Y-130627380D01*
X124118571Y-129579761D02*
X123880476Y-130294047D01*
X124499523Y-130294047D01*
G04 #@! TO.C,C15*
X128222142Y-72092142D02*
X128174523Y-72139761D01*
X128031666Y-72187380D01*
X127936428Y-72187380D01*
X127793571Y-72139761D01*
X127698333Y-72044523D01*
X127650714Y-71949285D01*
X127603095Y-71758809D01*
X127603095Y-71615952D01*
X127650714Y-71425476D01*
X127698333Y-71330238D01*
X127793571Y-71235000D01*
X127936428Y-71187380D01*
X128031666Y-71187380D01*
X128174523Y-71235000D01*
X128222142Y-71282619D01*
X129174523Y-72187380D02*
X128603095Y-72187380D01*
X128888809Y-72187380D02*
X128888809Y-71187380D01*
X128793571Y-71330238D01*
X128698333Y-71425476D01*
X128603095Y-71473095D01*
X130079285Y-71187380D02*
X129603095Y-71187380D01*
X129555476Y-71663571D01*
X129603095Y-71615952D01*
X129698333Y-71568333D01*
X129936428Y-71568333D01*
X130031666Y-71615952D01*
X130079285Y-71663571D01*
X130126904Y-71758809D01*
X130126904Y-71996904D01*
X130079285Y-72092142D01*
X130031666Y-72139761D01*
X129936428Y-72187380D01*
X129698333Y-72187380D01*
X129603095Y-72139761D01*
X129555476Y-72092142D01*
G04 #@! TO.C,C16*
X123817142Y-132437142D02*
X123769523Y-132484761D01*
X123626666Y-132532380D01*
X123531428Y-132532380D01*
X123388571Y-132484761D01*
X123293333Y-132389523D01*
X123245714Y-132294285D01*
X123198095Y-132103809D01*
X123198095Y-131960952D01*
X123245714Y-131770476D01*
X123293333Y-131675238D01*
X123388571Y-131580000D01*
X123531428Y-131532380D01*
X123626666Y-131532380D01*
X123769523Y-131580000D01*
X123817142Y-131627619D01*
X124769523Y-132532380D02*
X124198095Y-132532380D01*
X124483809Y-132532380D02*
X124483809Y-131532380D01*
X124388571Y-131675238D01*
X124293333Y-131770476D01*
X124198095Y-131818095D01*
X125626666Y-131532380D02*
X125436190Y-131532380D01*
X125340952Y-131580000D01*
X125293333Y-131627619D01*
X125198095Y-131770476D01*
X125150476Y-131960952D01*
X125150476Y-132341904D01*
X125198095Y-132437142D01*
X125245714Y-132484761D01*
X125340952Y-132532380D01*
X125531428Y-132532380D01*
X125626666Y-132484761D01*
X125674285Y-132437142D01*
X125721904Y-132341904D01*
X125721904Y-132103809D01*
X125674285Y-132008571D01*
X125626666Y-131960952D01*
X125531428Y-131913333D01*
X125340952Y-131913333D01*
X125245714Y-131960952D01*
X125198095Y-132008571D01*
X125150476Y-132103809D01*
G04 #@! TO.C,C17*
X141978142Y-101703142D02*
X141930523Y-101750761D01*
X141787666Y-101798380D01*
X141692428Y-101798380D01*
X141549571Y-101750761D01*
X141454333Y-101655523D01*
X141406714Y-101560285D01*
X141359095Y-101369809D01*
X141359095Y-101226952D01*
X141406714Y-101036476D01*
X141454333Y-100941238D01*
X141549571Y-100846000D01*
X141692428Y-100798380D01*
X141787666Y-100798380D01*
X141930523Y-100846000D01*
X141978142Y-100893619D01*
X142930523Y-101798380D02*
X142359095Y-101798380D01*
X142644809Y-101798380D02*
X142644809Y-100798380D01*
X142549571Y-100941238D01*
X142454333Y-101036476D01*
X142359095Y-101084095D01*
X143263857Y-100798380D02*
X143930523Y-100798380D01*
X143501952Y-101798380D01*
G04 #@! TO.C,C20*
X130167142Y-132056142D02*
X130119523Y-132103761D01*
X129976666Y-132151380D01*
X129881428Y-132151380D01*
X129738571Y-132103761D01*
X129643333Y-132008523D01*
X129595714Y-131913285D01*
X129548095Y-131722809D01*
X129548095Y-131579952D01*
X129595714Y-131389476D01*
X129643333Y-131294238D01*
X129738571Y-131199000D01*
X129881428Y-131151380D01*
X129976666Y-131151380D01*
X130119523Y-131199000D01*
X130167142Y-131246619D01*
X130548095Y-131246619D02*
X130595714Y-131199000D01*
X130690952Y-131151380D01*
X130929047Y-131151380D01*
X131024285Y-131199000D01*
X131071904Y-131246619D01*
X131119523Y-131341857D01*
X131119523Y-131437095D01*
X131071904Y-131579952D01*
X130500476Y-132151380D01*
X131119523Y-132151380D01*
X131738571Y-131151380D02*
X131833809Y-131151380D01*
X131929047Y-131199000D01*
X131976666Y-131246619D01*
X132024285Y-131341857D01*
X132071904Y-131532333D01*
X132071904Y-131770428D01*
X132024285Y-131960904D01*
X131976666Y-132056142D01*
X131929047Y-132103761D01*
X131833809Y-132151380D01*
X131738571Y-132151380D01*
X131643333Y-132103761D01*
X131595714Y-132056142D01*
X131548095Y-131960904D01*
X131500476Y-131770428D01*
X131500476Y-131532333D01*
X131548095Y-131341857D01*
X131595714Y-131246619D01*
X131643333Y-131199000D01*
X131738571Y-131151380D01*
G04 #@! TO.C,C21*
X137157142Y-115292142D02*
X137109523Y-115339761D01*
X136966666Y-115387380D01*
X136871428Y-115387380D01*
X136728571Y-115339761D01*
X136633333Y-115244523D01*
X136585714Y-115149285D01*
X136538095Y-114958809D01*
X136538095Y-114815952D01*
X136585714Y-114625476D01*
X136633333Y-114530238D01*
X136728571Y-114435000D01*
X136871428Y-114387380D01*
X136966666Y-114387380D01*
X137109523Y-114435000D01*
X137157142Y-114482619D01*
X137538095Y-114482619D02*
X137585714Y-114435000D01*
X137680952Y-114387380D01*
X137919047Y-114387380D01*
X138014285Y-114435000D01*
X138061904Y-114482619D01*
X138109523Y-114577857D01*
X138109523Y-114673095D01*
X138061904Y-114815952D01*
X137490476Y-115387380D01*
X138109523Y-115387380D01*
X139061904Y-115387380D02*
X138490476Y-115387380D01*
X138776190Y-115387380D02*
X138776190Y-114387380D01*
X138680952Y-114530238D01*
X138585714Y-114625476D01*
X138490476Y-114673095D01*
G04 #@! TO.C,C22*
X158742142Y-120245142D02*
X158694523Y-120292761D01*
X158551666Y-120340380D01*
X158456428Y-120340380D01*
X158313571Y-120292761D01*
X158218333Y-120197523D01*
X158170714Y-120102285D01*
X158123095Y-119911809D01*
X158123095Y-119768952D01*
X158170714Y-119578476D01*
X158218333Y-119483238D01*
X158313571Y-119388000D01*
X158456428Y-119340380D01*
X158551666Y-119340380D01*
X158694523Y-119388000D01*
X158742142Y-119435619D01*
X159123095Y-119435619D02*
X159170714Y-119388000D01*
X159265952Y-119340380D01*
X159504047Y-119340380D01*
X159599285Y-119388000D01*
X159646904Y-119435619D01*
X159694523Y-119530857D01*
X159694523Y-119626095D01*
X159646904Y-119768952D01*
X159075476Y-120340380D01*
X159694523Y-120340380D01*
X160075476Y-119435619D02*
X160123095Y-119388000D01*
X160218333Y-119340380D01*
X160456428Y-119340380D01*
X160551666Y-119388000D01*
X160599285Y-119435619D01*
X160646904Y-119530857D01*
X160646904Y-119626095D01*
X160599285Y-119768952D01*
X160027857Y-120340380D01*
X160646904Y-120340380D01*
G04 #@! TO.C,C23*
X147205142Y-113186542D02*
X147157523Y-113234161D01*
X147014666Y-113281780D01*
X146919428Y-113281780D01*
X146776571Y-113234161D01*
X146681333Y-113138923D01*
X146633714Y-113043685D01*
X146586095Y-112853209D01*
X146586095Y-112710352D01*
X146633714Y-112519876D01*
X146681333Y-112424638D01*
X146776571Y-112329400D01*
X146919428Y-112281780D01*
X147014666Y-112281780D01*
X147157523Y-112329400D01*
X147205142Y-112377019D01*
X147586095Y-112377019D02*
X147633714Y-112329400D01*
X147728952Y-112281780D01*
X147967047Y-112281780D01*
X148062285Y-112329400D01*
X148109904Y-112377019D01*
X148157523Y-112472257D01*
X148157523Y-112567495D01*
X148109904Y-112710352D01*
X147538476Y-113281780D01*
X148157523Y-113281780D01*
X148490857Y-112281780D02*
X149109904Y-112281780D01*
X148776571Y-112662733D01*
X148919428Y-112662733D01*
X149014666Y-112710352D01*
X149062285Y-112757971D01*
X149109904Y-112853209D01*
X149109904Y-113091304D01*
X149062285Y-113186542D01*
X149014666Y-113234161D01*
X148919428Y-113281780D01*
X148633714Y-113281780D01*
X148538476Y-113234161D01*
X148490857Y-113186542D01*
G04 #@! TO.C,C24*
X125087142Y-103227142D02*
X125039523Y-103274761D01*
X124896666Y-103322380D01*
X124801428Y-103322380D01*
X124658571Y-103274761D01*
X124563333Y-103179523D01*
X124515714Y-103084285D01*
X124468095Y-102893809D01*
X124468095Y-102750952D01*
X124515714Y-102560476D01*
X124563333Y-102465238D01*
X124658571Y-102370000D01*
X124801428Y-102322380D01*
X124896666Y-102322380D01*
X125039523Y-102370000D01*
X125087142Y-102417619D01*
X125468095Y-102417619D02*
X125515714Y-102370000D01*
X125610952Y-102322380D01*
X125849047Y-102322380D01*
X125944285Y-102370000D01*
X125991904Y-102417619D01*
X126039523Y-102512857D01*
X126039523Y-102608095D01*
X125991904Y-102750952D01*
X125420476Y-103322380D01*
X126039523Y-103322380D01*
X126896666Y-102655714D02*
X126896666Y-103322380D01*
X126658571Y-102274761D02*
X126420476Y-102989047D01*
X127039523Y-102989047D01*
G04 #@! TO.C,C25*
X158615142Y-115292142D02*
X158567523Y-115339761D01*
X158424666Y-115387380D01*
X158329428Y-115387380D01*
X158186571Y-115339761D01*
X158091333Y-115244523D01*
X158043714Y-115149285D01*
X157996095Y-114958809D01*
X157996095Y-114815952D01*
X158043714Y-114625476D01*
X158091333Y-114530238D01*
X158186571Y-114435000D01*
X158329428Y-114387380D01*
X158424666Y-114387380D01*
X158567523Y-114435000D01*
X158615142Y-114482619D01*
X158996095Y-114482619D02*
X159043714Y-114435000D01*
X159138952Y-114387380D01*
X159377047Y-114387380D01*
X159472285Y-114435000D01*
X159519904Y-114482619D01*
X159567523Y-114577857D01*
X159567523Y-114673095D01*
X159519904Y-114815952D01*
X158948476Y-115387380D01*
X159567523Y-115387380D01*
X160472285Y-114387380D02*
X159996095Y-114387380D01*
X159948476Y-114863571D01*
X159996095Y-114815952D01*
X160091333Y-114768333D01*
X160329428Y-114768333D01*
X160424666Y-114815952D01*
X160472285Y-114863571D01*
X160519904Y-114958809D01*
X160519904Y-115196904D01*
X160472285Y-115292142D01*
X160424666Y-115339761D01*
X160329428Y-115387380D01*
X160091333Y-115387380D01*
X159996095Y-115339761D01*
X159948476Y-115292142D01*
G04 #@! TO.C,C26*
X158869142Y-91543142D02*
X158821523Y-91590761D01*
X158678666Y-91638380D01*
X158583428Y-91638380D01*
X158440571Y-91590761D01*
X158345333Y-91495523D01*
X158297714Y-91400285D01*
X158250095Y-91209809D01*
X158250095Y-91066952D01*
X158297714Y-90876476D01*
X158345333Y-90781238D01*
X158440571Y-90686000D01*
X158583428Y-90638380D01*
X158678666Y-90638380D01*
X158821523Y-90686000D01*
X158869142Y-90733619D01*
X159250095Y-90733619D02*
X159297714Y-90686000D01*
X159392952Y-90638380D01*
X159631047Y-90638380D01*
X159726285Y-90686000D01*
X159773904Y-90733619D01*
X159821523Y-90828857D01*
X159821523Y-90924095D01*
X159773904Y-91066952D01*
X159202476Y-91638380D01*
X159821523Y-91638380D01*
X160678666Y-90638380D02*
X160488190Y-90638380D01*
X160392952Y-90686000D01*
X160345333Y-90733619D01*
X160250095Y-90876476D01*
X160202476Y-91066952D01*
X160202476Y-91447904D01*
X160250095Y-91543142D01*
X160297714Y-91590761D01*
X160392952Y-91638380D01*
X160583428Y-91638380D01*
X160678666Y-91590761D01*
X160726285Y-91543142D01*
X160773904Y-91447904D01*
X160773904Y-91209809D01*
X160726285Y-91114571D01*
X160678666Y-91066952D01*
X160583428Y-91019333D01*
X160392952Y-91019333D01*
X160297714Y-91066952D01*
X160250095Y-91114571D01*
X160202476Y-91209809D01*
G04 #@! TO.C,C27*
X137787142Y-117832142D02*
X137739523Y-117879761D01*
X137596666Y-117927380D01*
X137501428Y-117927380D01*
X137358571Y-117879761D01*
X137263333Y-117784523D01*
X137215714Y-117689285D01*
X137168095Y-117498809D01*
X137168095Y-117355952D01*
X137215714Y-117165476D01*
X137263333Y-117070238D01*
X137358571Y-116975000D01*
X137501428Y-116927380D01*
X137596666Y-116927380D01*
X137739523Y-116975000D01*
X137787142Y-117022619D01*
X138168095Y-117022619D02*
X138215714Y-116975000D01*
X138310952Y-116927380D01*
X138549047Y-116927380D01*
X138644285Y-116975000D01*
X138691904Y-117022619D01*
X138739523Y-117117857D01*
X138739523Y-117213095D01*
X138691904Y-117355952D01*
X138120476Y-117927380D01*
X138739523Y-117927380D01*
X139072857Y-116927380D02*
X139739523Y-116927380D01*
X139310952Y-117927380D01*
G04 #@! TO.C,C28*
X140962142Y-132564142D02*
X140914523Y-132611761D01*
X140771666Y-132659380D01*
X140676428Y-132659380D01*
X140533571Y-132611761D01*
X140438333Y-132516523D01*
X140390714Y-132421285D01*
X140343095Y-132230809D01*
X140343095Y-132087952D01*
X140390714Y-131897476D01*
X140438333Y-131802238D01*
X140533571Y-131707000D01*
X140676428Y-131659380D01*
X140771666Y-131659380D01*
X140914523Y-131707000D01*
X140962142Y-131754619D01*
X141343095Y-131754619D02*
X141390714Y-131707000D01*
X141485952Y-131659380D01*
X141724047Y-131659380D01*
X141819285Y-131707000D01*
X141866904Y-131754619D01*
X141914523Y-131849857D01*
X141914523Y-131945095D01*
X141866904Y-132087952D01*
X141295476Y-132659380D01*
X141914523Y-132659380D01*
X142485952Y-132087952D02*
X142390714Y-132040333D01*
X142343095Y-131992714D01*
X142295476Y-131897476D01*
X142295476Y-131849857D01*
X142343095Y-131754619D01*
X142390714Y-131707000D01*
X142485952Y-131659380D01*
X142676428Y-131659380D01*
X142771666Y-131707000D01*
X142819285Y-131754619D01*
X142866904Y-131849857D01*
X142866904Y-131897476D01*
X142819285Y-131992714D01*
X142771666Y-132040333D01*
X142676428Y-132087952D01*
X142485952Y-132087952D01*
X142390714Y-132135571D01*
X142343095Y-132183190D01*
X142295476Y-132278428D01*
X142295476Y-132468904D01*
X142343095Y-132564142D01*
X142390714Y-132611761D01*
X142485952Y-132659380D01*
X142676428Y-132659380D01*
X142771666Y-132611761D01*
X142819285Y-132564142D01*
X142866904Y-132468904D01*
X142866904Y-132278428D01*
X142819285Y-132183190D01*
X142771666Y-132135571D01*
X142676428Y-132087952D01*
G04 #@! TO.C,D2*
X113561904Y-86022380D02*
X113561904Y-85022380D01*
X113800000Y-85022380D01*
X113942857Y-85070000D01*
X114038095Y-85165238D01*
X114085714Y-85260476D01*
X114133333Y-85450952D01*
X114133333Y-85593809D01*
X114085714Y-85784285D01*
X114038095Y-85879523D01*
X113942857Y-85974761D01*
X113800000Y-86022380D01*
X113561904Y-86022380D01*
X114514285Y-85117619D02*
X114561904Y-85070000D01*
X114657142Y-85022380D01*
X114895238Y-85022380D01*
X114990476Y-85070000D01*
X115038095Y-85117619D01*
X115085714Y-85212857D01*
X115085714Y-85308095D01*
X115038095Y-85450952D01*
X114466666Y-86022380D01*
X115085714Y-86022380D01*
G04 #@! TO.C,D3*
X99591904Y-130627380D02*
X99591904Y-129627380D01*
X99830000Y-129627380D01*
X99972857Y-129675000D01*
X100068095Y-129770238D01*
X100115714Y-129865476D01*
X100163333Y-130055952D01*
X100163333Y-130198809D01*
X100115714Y-130389285D01*
X100068095Y-130484523D01*
X99972857Y-130579761D01*
X99830000Y-130627380D01*
X99591904Y-130627380D01*
X100496666Y-129627380D02*
X101115714Y-129627380D01*
X100782380Y-130008333D01*
X100925238Y-130008333D01*
X101020476Y-130055952D01*
X101068095Y-130103571D01*
X101115714Y-130198809D01*
X101115714Y-130436904D01*
X101068095Y-130532142D01*
X101020476Y-130579761D01*
X100925238Y-130627380D01*
X100639523Y-130627380D01*
X100544285Y-130579761D01*
X100496666Y-130532142D01*
G04 #@! TO.C,D4*
X113561904Y-72687380D02*
X113561904Y-71687380D01*
X113800000Y-71687380D01*
X113942857Y-71735000D01*
X114038095Y-71830238D01*
X114085714Y-71925476D01*
X114133333Y-72115952D01*
X114133333Y-72258809D01*
X114085714Y-72449285D01*
X114038095Y-72544523D01*
X113942857Y-72639761D01*
X113800000Y-72687380D01*
X113561904Y-72687380D01*
X114990476Y-72020714D02*
X114990476Y-72687380D01*
X114752380Y-71639761D02*
X114514285Y-72354047D01*
X115133333Y-72354047D01*
G04 #@! TO.C,D6*
X113561904Y-79037380D02*
X113561904Y-78037380D01*
X113800000Y-78037380D01*
X113942857Y-78085000D01*
X114038095Y-78180238D01*
X114085714Y-78275476D01*
X114133333Y-78465952D01*
X114133333Y-78608809D01*
X114085714Y-78799285D01*
X114038095Y-78894523D01*
X113942857Y-78989761D01*
X113800000Y-79037380D01*
X113561904Y-79037380D01*
X114990476Y-78037380D02*
X114800000Y-78037380D01*
X114704761Y-78085000D01*
X114657142Y-78132619D01*
X114561904Y-78275476D01*
X114514285Y-78465952D01*
X114514285Y-78846904D01*
X114561904Y-78942142D01*
X114609523Y-78989761D01*
X114704761Y-79037380D01*
X114895238Y-79037380D01*
X114990476Y-78989761D01*
X115038095Y-78942142D01*
X115085714Y-78846904D01*
X115085714Y-78608809D01*
X115038095Y-78513571D01*
X114990476Y-78465952D01*
X114895238Y-78418333D01*
X114704761Y-78418333D01*
X114609523Y-78465952D01*
X114561904Y-78513571D01*
X114514285Y-78608809D01*
G04 #@! TO.C,D8*
X180236904Y-61412380D02*
X180236904Y-60412380D01*
X180475000Y-60412380D01*
X180617857Y-60460000D01*
X180713095Y-60555238D01*
X180760714Y-60650476D01*
X180808333Y-60840952D01*
X180808333Y-60983809D01*
X180760714Y-61174285D01*
X180713095Y-61269523D01*
X180617857Y-61364761D01*
X180475000Y-61412380D01*
X180236904Y-61412380D01*
X181379761Y-60840952D02*
X181284523Y-60793333D01*
X181236904Y-60745714D01*
X181189285Y-60650476D01*
X181189285Y-60602857D01*
X181236904Y-60507619D01*
X181284523Y-60460000D01*
X181379761Y-60412380D01*
X181570238Y-60412380D01*
X181665476Y-60460000D01*
X181713095Y-60507619D01*
X181760714Y-60602857D01*
X181760714Y-60650476D01*
X181713095Y-60745714D01*
X181665476Y-60793333D01*
X181570238Y-60840952D01*
X181379761Y-60840952D01*
X181284523Y-60888571D01*
X181236904Y-60936190D01*
X181189285Y-61031428D01*
X181189285Y-61221904D01*
X181236904Y-61317142D01*
X181284523Y-61364761D01*
X181379761Y-61412380D01*
X181570238Y-61412380D01*
X181665476Y-61364761D01*
X181713095Y-61317142D01*
X181760714Y-61221904D01*
X181760714Y-61031428D01*
X181713095Y-60936190D01*
X181665476Y-60888571D01*
X181570238Y-60840952D01*
X192079619Y-62356904D02*
X192032000Y-62309285D01*
X191984380Y-62214047D01*
X191984380Y-61975952D01*
X192032000Y-61880714D01*
X192079619Y-61833095D01*
X192174857Y-61785476D01*
X192270095Y-61785476D01*
X192412952Y-61833095D01*
X192984380Y-62404523D01*
X192984380Y-61785476D01*
X191984380Y-61166428D02*
X191984380Y-61071190D01*
X192032000Y-60975952D01*
X192079619Y-60928333D01*
X192174857Y-60880714D01*
X192365333Y-60833095D01*
X192603428Y-60833095D01*
X192793904Y-60880714D01*
X192889142Y-60928333D01*
X192936761Y-60975952D01*
X192984380Y-61071190D01*
X192984380Y-61166428D01*
X192936761Y-61261666D01*
X192889142Y-61309285D01*
X192793904Y-61356904D01*
X192603428Y-61404523D01*
X192365333Y-61404523D01*
X192174857Y-61356904D01*
X192079619Y-61309285D01*
X192032000Y-61261666D01*
X191984380Y-61166428D01*
X193238380Y-119475285D02*
X193238380Y-120046714D01*
X193238380Y-119761000D02*
X192238380Y-119761000D01*
X192381238Y-119856238D01*
X192476476Y-119951476D01*
X192524095Y-120046714D01*
G04 #@! TO.C,D9*
X182141904Y-132786380D02*
X182141904Y-131786380D01*
X182380000Y-131786380D01*
X182522857Y-131834000D01*
X182618095Y-131929238D01*
X182665714Y-132024476D01*
X182713333Y-132214952D01*
X182713333Y-132357809D01*
X182665714Y-132548285D01*
X182618095Y-132643523D01*
X182522857Y-132738761D01*
X182380000Y-132786380D01*
X182141904Y-132786380D01*
X183189523Y-132786380D02*
X183380000Y-132786380D01*
X183475238Y-132738761D01*
X183522857Y-132691142D01*
X183618095Y-132548285D01*
X183665714Y-132357809D01*
X183665714Y-131976857D01*
X183618095Y-131881619D01*
X183570476Y-131834000D01*
X183475238Y-131786380D01*
X183284761Y-131786380D01*
X183189523Y-131834000D01*
X183141904Y-131881619D01*
X183094285Y-131976857D01*
X183094285Y-132214952D01*
X183141904Y-132310190D01*
X183189523Y-132357809D01*
X183284761Y-132405428D01*
X183475238Y-132405428D01*
X183570476Y-132357809D01*
X183618095Y-132310190D01*
X183665714Y-132214952D01*
G04 #@! TO.C,D10*
X181538714Y-131389380D02*
X181538714Y-130389380D01*
X181776809Y-130389380D01*
X181919666Y-130437000D01*
X182014904Y-130532238D01*
X182062523Y-130627476D01*
X182110142Y-130817952D01*
X182110142Y-130960809D01*
X182062523Y-131151285D01*
X182014904Y-131246523D01*
X181919666Y-131341761D01*
X181776809Y-131389380D01*
X181538714Y-131389380D01*
X183062523Y-131389380D02*
X182491095Y-131389380D01*
X182776809Y-131389380D02*
X182776809Y-130389380D01*
X182681571Y-130532238D01*
X182586333Y-130627476D01*
X182491095Y-130675095D01*
X183681571Y-130389380D02*
X183776809Y-130389380D01*
X183872047Y-130437000D01*
X183919666Y-130484619D01*
X183967285Y-130579857D01*
X184014904Y-130770333D01*
X184014904Y-131008428D01*
X183967285Y-131198904D01*
X183919666Y-131294142D01*
X183872047Y-131341761D01*
X183776809Y-131389380D01*
X183681571Y-131389380D01*
X183586333Y-131341761D01*
X183538714Y-131294142D01*
X183491095Y-131198904D01*
X183443476Y-131008428D01*
X183443476Y-130770333D01*
X183491095Y-130579857D01*
X183538714Y-130484619D01*
X183586333Y-130437000D01*
X183681571Y-130389380D01*
G04 #@! TO.C,D11*
X176585714Y-61412380D02*
X176585714Y-60412380D01*
X176823809Y-60412380D01*
X176966666Y-60460000D01*
X177061904Y-60555238D01*
X177109523Y-60650476D01*
X177157142Y-60840952D01*
X177157142Y-60983809D01*
X177109523Y-61174285D01*
X177061904Y-61269523D01*
X176966666Y-61364761D01*
X176823809Y-61412380D01*
X176585714Y-61412380D01*
X178109523Y-61412380D02*
X177538095Y-61412380D01*
X177823809Y-61412380D02*
X177823809Y-60412380D01*
X177728571Y-60555238D01*
X177633333Y-60650476D01*
X177538095Y-60698095D01*
X179061904Y-61412380D02*
X178490476Y-61412380D01*
X178776190Y-61412380D02*
X178776190Y-60412380D01*
X178680952Y-60555238D01*
X178585714Y-60650476D01*
X178490476Y-60698095D01*
X186340714Y-120822980D02*
X185769285Y-120822980D01*
X186055000Y-120822980D02*
X186055000Y-119822980D01*
X185959761Y-119965838D01*
X185864523Y-120061076D01*
X185769285Y-120108695D01*
X185521695Y-60329819D02*
X185569314Y-60282200D01*
X185664552Y-60234580D01*
X185902647Y-60234580D01*
X185997885Y-60282200D01*
X186045504Y-60329819D01*
X186093123Y-60425057D01*
X186093123Y-60520295D01*
X186045504Y-60663152D01*
X185474076Y-61234580D01*
X186093123Y-61234580D01*
X186712171Y-60234580D02*
X186807409Y-60234580D01*
X186902647Y-60282200D01*
X186950266Y-60329819D01*
X186997885Y-60425057D01*
X187045504Y-60615533D01*
X187045504Y-60853628D01*
X186997885Y-61044104D01*
X186950266Y-61139342D01*
X186902647Y-61186961D01*
X186807409Y-61234580D01*
X186712171Y-61234580D01*
X186616933Y-61186961D01*
X186569314Y-61139342D01*
X186521695Y-61044104D01*
X186474076Y-60853628D01*
X186474076Y-60615533D01*
X186521695Y-60425057D01*
X186569314Y-60329819D01*
X186616933Y-60282200D01*
X186712171Y-60234580D01*
G04 #@! TO.C,D12*
X177728714Y-122753380D02*
X177728714Y-121753380D01*
X177966809Y-121753380D01*
X178109666Y-121801000D01*
X178204904Y-121896238D01*
X178252523Y-121991476D01*
X178300142Y-122181952D01*
X178300142Y-122324809D01*
X178252523Y-122515285D01*
X178204904Y-122610523D01*
X178109666Y-122705761D01*
X177966809Y-122753380D01*
X177728714Y-122753380D01*
X179252523Y-122753380D02*
X178681095Y-122753380D01*
X178966809Y-122753380D02*
X178966809Y-121753380D01*
X178871571Y-121896238D01*
X178776333Y-121991476D01*
X178681095Y-122039095D01*
X179633476Y-121848619D02*
X179681095Y-121801000D01*
X179776333Y-121753380D01*
X180014428Y-121753380D01*
X180109666Y-121801000D01*
X180157285Y-121848619D01*
X180204904Y-121943857D01*
X180204904Y-122039095D01*
X180157285Y-122181952D01*
X179585857Y-122753380D01*
X180204904Y-122753380D01*
G04 #@! TO.C,F1*
X175561666Y-132008571D02*
X175228333Y-132008571D01*
X175228333Y-132532380D02*
X175228333Y-131532380D01*
X175704523Y-131532380D01*
X176609285Y-132532380D02*
X176037857Y-132532380D01*
X176323571Y-132532380D02*
X176323571Y-131532380D01*
X176228333Y-131675238D01*
X176133095Y-131770476D01*
X176037857Y-131818095D01*
G04 #@! TO.C,J1*
X83486666Y-87717380D02*
X83486666Y-88431666D01*
X83439047Y-88574523D01*
X83343809Y-88669761D01*
X83200952Y-88717380D01*
X83105714Y-88717380D01*
X84486666Y-88717380D02*
X83915238Y-88717380D01*
X84200952Y-88717380D02*
X84200952Y-87717380D01*
X84105714Y-87860238D01*
X84010476Y-87955476D01*
X83915238Y-88003095D01*
G04 #@! TO.C,J2*
X84121666Y-104862380D02*
X84121666Y-105576666D01*
X84074047Y-105719523D01*
X83978809Y-105814761D01*
X83835952Y-105862380D01*
X83740714Y-105862380D01*
X84550238Y-104957619D02*
X84597857Y-104910000D01*
X84693095Y-104862380D01*
X84931190Y-104862380D01*
X85026428Y-104910000D01*
X85074047Y-104957619D01*
X85121666Y-105052857D01*
X85121666Y-105148095D01*
X85074047Y-105290952D01*
X84502619Y-105862380D01*
X85121666Y-105862380D01*
G04 #@! TO.C,J3*
X82851666Y-66762380D02*
X82851666Y-67476666D01*
X82804047Y-67619523D01*
X82708809Y-67714761D01*
X82565952Y-67762380D01*
X82470714Y-67762380D01*
X83232619Y-66762380D02*
X83851666Y-66762380D01*
X83518333Y-67143333D01*
X83661190Y-67143333D01*
X83756428Y-67190952D01*
X83804047Y-67238571D01*
X83851666Y-67333809D01*
X83851666Y-67571904D01*
X83804047Y-67667142D01*
X83756428Y-67714761D01*
X83661190Y-67762380D01*
X83375476Y-67762380D01*
X83280238Y-67714761D01*
X83232619Y-67667142D01*
G04 #@! TO.C,J4*
X186706666Y-122007380D02*
X186706666Y-122721666D01*
X186659047Y-122864523D01*
X186563809Y-122959761D01*
X186420952Y-123007380D01*
X186325714Y-123007380D01*
X187611428Y-122340714D02*
X187611428Y-123007380D01*
X187373333Y-121959761D02*
X187135238Y-122674047D01*
X187754285Y-122674047D01*
G04 #@! TO.C,J5*
X130476666Y-108672380D02*
X130476666Y-109386666D01*
X130429047Y-109529523D01*
X130333809Y-109624761D01*
X130190952Y-109672380D01*
X130095714Y-109672380D01*
X131429047Y-108672380D02*
X130952857Y-108672380D01*
X130905238Y-109148571D01*
X130952857Y-109100952D01*
X131048095Y-109053333D01*
X131286190Y-109053333D01*
X131381428Y-109100952D01*
X131429047Y-109148571D01*
X131476666Y-109243809D01*
X131476666Y-109481904D01*
X131429047Y-109577142D01*
X131381428Y-109624761D01*
X131286190Y-109672380D01*
X131048095Y-109672380D01*
X130952857Y-109624761D01*
X130905238Y-109577142D01*
G04 #@! TO.C,JP1*
X158815666Y-130135380D02*
X158815666Y-130849666D01*
X158768047Y-130992523D01*
X158672809Y-131087761D01*
X158529952Y-131135380D01*
X158434714Y-131135380D01*
X159291857Y-131135380D02*
X159291857Y-130135380D01*
X159672809Y-130135380D01*
X159768047Y-130183000D01*
X159815666Y-130230619D01*
X159863285Y-130325857D01*
X159863285Y-130468714D01*
X159815666Y-130563952D01*
X159768047Y-130611571D01*
X159672809Y-130659190D01*
X159291857Y-130659190D01*
X160815666Y-131135380D02*
X160244238Y-131135380D01*
X160529952Y-131135380D02*
X160529952Y-130135380D01*
X160434714Y-130278238D01*
X160339476Y-130373476D01*
X160244238Y-130421095D01*
G04 #@! TO.C,Q1*
X164369761Y-82717619D02*
X164274523Y-82670000D01*
X164179285Y-82574761D01*
X164036428Y-82431904D01*
X163941190Y-82384285D01*
X163845952Y-82384285D01*
X163893571Y-82622380D02*
X163798333Y-82574761D01*
X163703095Y-82479523D01*
X163655476Y-82289047D01*
X163655476Y-81955714D01*
X163703095Y-81765238D01*
X163798333Y-81670000D01*
X163893571Y-81622380D01*
X164084047Y-81622380D01*
X164179285Y-81670000D01*
X164274523Y-81765238D01*
X164322142Y-81955714D01*
X164322142Y-82289047D01*
X164274523Y-82479523D01*
X164179285Y-82574761D01*
X164084047Y-82622380D01*
X163893571Y-82622380D01*
X165274523Y-82622380D02*
X164703095Y-82622380D01*
X164988809Y-82622380D02*
X164988809Y-81622380D01*
X164893571Y-81765238D01*
X164798333Y-81860476D01*
X164703095Y-81908095D01*
G04 #@! TO.C,Q2*
X164369761Y-75732619D02*
X164274523Y-75685000D01*
X164179285Y-75589761D01*
X164036428Y-75446904D01*
X163941190Y-75399285D01*
X163845952Y-75399285D01*
X163893571Y-75637380D02*
X163798333Y-75589761D01*
X163703095Y-75494523D01*
X163655476Y-75304047D01*
X163655476Y-74970714D01*
X163703095Y-74780238D01*
X163798333Y-74685000D01*
X163893571Y-74637380D01*
X164084047Y-74637380D01*
X164179285Y-74685000D01*
X164274523Y-74780238D01*
X164322142Y-74970714D01*
X164322142Y-75304047D01*
X164274523Y-75494523D01*
X164179285Y-75589761D01*
X164084047Y-75637380D01*
X163893571Y-75637380D01*
X164703095Y-74732619D02*
X164750714Y-74685000D01*
X164845952Y-74637380D01*
X165084047Y-74637380D01*
X165179285Y-74685000D01*
X165226904Y-74732619D01*
X165274523Y-74827857D01*
X165274523Y-74923095D01*
X165226904Y-75065952D01*
X164655476Y-75637380D01*
X165274523Y-75637380D01*
G04 #@! TO.C,Q3*
X154209761Y-61762619D02*
X154114523Y-61715000D01*
X154019285Y-61619761D01*
X153876428Y-61476904D01*
X153781190Y-61429285D01*
X153685952Y-61429285D01*
X153733571Y-61667380D02*
X153638333Y-61619761D01*
X153543095Y-61524523D01*
X153495476Y-61334047D01*
X153495476Y-61000714D01*
X153543095Y-60810238D01*
X153638333Y-60715000D01*
X153733571Y-60667380D01*
X153924047Y-60667380D01*
X154019285Y-60715000D01*
X154114523Y-60810238D01*
X154162142Y-61000714D01*
X154162142Y-61334047D01*
X154114523Y-61524523D01*
X154019285Y-61619761D01*
X153924047Y-61667380D01*
X153733571Y-61667380D01*
X154495476Y-60667380D02*
X155114523Y-60667380D01*
X154781190Y-61048333D01*
X154924047Y-61048333D01*
X155019285Y-61095952D01*
X155066904Y-61143571D01*
X155114523Y-61238809D01*
X155114523Y-61476904D01*
X155066904Y-61572142D01*
X155019285Y-61619761D01*
X154924047Y-61667380D01*
X154638333Y-61667380D01*
X154543095Y-61619761D01*
X154495476Y-61572142D01*
G04 #@! TO.C,Q4*
X126904761Y-117387619D02*
X126809523Y-117340000D01*
X126714285Y-117244761D01*
X126571428Y-117101904D01*
X126476190Y-117054285D01*
X126380952Y-117054285D01*
X126428571Y-117292380D02*
X126333333Y-117244761D01*
X126238095Y-117149523D01*
X126190476Y-116959047D01*
X126190476Y-116625714D01*
X126238095Y-116435238D01*
X126333333Y-116340000D01*
X126428571Y-116292380D01*
X126619047Y-116292380D01*
X126714285Y-116340000D01*
X126809523Y-116435238D01*
X126857142Y-116625714D01*
X126857142Y-116959047D01*
X126809523Y-117149523D01*
X126714285Y-117244761D01*
X126619047Y-117292380D01*
X126428571Y-117292380D01*
X127714285Y-116625714D02*
X127714285Y-117292380D01*
X127476190Y-116244761D02*
X127238095Y-116959047D01*
X127857142Y-116959047D01*
G04 #@! TO.C,Q5*
X164369761Y-61762619D02*
X164274523Y-61715000D01*
X164179285Y-61619761D01*
X164036428Y-61476904D01*
X163941190Y-61429285D01*
X163845952Y-61429285D01*
X163893571Y-61667380D02*
X163798333Y-61619761D01*
X163703095Y-61524523D01*
X163655476Y-61334047D01*
X163655476Y-61000714D01*
X163703095Y-60810238D01*
X163798333Y-60715000D01*
X163893571Y-60667380D01*
X164084047Y-60667380D01*
X164179285Y-60715000D01*
X164274523Y-60810238D01*
X164322142Y-61000714D01*
X164322142Y-61334047D01*
X164274523Y-61524523D01*
X164179285Y-61619761D01*
X164084047Y-61667380D01*
X163893571Y-61667380D01*
X165226904Y-60667380D02*
X164750714Y-60667380D01*
X164703095Y-61143571D01*
X164750714Y-61095952D01*
X164845952Y-61048333D01*
X165084047Y-61048333D01*
X165179285Y-61095952D01*
X165226904Y-61143571D01*
X165274523Y-61238809D01*
X165274523Y-61476904D01*
X165226904Y-61572142D01*
X165179285Y-61619761D01*
X165084047Y-61667380D01*
X164845952Y-61667380D01*
X164750714Y-61619761D01*
X164703095Y-61572142D01*
G04 #@! TO.C,Q6*
X164369761Y-68747619D02*
X164274523Y-68700000D01*
X164179285Y-68604761D01*
X164036428Y-68461904D01*
X163941190Y-68414285D01*
X163845952Y-68414285D01*
X163893571Y-68652380D02*
X163798333Y-68604761D01*
X163703095Y-68509523D01*
X163655476Y-68319047D01*
X163655476Y-67985714D01*
X163703095Y-67795238D01*
X163798333Y-67700000D01*
X163893571Y-67652380D01*
X164084047Y-67652380D01*
X164179285Y-67700000D01*
X164274523Y-67795238D01*
X164322142Y-67985714D01*
X164322142Y-68319047D01*
X164274523Y-68509523D01*
X164179285Y-68604761D01*
X164084047Y-68652380D01*
X163893571Y-68652380D01*
X165179285Y-67652380D02*
X164988809Y-67652380D01*
X164893571Y-67700000D01*
X164845952Y-67747619D01*
X164750714Y-67890476D01*
X164703095Y-68080952D01*
X164703095Y-68461904D01*
X164750714Y-68557142D01*
X164798333Y-68604761D01*
X164893571Y-68652380D01*
X165084047Y-68652380D01*
X165179285Y-68604761D01*
X165226904Y-68557142D01*
X165274523Y-68461904D01*
X165274523Y-68223809D01*
X165226904Y-68128571D01*
X165179285Y-68080952D01*
X165084047Y-68033333D01*
X164893571Y-68033333D01*
X164798333Y-68080952D01*
X164750714Y-68128571D01*
X164703095Y-68223809D01*
G04 #@! TO.C,R1*
X125563333Y-99512380D02*
X125230000Y-99036190D01*
X124991904Y-99512380D02*
X124991904Y-98512380D01*
X125372857Y-98512380D01*
X125468095Y-98560000D01*
X125515714Y-98607619D01*
X125563333Y-98702857D01*
X125563333Y-98845714D01*
X125515714Y-98940952D01*
X125468095Y-98988571D01*
X125372857Y-99036190D01*
X124991904Y-99036190D01*
X126515714Y-99512380D02*
X125944285Y-99512380D01*
X126230000Y-99512380D02*
X126230000Y-98512380D01*
X126134761Y-98655238D01*
X126039523Y-98750476D01*
X125944285Y-98798095D01*
G04 #@! TO.C,R2*
X128103333Y-91892380D02*
X127770000Y-91416190D01*
X127531904Y-91892380D02*
X127531904Y-90892380D01*
X127912857Y-90892380D01*
X128008095Y-90940000D01*
X128055714Y-90987619D01*
X128103333Y-91082857D01*
X128103333Y-91225714D01*
X128055714Y-91320952D01*
X128008095Y-91368571D01*
X127912857Y-91416190D01*
X127531904Y-91416190D01*
X128484285Y-90987619D02*
X128531904Y-90940000D01*
X128627142Y-90892380D01*
X128865238Y-90892380D01*
X128960476Y-90940000D01*
X129008095Y-90987619D01*
X129055714Y-91082857D01*
X129055714Y-91178095D01*
X129008095Y-91320952D01*
X128436666Y-91892380D01*
X129055714Y-91892380D01*
G04 #@! TO.C,R3*
X147280333Y-88463380D02*
X146947000Y-87987190D01*
X146708904Y-88463380D02*
X146708904Y-87463380D01*
X147089857Y-87463380D01*
X147185095Y-87511000D01*
X147232714Y-87558619D01*
X147280333Y-87653857D01*
X147280333Y-87796714D01*
X147232714Y-87891952D01*
X147185095Y-87939571D01*
X147089857Y-87987190D01*
X146708904Y-87987190D01*
X147613666Y-87463380D02*
X148232714Y-87463380D01*
X147899380Y-87844333D01*
X148042238Y-87844333D01*
X148137476Y-87891952D01*
X148185095Y-87939571D01*
X148232714Y-88034809D01*
X148232714Y-88272904D01*
X148185095Y-88368142D01*
X148137476Y-88415761D01*
X148042238Y-88463380D01*
X147756523Y-88463380D01*
X147661285Y-88415761D01*
X147613666Y-88368142D01*
G04 #@! TO.C,R4*
X96988333Y-102687380D02*
X96655000Y-102211190D01*
X96416904Y-102687380D02*
X96416904Y-101687380D01*
X96797857Y-101687380D01*
X96893095Y-101735000D01*
X96940714Y-101782619D01*
X96988333Y-101877857D01*
X96988333Y-102020714D01*
X96940714Y-102115952D01*
X96893095Y-102163571D01*
X96797857Y-102211190D01*
X96416904Y-102211190D01*
X97845476Y-102020714D02*
X97845476Y-102687380D01*
X97607380Y-101639761D02*
X97369285Y-102354047D01*
X97988333Y-102354047D01*
G04 #@! TO.C,R5*
X151979333Y-82597380D02*
X151646000Y-82121190D01*
X151407904Y-82597380D02*
X151407904Y-81597380D01*
X151788857Y-81597380D01*
X151884095Y-81645000D01*
X151931714Y-81692619D01*
X151979333Y-81787857D01*
X151979333Y-81930714D01*
X151931714Y-82025952D01*
X151884095Y-82073571D01*
X151788857Y-82121190D01*
X151407904Y-82121190D01*
X152884095Y-81597380D02*
X152407904Y-81597380D01*
X152360285Y-82073571D01*
X152407904Y-82025952D01*
X152503142Y-81978333D01*
X152741238Y-81978333D01*
X152836476Y-82025952D01*
X152884095Y-82073571D01*
X152931714Y-82168809D01*
X152931714Y-82406904D01*
X152884095Y-82502142D01*
X152836476Y-82549761D01*
X152741238Y-82597380D01*
X152503142Y-82597380D01*
X152407904Y-82549761D01*
X152360285Y-82502142D01*
G04 #@! TO.C,R6*
X131278333Y-82597380D02*
X130945000Y-82121190D01*
X130706904Y-82597380D02*
X130706904Y-81597380D01*
X131087857Y-81597380D01*
X131183095Y-81645000D01*
X131230714Y-81692619D01*
X131278333Y-81787857D01*
X131278333Y-81930714D01*
X131230714Y-82025952D01*
X131183095Y-82073571D01*
X131087857Y-82121190D01*
X130706904Y-82121190D01*
X132135476Y-81597380D02*
X131945000Y-81597380D01*
X131849761Y-81645000D01*
X131802142Y-81692619D01*
X131706904Y-81835476D01*
X131659285Y-82025952D01*
X131659285Y-82406904D01*
X131706904Y-82502142D01*
X131754523Y-82549761D01*
X131849761Y-82597380D01*
X132040238Y-82597380D01*
X132135476Y-82549761D01*
X132183095Y-82502142D01*
X132230714Y-82406904D01*
X132230714Y-82168809D01*
X132183095Y-82073571D01*
X132135476Y-82025952D01*
X132040238Y-81978333D01*
X131849761Y-81978333D01*
X131754523Y-82025952D01*
X131706904Y-82073571D01*
X131659285Y-82168809D01*
G04 #@! TO.C,R7*
X131278333Y-77517380D02*
X130945000Y-77041190D01*
X130706904Y-77517380D02*
X130706904Y-76517380D01*
X131087857Y-76517380D01*
X131183095Y-76565000D01*
X131230714Y-76612619D01*
X131278333Y-76707857D01*
X131278333Y-76850714D01*
X131230714Y-76945952D01*
X131183095Y-76993571D01*
X131087857Y-77041190D01*
X130706904Y-77041190D01*
X131611666Y-76517380D02*
X132278333Y-76517380D01*
X131849761Y-77517380D01*
G04 #@! TO.C,R8*
X96353333Y-67127380D02*
X96020000Y-66651190D01*
X95781904Y-67127380D02*
X95781904Y-66127380D01*
X96162857Y-66127380D01*
X96258095Y-66175000D01*
X96305714Y-66222619D01*
X96353333Y-66317857D01*
X96353333Y-66460714D01*
X96305714Y-66555952D01*
X96258095Y-66603571D01*
X96162857Y-66651190D01*
X95781904Y-66651190D01*
X96924761Y-66555952D02*
X96829523Y-66508333D01*
X96781904Y-66460714D01*
X96734285Y-66365476D01*
X96734285Y-66317857D01*
X96781904Y-66222619D01*
X96829523Y-66175000D01*
X96924761Y-66127380D01*
X97115238Y-66127380D01*
X97210476Y-66175000D01*
X97258095Y-66222619D01*
X97305714Y-66317857D01*
X97305714Y-66365476D01*
X97258095Y-66460714D01*
X97210476Y-66508333D01*
X97115238Y-66555952D01*
X96924761Y-66555952D01*
X96829523Y-66603571D01*
X96781904Y-66651190D01*
X96734285Y-66746428D01*
X96734285Y-66936904D01*
X96781904Y-67032142D01*
X96829523Y-67079761D01*
X96924761Y-67127380D01*
X97115238Y-67127380D01*
X97210476Y-67079761D01*
X97258095Y-67032142D01*
X97305714Y-66936904D01*
X97305714Y-66746428D01*
X97258095Y-66651190D01*
X97210476Y-66603571D01*
X97115238Y-66555952D01*
G04 #@! TO.C,R9*
X141438333Y-96972380D02*
X141105000Y-96496190D01*
X140866904Y-96972380D02*
X140866904Y-95972380D01*
X141247857Y-95972380D01*
X141343095Y-96020000D01*
X141390714Y-96067619D01*
X141438333Y-96162857D01*
X141438333Y-96305714D01*
X141390714Y-96400952D01*
X141343095Y-96448571D01*
X141247857Y-96496190D01*
X140866904Y-96496190D01*
X141914523Y-96972380D02*
X142105000Y-96972380D01*
X142200238Y-96924761D01*
X142247857Y-96877142D01*
X142343095Y-96734285D01*
X142390714Y-96543809D01*
X142390714Y-96162857D01*
X142343095Y-96067619D01*
X142295476Y-96020000D01*
X142200238Y-95972380D01*
X142009761Y-95972380D01*
X141914523Y-96020000D01*
X141866904Y-96067619D01*
X141819285Y-96162857D01*
X141819285Y-96400952D01*
X141866904Y-96496190D01*
X141914523Y-96543809D01*
X142009761Y-96591428D01*
X142200238Y-96591428D01*
X142295476Y-96543809D01*
X142343095Y-96496190D01*
X142390714Y-96400952D01*
G04 #@! TO.C,R10*
X149852142Y-72437380D02*
X149518809Y-71961190D01*
X149280714Y-72437380D02*
X149280714Y-71437380D01*
X149661666Y-71437380D01*
X149756904Y-71485000D01*
X149804523Y-71532619D01*
X149852142Y-71627857D01*
X149852142Y-71770714D01*
X149804523Y-71865952D01*
X149756904Y-71913571D01*
X149661666Y-71961190D01*
X149280714Y-71961190D01*
X150804523Y-72437380D02*
X150233095Y-72437380D01*
X150518809Y-72437380D02*
X150518809Y-71437380D01*
X150423571Y-71580238D01*
X150328333Y-71675476D01*
X150233095Y-71723095D01*
X151423571Y-71437380D02*
X151518809Y-71437380D01*
X151614047Y-71485000D01*
X151661666Y-71532619D01*
X151709285Y-71627857D01*
X151756904Y-71818333D01*
X151756904Y-72056428D01*
X151709285Y-72246904D01*
X151661666Y-72342142D01*
X151614047Y-72389761D01*
X151518809Y-72437380D01*
X151423571Y-72437380D01*
X151328333Y-72389761D01*
X151280714Y-72342142D01*
X151233095Y-72246904D01*
X151185476Y-72056428D01*
X151185476Y-71818333D01*
X151233095Y-71627857D01*
X151280714Y-71532619D01*
X151328333Y-71485000D01*
X151423571Y-71437380D01*
G04 #@! TO.C,R11*
X126357142Y-66722380D02*
X126023809Y-66246190D01*
X125785714Y-66722380D02*
X125785714Y-65722380D01*
X126166666Y-65722380D01*
X126261904Y-65770000D01*
X126309523Y-65817619D01*
X126357142Y-65912857D01*
X126357142Y-66055714D01*
X126309523Y-66150952D01*
X126261904Y-66198571D01*
X126166666Y-66246190D01*
X125785714Y-66246190D01*
X127309523Y-66722380D02*
X126738095Y-66722380D01*
X127023809Y-66722380D02*
X127023809Y-65722380D01*
X126928571Y-65865238D01*
X126833333Y-65960476D01*
X126738095Y-66008095D01*
X128261904Y-66722380D02*
X127690476Y-66722380D01*
X127976190Y-66722380D02*
X127976190Y-65722380D01*
X127880952Y-65865238D01*
X127785714Y-65960476D01*
X127690476Y-66008095D01*
G04 #@! TO.C,R12*
X147312142Y-69032380D02*
X146978809Y-68556190D01*
X146740714Y-69032380D02*
X146740714Y-68032380D01*
X147121666Y-68032380D01*
X147216904Y-68080000D01*
X147264523Y-68127619D01*
X147312142Y-68222857D01*
X147312142Y-68365714D01*
X147264523Y-68460952D01*
X147216904Y-68508571D01*
X147121666Y-68556190D01*
X146740714Y-68556190D01*
X148264523Y-69032380D02*
X147693095Y-69032380D01*
X147978809Y-69032380D02*
X147978809Y-68032380D01*
X147883571Y-68175238D01*
X147788333Y-68270476D01*
X147693095Y-68318095D01*
X148645476Y-68127619D02*
X148693095Y-68080000D01*
X148788333Y-68032380D01*
X149026428Y-68032380D01*
X149121666Y-68080000D01*
X149169285Y-68127619D01*
X149216904Y-68222857D01*
X149216904Y-68318095D01*
X149169285Y-68460952D01*
X148597857Y-69032380D01*
X149216904Y-69032380D01*
G04 #@! TO.C,R13*
X147312142Y-64587380D02*
X146978809Y-64111190D01*
X146740714Y-64587380D02*
X146740714Y-63587380D01*
X147121666Y-63587380D01*
X147216904Y-63635000D01*
X147264523Y-63682619D01*
X147312142Y-63777857D01*
X147312142Y-63920714D01*
X147264523Y-64015952D01*
X147216904Y-64063571D01*
X147121666Y-64111190D01*
X146740714Y-64111190D01*
X148264523Y-64587380D02*
X147693095Y-64587380D01*
X147978809Y-64587380D02*
X147978809Y-63587380D01*
X147883571Y-63730238D01*
X147788333Y-63825476D01*
X147693095Y-63873095D01*
X148597857Y-63587380D02*
X149216904Y-63587380D01*
X148883571Y-63968333D01*
X149026428Y-63968333D01*
X149121666Y-64015952D01*
X149169285Y-64063571D01*
X149216904Y-64158809D01*
X149216904Y-64396904D01*
X149169285Y-64492142D01*
X149121666Y-64539761D01*
X149026428Y-64587380D01*
X148740714Y-64587380D01*
X148645476Y-64539761D01*
X148597857Y-64492142D01*
G04 #@! TO.C,R14*
X104767142Y-117927380D02*
X104433809Y-117451190D01*
X104195714Y-117927380D02*
X104195714Y-116927380D01*
X104576666Y-116927380D01*
X104671904Y-116975000D01*
X104719523Y-117022619D01*
X104767142Y-117117857D01*
X104767142Y-117260714D01*
X104719523Y-117355952D01*
X104671904Y-117403571D01*
X104576666Y-117451190D01*
X104195714Y-117451190D01*
X105719523Y-117927380D02*
X105148095Y-117927380D01*
X105433809Y-117927380D02*
X105433809Y-116927380D01*
X105338571Y-117070238D01*
X105243333Y-117165476D01*
X105148095Y-117213095D01*
X106576666Y-117260714D02*
X106576666Y-117927380D01*
X106338571Y-116879761D02*
X106100476Y-117594047D01*
X106719523Y-117594047D01*
G04 #@! TO.C,R15*
X107942142Y-117927380D02*
X107608809Y-117451190D01*
X107370714Y-117927380D02*
X107370714Y-116927380D01*
X107751666Y-116927380D01*
X107846904Y-116975000D01*
X107894523Y-117022619D01*
X107942142Y-117117857D01*
X107942142Y-117260714D01*
X107894523Y-117355952D01*
X107846904Y-117403571D01*
X107751666Y-117451190D01*
X107370714Y-117451190D01*
X108894523Y-117927380D02*
X108323095Y-117927380D01*
X108608809Y-117927380D02*
X108608809Y-116927380D01*
X108513571Y-117070238D01*
X108418333Y-117165476D01*
X108323095Y-117213095D01*
X109799285Y-116927380D02*
X109323095Y-116927380D01*
X109275476Y-117403571D01*
X109323095Y-117355952D01*
X109418333Y-117308333D01*
X109656428Y-117308333D01*
X109751666Y-117355952D01*
X109799285Y-117403571D01*
X109846904Y-117498809D01*
X109846904Y-117736904D01*
X109799285Y-117832142D01*
X109751666Y-117879761D01*
X109656428Y-117927380D01*
X109418333Y-117927380D01*
X109323095Y-117879761D01*
X109275476Y-117832142D01*
G04 #@! TO.C,R16*
X111117142Y-117927380D02*
X110783809Y-117451190D01*
X110545714Y-117927380D02*
X110545714Y-116927380D01*
X110926666Y-116927380D01*
X111021904Y-116975000D01*
X111069523Y-117022619D01*
X111117142Y-117117857D01*
X111117142Y-117260714D01*
X111069523Y-117355952D01*
X111021904Y-117403571D01*
X110926666Y-117451190D01*
X110545714Y-117451190D01*
X112069523Y-117927380D02*
X111498095Y-117927380D01*
X111783809Y-117927380D02*
X111783809Y-116927380D01*
X111688571Y-117070238D01*
X111593333Y-117165476D01*
X111498095Y-117213095D01*
X112926666Y-116927380D02*
X112736190Y-116927380D01*
X112640952Y-116975000D01*
X112593333Y-117022619D01*
X112498095Y-117165476D01*
X112450476Y-117355952D01*
X112450476Y-117736904D01*
X112498095Y-117832142D01*
X112545714Y-117879761D01*
X112640952Y-117927380D01*
X112831428Y-117927380D01*
X112926666Y-117879761D01*
X112974285Y-117832142D01*
X113021904Y-117736904D01*
X113021904Y-117498809D01*
X112974285Y-117403571D01*
X112926666Y-117355952D01*
X112831428Y-117308333D01*
X112640952Y-117308333D01*
X112545714Y-117355952D01*
X112498095Y-117403571D01*
X112450476Y-117498809D01*
G04 #@! TO.C,R17*
X114292142Y-117927380D02*
X113958809Y-117451190D01*
X113720714Y-117927380D02*
X113720714Y-116927380D01*
X114101666Y-116927380D01*
X114196904Y-116975000D01*
X114244523Y-117022619D01*
X114292142Y-117117857D01*
X114292142Y-117260714D01*
X114244523Y-117355952D01*
X114196904Y-117403571D01*
X114101666Y-117451190D01*
X113720714Y-117451190D01*
X115244523Y-117927380D02*
X114673095Y-117927380D01*
X114958809Y-117927380D02*
X114958809Y-116927380D01*
X114863571Y-117070238D01*
X114768333Y-117165476D01*
X114673095Y-117213095D01*
X115577857Y-116927380D02*
X116244523Y-116927380D01*
X115815952Y-117927380D01*
G04 #@! TO.C,R18*
X172712142Y-123642380D02*
X172378809Y-123166190D01*
X172140714Y-123642380D02*
X172140714Y-122642380D01*
X172521666Y-122642380D01*
X172616904Y-122690000D01*
X172664523Y-122737619D01*
X172712142Y-122832857D01*
X172712142Y-122975714D01*
X172664523Y-123070952D01*
X172616904Y-123118571D01*
X172521666Y-123166190D01*
X172140714Y-123166190D01*
X173664523Y-123642380D02*
X173093095Y-123642380D01*
X173378809Y-123642380D02*
X173378809Y-122642380D01*
X173283571Y-122785238D01*
X173188333Y-122880476D01*
X173093095Y-122928095D01*
X174235952Y-123070952D02*
X174140714Y-123023333D01*
X174093095Y-122975714D01*
X174045476Y-122880476D01*
X174045476Y-122832857D01*
X174093095Y-122737619D01*
X174140714Y-122690000D01*
X174235952Y-122642380D01*
X174426428Y-122642380D01*
X174521666Y-122690000D01*
X174569285Y-122737619D01*
X174616904Y-122832857D01*
X174616904Y-122880476D01*
X174569285Y-122975714D01*
X174521666Y-123023333D01*
X174426428Y-123070952D01*
X174235952Y-123070952D01*
X174140714Y-123118571D01*
X174093095Y-123166190D01*
X174045476Y-123261428D01*
X174045476Y-123451904D01*
X174093095Y-123547142D01*
X174140714Y-123594761D01*
X174235952Y-123642380D01*
X174426428Y-123642380D01*
X174521666Y-123594761D01*
X174569285Y-123547142D01*
X174616904Y-123451904D01*
X174616904Y-123261428D01*
X174569285Y-123166190D01*
X174521666Y-123118571D01*
X174426428Y-123070952D01*
G04 #@! TO.C,R19*
X172712142Y-126817380D02*
X172378809Y-126341190D01*
X172140714Y-126817380D02*
X172140714Y-125817380D01*
X172521666Y-125817380D01*
X172616904Y-125865000D01*
X172664523Y-125912619D01*
X172712142Y-126007857D01*
X172712142Y-126150714D01*
X172664523Y-126245952D01*
X172616904Y-126293571D01*
X172521666Y-126341190D01*
X172140714Y-126341190D01*
X173664523Y-126817380D02*
X173093095Y-126817380D01*
X173378809Y-126817380D02*
X173378809Y-125817380D01*
X173283571Y-125960238D01*
X173188333Y-126055476D01*
X173093095Y-126103095D01*
X174140714Y-126817380D02*
X174331190Y-126817380D01*
X174426428Y-126769761D01*
X174474047Y-126722142D01*
X174569285Y-126579285D01*
X174616904Y-126388809D01*
X174616904Y-126007857D01*
X174569285Y-125912619D01*
X174521666Y-125865000D01*
X174426428Y-125817380D01*
X174235952Y-125817380D01*
X174140714Y-125865000D01*
X174093095Y-125912619D01*
X174045476Y-126007857D01*
X174045476Y-126245952D01*
X174093095Y-126341190D01*
X174140714Y-126388809D01*
X174235952Y-126436428D01*
X174426428Y-126436428D01*
X174521666Y-126388809D01*
X174569285Y-126341190D01*
X174616904Y-126245952D01*
G04 #@! TO.C,R20*
X140581142Y-106497380D02*
X140247809Y-106021190D01*
X140009714Y-106497380D02*
X140009714Y-105497380D01*
X140390666Y-105497380D01*
X140485904Y-105545000D01*
X140533523Y-105592619D01*
X140581142Y-105687857D01*
X140581142Y-105830714D01*
X140533523Y-105925952D01*
X140485904Y-105973571D01*
X140390666Y-106021190D01*
X140009714Y-106021190D01*
X140962095Y-105592619D02*
X141009714Y-105545000D01*
X141104952Y-105497380D01*
X141343047Y-105497380D01*
X141438285Y-105545000D01*
X141485904Y-105592619D01*
X141533523Y-105687857D01*
X141533523Y-105783095D01*
X141485904Y-105925952D01*
X140914476Y-106497380D01*
X141533523Y-106497380D01*
X142152571Y-105497380D02*
X142247809Y-105497380D01*
X142343047Y-105545000D01*
X142390666Y-105592619D01*
X142438285Y-105687857D01*
X142485904Y-105878333D01*
X142485904Y-106116428D01*
X142438285Y-106306904D01*
X142390666Y-106402142D01*
X142343047Y-106449761D01*
X142247809Y-106497380D01*
X142152571Y-106497380D01*
X142057333Y-106449761D01*
X142009714Y-106402142D01*
X141962095Y-106306904D01*
X141914476Y-106116428D01*
X141914476Y-105878333D01*
X141962095Y-105687857D01*
X142009714Y-105592619D01*
X142057333Y-105545000D01*
X142152571Y-105497380D01*
G04 #@! TO.C,R21*
X118102142Y-105227380D02*
X117768809Y-104751190D01*
X117530714Y-105227380D02*
X117530714Y-104227380D01*
X117911666Y-104227380D01*
X118006904Y-104275000D01*
X118054523Y-104322619D01*
X118102142Y-104417857D01*
X118102142Y-104560714D01*
X118054523Y-104655952D01*
X118006904Y-104703571D01*
X117911666Y-104751190D01*
X117530714Y-104751190D01*
X118483095Y-104322619D02*
X118530714Y-104275000D01*
X118625952Y-104227380D01*
X118864047Y-104227380D01*
X118959285Y-104275000D01*
X119006904Y-104322619D01*
X119054523Y-104417857D01*
X119054523Y-104513095D01*
X119006904Y-104655952D01*
X118435476Y-105227380D01*
X119054523Y-105227380D01*
X120006904Y-105227380D02*
X119435476Y-105227380D01*
X119721190Y-105227380D02*
X119721190Y-104227380D01*
X119625952Y-104370238D01*
X119530714Y-104465476D01*
X119435476Y-104513095D01*
G04 #@! TO.C,R22*
X176268142Y-69667380D02*
X175934809Y-69191190D01*
X175696714Y-69667380D02*
X175696714Y-68667380D01*
X176077666Y-68667380D01*
X176172904Y-68715000D01*
X176220523Y-68762619D01*
X176268142Y-68857857D01*
X176268142Y-69000714D01*
X176220523Y-69095952D01*
X176172904Y-69143571D01*
X176077666Y-69191190D01*
X175696714Y-69191190D01*
X176649095Y-68762619D02*
X176696714Y-68715000D01*
X176791952Y-68667380D01*
X177030047Y-68667380D01*
X177125285Y-68715000D01*
X177172904Y-68762619D01*
X177220523Y-68857857D01*
X177220523Y-68953095D01*
X177172904Y-69095952D01*
X176601476Y-69667380D01*
X177220523Y-69667380D01*
X177601476Y-68762619D02*
X177649095Y-68715000D01*
X177744333Y-68667380D01*
X177982428Y-68667380D01*
X178077666Y-68715000D01*
X178125285Y-68762619D01*
X178172904Y-68857857D01*
X178172904Y-68953095D01*
X178125285Y-69095952D01*
X177553857Y-69667380D01*
X178172904Y-69667380D01*
G04 #@! TO.C,R23*
X179697142Y-69794380D02*
X179363809Y-69318190D01*
X179125714Y-69794380D02*
X179125714Y-68794380D01*
X179506666Y-68794380D01*
X179601904Y-68842000D01*
X179649523Y-68889619D01*
X179697142Y-68984857D01*
X179697142Y-69127714D01*
X179649523Y-69222952D01*
X179601904Y-69270571D01*
X179506666Y-69318190D01*
X179125714Y-69318190D01*
X180078095Y-68889619D02*
X180125714Y-68842000D01*
X180220952Y-68794380D01*
X180459047Y-68794380D01*
X180554285Y-68842000D01*
X180601904Y-68889619D01*
X180649523Y-68984857D01*
X180649523Y-69080095D01*
X180601904Y-69222952D01*
X180030476Y-69794380D01*
X180649523Y-69794380D01*
X180982857Y-68794380D02*
X181601904Y-68794380D01*
X181268571Y-69175333D01*
X181411428Y-69175333D01*
X181506666Y-69222952D01*
X181554285Y-69270571D01*
X181601904Y-69365809D01*
X181601904Y-69603904D01*
X181554285Y-69699142D01*
X181506666Y-69746761D01*
X181411428Y-69794380D01*
X181125714Y-69794380D01*
X181030476Y-69746761D01*
X180982857Y-69699142D01*
G04 #@! TO.C,R25*
X164711142Y-98242380D02*
X164377809Y-97766190D01*
X164139714Y-98242380D02*
X164139714Y-97242380D01*
X164520666Y-97242380D01*
X164615904Y-97290000D01*
X164663523Y-97337619D01*
X164711142Y-97432857D01*
X164711142Y-97575714D01*
X164663523Y-97670952D01*
X164615904Y-97718571D01*
X164520666Y-97766190D01*
X164139714Y-97766190D01*
X165092095Y-97337619D02*
X165139714Y-97290000D01*
X165234952Y-97242380D01*
X165473047Y-97242380D01*
X165568285Y-97290000D01*
X165615904Y-97337619D01*
X165663523Y-97432857D01*
X165663523Y-97528095D01*
X165615904Y-97670952D01*
X165044476Y-98242380D01*
X165663523Y-98242380D01*
X166568285Y-97242380D02*
X166092095Y-97242380D01*
X166044476Y-97718571D01*
X166092095Y-97670952D01*
X166187333Y-97623333D01*
X166425428Y-97623333D01*
X166520666Y-97670952D01*
X166568285Y-97718571D01*
X166615904Y-97813809D01*
X166615904Y-98051904D01*
X166568285Y-98147142D01*
X166520666Y-98194761D01*
X166425428Y-98242380D01*
X166187333Y-98242380D01*
X166092095Y-98194761D01*
X166044476Y-98147142D01*
G04 #@! TO.C,R26*
X177792142Y-114117380D02*
X177458809Y-113641190D01*
X177220714Y-114117380D02*
X177220714Y-113117380D01*
X177601666Y-113117380D01*
X177696904Y-113165000D01*
X177744523Y-113212619D01*
X177792142Y-113307857D01*
X177792142Y-113450714D01*
X177744523Y-113545952D01*
X177696904Y-113593571D01*
X177601666Y-113641190D01*
X177220714Y-113641190D01*
X178173095Y-113212619D02*
X178220714Y-113165000D01*
X178315952Y-113117380D01*
X178554047Y-113117380D01*
X178649285Y-113165000D01*
X178696904Y-113212619D01*
X178744523Y-113307857D01*
X178744523Y-113403095D01*
X178696904Y-113545952D01*
X178125476Y-114117380D01*
X178744523Y-114117380D01*
X179601666Y-113117380D02*
X179411190Y-113117380D01*
X179315952Y-113165000D01*
X179268333Y-113212619D01*
X179173095Y-113355476D01*
X179125476Y-113545952D01*
X179125476Y-113926904D01*
X179173095Y-114022142D01*
X179220714Y-114069761D01*
X179315952Y-114117380D01*
X179506428Y-114117380D01*
X179601666Y-114069761D01*
X179649285Y-114022142D01*
X179696904Y-113926904D01*
X179696904Y-113688809D01*
X179649285Y-113593571D01*
X179601666Y-113545952D01*
X179506428Y-113498333D01*
X179315952Y-113498333D01*
X179220714Y-113545952D01*
X179173095Y-113593571D01*
X179125476Y-113688809D01*
G04 #@! TO.C,R27*
X171950142Y-88590380D02*
X171616809Y-88114190D01*
X171378714Y-88590380D02*
X171378714Y-87590380D01*
X171759666Y-87590380D01*
X171854904Y-87638000D01*
X171902523Y-87685619D01*
X171950142Y-87780857D01*
X171950142Y-87923714D01*
X171902523Y-88018952D01*
X171854904Y-88066571D01*
X171759666Y-88114190D01*
X171378714Y-88114190D01*
X172331095Y-87685619D02*
X172378714Y-87638000D01*
X172473952Y-87590380D01*
X172712047Y-87590380D01*
X172807285Y-87638000D01*
X172854904Y-87685619D01*
X172902523Y-87780857D01*
X172902523Y-87876095D01*
X172854904Y-88018952D01*
X172283476Y-88590380D01*
X172902523Y-88590380D01*
X173235857Y-87590380D02*
X173902523Y-87590380D01*
X173473952Y-88590380D01*
G04 #@! TO.C,RV1*
X118784761Y-113482380D02*
X118451428Y-113006190D01*
X118213333Y-113482380D02*
X118213333Y-112482380D01*
X118594285Y-112482380D01*
X118689523Y-112530000D01*
X118737142Y-112577619D01*
X118784761Y-112672857D01*
X118784761Y-112815714D01*
X118737142Y-112910952D01*
X118689523Y-112958571D01*
X118594285Y-113006190D01*
X118213333Y-113006190D01*
X119070476Y-112482380D02*
X119403809Y-113482380D01*
X119737142Y-112482380D01*
X120594285Y-113482380D02*
X120022857Y-113482380D01*
X120308571Y-113482380D02*
X120308571Y-112482380D01*
X120213333Y-112625238D01*
X120118095Y-112720476D01*
X120022857Y-112768095D01*
G04 #@! TO.C,SW1*
X170751666Y-96924761D02*
X170894523Y-96972380D01*
X171132619Y-96972380D01*
X171227857Y-96924761D01*
X171275476Y-96877142D01*
X171323095Y-96781904D01*
X171323095Y-96686666D01*
X171275476Y-96591428D01*
X171227857Y-96543809D01*
X171132619Y-96496190D01*
X170942142Y-96448571D01*
X170846904Y-96400952D01*
X170799285Y-96353333D01*
X170751666Y-96258095D01*
X170751666Y-96162857D01*
X170799285Y-96067619D01*
X170846904Y-96020000D01*
X170942142Y-95972380D01*
X171180238Y-95972380D01*
X171323095Y-96020000D01*
X171656428Y-95972380D02*
X171894523Y-96972380D01*
X172085000Y-96258095D01*
X172275476Y-96972380D01*
X172513571Y-95972380D01*
X173418333Y-96972380D02*
X172846904Y-96972380D01*
X173132619Y-96972380D02*
X173132619Y-95972380D01*
X173037380Y-96115238D01*
X172942142Y-96210476D01*
X172846904Y-96258095D01*
G04 #@! TO.C,T1*
X94462695Y-86396580D02*
X95034123Y-86396580D01*
X94748409Y-87396580D02*
X94748409Y-86396580D01*
X95891266Y-87396580D02*
X95319838Y-87396580D01*
X95605552Y-87396580D02*
X95605552Y-86396580D01*
X95510314Y-86539438D01*
X95415076Y-86634676D01*
X95319838Y-86682295D01*
G04 #@! TO.C,TP1*
X120023095Y-122007380D02*
X120594523Y-122007380D01*
X120308809Y-123007380D02*
X120308809Y-122007380D01*
X120927857Y-123007380D02*
X120927857Y-122007380D01*
X121308809Y-122007380D01*
X121404047Y-122055000D01*
X121451666Y-122102619D01*
X121499285Y-122197857D01*
X121499285Y-122340714D01*
X121451666Y-122435952D01*
X121404047Y-122483571D01*
X121308809Y-122531190D01*
X120927857Y-122531190D01*
X122451666Y-123007380D02*
X121880238Y-123007380D01*
X122165952Y-123007380D02*
X122165952Y-122007380D01*
X122070714Y-122150238D01*
X121975476Y-122245476D01*
X121880238Y-122293095D01*
G04 #@! TO.C,TP2*
X173363095Y-98258380D02*
X173934523Y-98258380D01*
X173648809Y-99258380D02*
X173648809Y-98258380D01*
X174267857Y-99258380D02*
X174267857Y-98258380D01*
X174648809Y-98258380D01*
X174744047Y-98306000D01*
X174791666Y-98353619D01*
X174839285Y-98448857D01*
X174839285Y-98591714D01*
X174791666Y-98686952D01*
X174744047Y-98734571D01*
X174648809Y-98782190D01*
X174267857Y-98782190D01*
X175220238Y-98353619D02*
X175267857Y-98306000D01*
X175363095Y-98258380D01*
X175601190Y-98258380D01*
X175696428Y-98306000D01*
X175744047Y-98353619D01*
X175791666Y-98448857D01*
X175791666Y-98544095D01*
X175744047Y-98686952D01*
X175172619Y-99258380D01*
X175791666Y-99258380D01*
G04 #@! TO.C,TP3*
X163025295Y-100976180D02*
X163596723Y-100976180D01*
X163311009Y-101976180D02*
X163311009Y-100976180D01*
X163930057Y-101976180D02*
X163930057Y-100976180D01*
X164311009Y-100976180D01*
X164406247Y-101023800D01*
X164453866Y-101071419D01*
X164501485Y-101166657D01*
X164501485Y-101309514D01*
X164453866Y-101404752D01*
X164406247Y-101452371D01*
X164311009Y-101499990D01*
X163930057Y-101499990D01*
X164834819Y-100976180D02*
X165453866Y-100976180D01*
X165120533Y-101357133D01*
X165263390Y-101357133D01*
X165358628Y-101404752D01*
X165406247Y-101452371D01*
X165453866Y-101547609D01*
X165453866Y-101785704D01*
X165406247Y-101880942D01*
X165358628Y-101928561D01*
X165263390Y-101976180D01*
X164977676Y-101976180D01*
X164882438Y-101928561D01*
X164834819Y-101880942D01*
G04 #@! TO.C,TP4*
X127897095Y-114387380D02*
X128468523Y-114387380D01*
X128182809Y-115387380D02*
X128182809Y-114387380D01*
X128801857Y-115387380D02*
X128801857Y-114387380D01*
X129182809Y-114387380D01*
X129278047Y-114435000D01*
X129325666Y-114482619D01*
X129373285Y-114577857D01*
X129373285Y-114720714D01*
X129325666Y-114815952D01*
X129278047Y-114863571D01*
X129182809Y-114911190D01*
X128801857Y-114911190D01*
X130230428Y-114720714D02*
X130230428Y-115387380D01*
X129992333Y-114339761D02*
X129754238Y-115054047D01*
X130373285Y-115054047D01*
G04 #@! TO.C,TP7*
X126373095Y-111847380D02*
X126944523Y-111847380D01*
X126658809Y-112847380D02*
X126658809Y-111847380D01*
X127277857Y-112847380D02*
X127277857Y-111847380D01*
X127658809Y-111847380D01*
X127754047Y-111895000D01*
X127801666Y-111942619D01*
X127849285Y-112037857D01*
X127849285Y-112180714D01*
X127801666Y-112275952D01*
X127754047Y-112323571D01*
X127658809Y-112371190D01*
X127277857Y-112371190D01*
X128182619Y-111847380D02*
X128849285Y-111847380D01*
X128420714Y-112847380D01*
G04 #@! TO.C,TP8*
X140422380Y-123054904D02*
X140422380Y-122483476D01*
X141422380Y-122769190D02*
X140422380Y-122769190D01*
X141422380Y-122150142D02*
X140422380Y-122150142D01*
X140422380Y-121769190D01*
X140470000Y-121673952D01*
X140517619Y-121626333D01*
X140612857Y-121578714D01*
X140755714Y-121578714D01*
X140850952Y-121626333D01*
X140898571Y-121673952D01*
X140946190Y-121769190D01*
X140946190Y-122150142D01*
X140850952Y-121007285D02*
X140803333Y-121102523D01*
X140755714Y-121150142D01*
X140660476Y-121197761D01*
X140612857Y-121197761D01*
X140517619Y-121150142D01*
X140470000Y-121102523D01*
X140422380Y-121007285D01*
X140422380Y-120816809D01*
X140470000Y-120721571D01*
X140517619Y-120673952D01*
X140612857Y-120626333D01*
X140660476Y-120626333D01*
X140755714Y-120673952D01*
X140803333Y-120721571D01*
X140850952Y-120816809D01*
X140850952Y-121007285D01*
X140898571Y-121102523D01*
X140946190Y-121150142D01*
X141041428Y-121197761D01*
X141231904Y-121197761D01*
X141327142Y-121150142D01*
X141374761Y-121102523D01*
X141422380Y-121007285D01*
X141422380Y-120816809D01*
X141374761Y-120721571D01*
X141327142Y-120673952D01*
X141231904Y-120626333D01*
X141041428Y-120626333D01*
X140946190Y-120673952D01*
X140898571Y-120721571D01*
X140850952Y-120816809D01*
G04 #@! TO.C,TP9*
X140371580Y-128388904D02*
X140371580Y-127817476D01*
X141371580Y-128103190D02*
X140371580Y-128103190D01*
X141371580Y-127484142D02*
X140371580Y-127484142D01*
X140371580Y-127103190D01*
X140419200Y-127007952D01*
X140466819Y-126960333D01*
X140562057Y-126912714D01*
X140704914Y-126912714D01*
X140800152Y-126960333D01*
X140847771Y-127007952D01*
X140895390Y-127103190D01*
X140895390Y-127484142D01*
X141371580Y-126436523D02*
X141371580Y-126246047D01*
X141323961Y-126150809D01*
X141276342Y-126103190D01*
X141133485Y-126007952D01*
X140943009Y-125960333D01*
X140562057Y-125960333D01*
X140466819Y-126007952D01*
X140419200Y-126055571D01*
X140371580Y-126150809D01*
X140371580Y-126341285D01*
X140419200Y-126436523D01*
X140466819Y-126484142D01*
X140562057Y-126531761D01*
X140800152Y-126531761D01*
X140895390Y-126484142D01*
X140943009Y-126436523D01*
X140990628Y-126341285D01*
X140990628Y-126150809D01*
X140943009Y-126055571D01*
X140895390Y-126007952D01*
X140800152Y-125960333D01*
G04 #@! TO.C,TP10*
X140349504Y-129754380D02*
X140920933Y-129754380D01*
X140635219Y-130754380D02*
X140635219Y-129754380D01*
X141254266Y-130754380D02*
X141254266Y-129754380D01*
X141635219Y-129754380D01*
X141730457Y-129802000D01*
X141778076Y-129849619D01*
X141825695Y-129944857D01*
X141825695Y-130087714D01*
X141778076Y-130182952D01*
X141730457Y-130230571D01*
X141635219Y-130278190D01*
X141254266Y-130278190D01*
X142778076Y-130754380D02*
X142206647Y-130754380D01*
X142492361Y-130754380D02*
X142492361Y-129754380D01*
X142397123Y-129897238D01*
X142301885Y-129992476D01*
X142206647Y-130040095D01*
X143397123Y-129754380D02*
X143492361Y-129754380D01*
X143587600Y-129802000D01*
X143635219Y-129849619D01*
X143682838Y-129944857D01*
X143730457Y-130135333D01*
X143730457Y-130373428D01*
X143682838Y-130563904D01*
X143635219Y-130659142D01*
X143587600Y-130706761D01*
X143492361Y-130754380D01*
X143397123Y-130754380D01*
X143301885Y-130706761D01*
X143254266Y-130659142D01*
X143206647Y-130563904D01*
X143159028Y-130373428D01*
X143159028Y-130135333D01*
X143206647Y-129944857D01*
X143254266Y-129849619D01*
X143301885Y-129802000D01*
X143397123Y-129754380D01*
G04 #@! TO.C,TP11*
X142025904Y-112482380D02*
X142597333Y-112482380D01*
X142311619Y-113482380D02*
X142311619Y-112482380D01*
X142930666Y-113482380D02*
X142930666Y-112482380D01*
X143311619Y-112482380D01*
X143406857Y-112530000D01*
X143454476Y-112577619D01*
X143502095Y-112672857D01*
X143502095Y-112815714D01*
X143454476Y-112910952D01*
X143406857Y-112958571D01*
X143311619Y-113006190D01*
X142930666Y-113006190D01*
X144454476Y-113482380D02*
X143883047Y-113482380D01*
X144168761Y-113482380D02*
X144168761Y-112482380D01*
X144073523Y-112625238D01*
X143978285Y-112720476D01*
X143883047Y-112768095D01*
X145406857Y-113482380D02*
X144835428Y-113482380D01*
X145121142Y-113482380D02*
X145121142Y-112482380D01*
X145025904Y-112625238D01*
X144930666Y-112720476D01*
X144835428Y-112768095D01*
G04 #@! TO.C,U1*
X168046495Y-100010980D02*
X168046495Y-100820504D01*
X168094114Y-100915742D01*
X168141733Y-100963361D01*
X168236971Y-101010980D01*
X168427447Y-101010980D01*
X168522685Y-100963361D01*
X168570304Y-100915742D01*
X168617923Y-100820504D01*
X168617923Y-100010980D01*
X169617923Y-101010980D02*
X169046495Y-101010980D01*
X169332209Y-101010980D02*
X169332209Y-100010980D01*
X169236971Y-100153838D01*
X169141733Y-100249076D01*
X169046495Y-100296695D01*
G04 #@! TO.C,U2*
X154533695Y-99960180D02*
X154533695Y-100769704D01*
X154581314Y-100864942D01*
X154628933Y-100912561D01*
X154724171Y-100960180D01*
X154914647Y-100960180D01*
X155009885Y-100912561D01*
X155057504Y-100864942D01*
X155105123Y-100769704D01*
X155105123Y-99960180D01*
X155533695Y-100055419D02*
X155581314Y-100007800D01*
X155676552Y-99960180D01*
X155914647Y-99960180D01*
X156009885Y-100007800D01*
X156057504Y-100055419D01*
X156105123Y-100150657D01*
X156105123Y-100245895D01*
X156057504Y-100388752D01*
X155486076Y-100960180D01*
X156105123Y-100960180D01*
G04 #@! TO.C,U3*
X117348095Y-123277380D02*
X117348095Y-124086904D01*
X117395714Y-124182142D01*
X117443333Y-124229761D01*
X117538571Y-124277380D01*
X117729047Y-124277380D01*
X117824285Y-124229761D01*
X117871904Y-124182142D01*
X117919523Y-124086904D01*
X117919523Y-123277380D01*
X118300476Y-123277380D02*
X118919523Y-123277380D01*
X118586190Y-123658333D01*
X118729047Y-123658333D01*
X118824285Y-123705952D01*
X118871904Y-123753571D01*
X118919523Y-123848809D01*
X118919523Y-124086904D01*
X118871904Y-124182142D01*
X118824285Y-124229761D01*
X118729047Y-124277380D01*
X118443333Y-124277380D01*
X118348095Y-124229761D01*
X118300476Y-124182142D01*
G04 #@! TO.C,Y1*
X130968809Y-116181190D02*
X130968809Y-116657380D01*
X130635476Y-115657380D02*
X130968809Y-116181190D01*
X131302142Y-115657380D01*
X132159285Y-116657380D02*
X131587857Y-116657380D01*
X131873571Y-116657380D02*
X131873571Y-115657380D01*
X131778333Y-115800238D01*
X131683095Y-115895476D01*
X131587857Y-115943095D01*
G04 #@! TO.C,U4*
X155067095Y-116927380D02*
X155067095Y-117736904D01*
X155114714Y-117832142D01*
X155162333Y-117879761D01*
X155257571Y-117927380D01*
X155448047Y-117927380D01*
X155543285Y-117879761D01*
X155590904Y-117832142D01*
X155638523Y-117736904D01*
X155638523Y-116927380D01*
X156543285Y-117260714D02*
X156543285Y-117927380D01*
X156305190Y-116879761D02*
X156067095Y-117594047D01*
X156686142Y-117594047D01*
G04 #@! TO.C,TP5*
X159139095Y-98512380D02*
X159710523Y-98512380D01*
X159424809Y-99512380D02*
X159424809Y-98512380D01*
X160043857Y-99512380D02*
X160043857Y-98512380D01*
X160424809Y-98512380D01*
X160520047Y-98560000D01*
X160567666Y-98607619D01*
X160615285Y-98702857D01*
X160615285Y-98845714D01*
X160567666Y-98940952D01*
X160520047Y-98988571D01*
X160424809Y-99036190D01*
X160043857Y-99036190D01*
X161520047Y-98512380D02*
X161043857Y-98512380D01*
X160996238Y-98988571D01*
X161043857Y-98940952D01*
X161139095Y-98893333D01*
X161377190Y-98893333D01*
X161472428Y-98940952D01*
X161520047Y-98988571D01*
X161567666Y-99083809D01*
X161567666Y-99321904D01*
X161520047Y-99417142D01*
X161472428Y-99464761D01*
X161377190Y-99512380D01*
X161139095Y-99512380D01*
X161043857Y-99464761D01*
X160996238Y-99417142D01*
G04 #@! TD*
%LPC*%
D11*
X67304885Y-70679571D02*
X68162028Y-70679571D01*
X67733457Y-72179571D02*
X67733457Y-70679571D01*
X68662028Y-72036714D02*
X68733457Y-72108142D01*
X68662028Y-72179571D01*
X68590600Y-72108142D01*
X68662028Y-72036714D01*
X68662028Y-72179571D01*
X69376314Y-72179571D02*
X69376314Y-70679571D01*
X69876314Y-71751000D01*
X70376314Y-70679571D01*
X70376314Y-72179571D01*
X71733457Y-72179571D02*
X71733457Y-71393857D01*
X71662028Y-71251000D01*
X71519171Y-71179571D01*
X71233457Y-71179571D01*
X71090600Y-71251000D01*
X71733457Y-72108142D02*
X71590600Y-72179571D01*
X71233457Y-72179571D01*
X71090600Y-72108142D01*
X71019171Y-71965285D01*
X71019171Y-71822428D01*
X71090600Y-71679571D01*
X71233457Y-71608142D01*
X71590600Y-71608142D01*
X71733457Y-71536714D01*
X72376314Y-72108142D02*
X72519171Y-72179571D01*
X72804885Y-72179571D01*
X72947742Y-72108142D01*
X73019171Y-71965285D01*
X73019171Y-71893857D01*
X72947742Y-71751000D01*
X72804885Y-71679571D01*
X72590600Y-71679571D01*
X72447742Y-71608142D01*
X72376314Y-71465285D01*
X72376314Y-71393857D01*
X72447742Y-71251000D01*
X72590600Y-71179571D01*
X72804885Y-71179571D01*
X72947742Y-71251000D01*
X73662028Y-72179571D02*
X73662028Y-70679571D01*
X73804885Y-71608142D02*
X74233457Y-72179571D01*
X74233457Y-71179571D02*
X73662028Y-71751000D01*
D15*
G04 #@! TO.C,H1*
X88773000Y-128346200D03*
G04 #@! TD*
G04 #@! TO.C,H3*
X177927000Y-128346200D03*
G04 #@! TD*
G04 #@! TO.C,H2*
X177927000Y-64693800D03*
G04 #@! TD*
D16*
G04 #@! TO.C,R24*
X147066000Y-79375000D03*
D17*
X157226000Y-79375000D03*
G04 #@! TD*
D15*
G04 #@! TO.C,H4*
X88773000Y-64693800D03*
G04 #@! TD*
D16*
G04 #@! TO.C,C1*
X173990000Y-113919000D03*
X173990000Y-118919000D03*
G04 #@! TD*
G04 #@! TO.C,C2*
X145415000Y-104902000D03*
X150415000Y-104902000D03*
G04 #@! TD*
G04 #@! TO.C,C3*
X166497000Y-118919000D03*
X166497000Y-113919000D03*
G04 #@! TD*
G04 #@! TO.C,C4*
X119460000Y-93345000D03*
X124460000Y-93345000D03*
G04 #@! TD*
G04 #@! TO.C,C5*
X131492000Y-89281000D03*
X126492000Y-89281000D03*
G04 #@! TD*
G04 #@! TO.C,C6*
X115490000Y-92075000D03*
X110490000Y-92075000D03*
G04 #@! TD*
G04 #@! TO.C,C7*
X144319000Y-84455000D03*
X139319000Y-84455000D03*
G04 #@! TD*
G04 #@! TO.C,C8*
X111125000Y-68580000D03*
X116125000Y-68580000D03*
G04 #@! TD*
G04 #@! TO.C,C9*
X144319000Y-79375000D03*
X139319000Y-79375000D03*
G04 #@! TD*
G04 #@! TO.C,C10*
X109220000Y-126365000D03*
X109220000Y-121365000D03*
G04 #@! TD*
G04 #@! TO.C,C11*
X140335000Y-74295000D03*
X135335000Y-74295000D03*
G04 #@! TD*
D18*
G04 #@! TO.C,C12*
X113665000Y-123825000D03*
X113665000Y-126325000D03*
G04 #@! TD*
D16*
G04 #@! TO.C,C13*
X170180000Y-118919000D03*
X170180000Y-113919000D03*
G04 #@! TD*
D18*
G04 #@! TO.C,C14*
X123825000Y-125750000D03*
X123825000Y-128250000D03*
G04 #@! TD*
D16*
G04 #@! TO.C,C15*
X126365000Y-74295000D03*
X131365000Y-74295000D03*
G04 #@! TD*
G04 #@! TO.C,C16*
X127635000Y-130730000D03*
X127635000Y-125730000D03*
G04 #@! TD*
G04 #@! TO.C,C17*
X150495000Y-101219000D03*
X145495000Y-101219000D03*
G04 #@! TD*
D19*
G04 #@! TO.C,C20*
X133350000Y-131699000D03*
X135250000Y-131699000D03*
G04 #@! TD*
G04 #@! TO.C,C21*
X135255000Y-114935000D03*
X133355000Y-114935000D03*
G04 #@! TD*
D16*
G04 #@! TO.C,C22*
X159385000Y-126793000D03*
X159385000Y-121793000D03*
G04 #@! TD*
D20*
G04 #@! TO.C,C23*
X149098000Y-114579400D03*
X146598000Y-114579400D03*
G04 #@! TD*
D16*
G04 #@! TO.C,C24*
X125730000Y-109855000D03*
X125730000Y-104855000D03*
G04 #@! TD*
G04 #@! TO.C,C25*
X162687000Y-113872000D03*
X162687000Y-118872000D03*
G04 #@! TD*
G04 #@! TO.C,C26*
X162306000Y-91186000D03*
X167306000Y-91186000D03*
G04 #@! TD*
G04 #@! TO.C,C27*
X138430000Y-124380000D03*
X138430000Y-119380000D03*
G04 #@! TD*
G04 #@! TO.C,C28*
X138430000Y-131445000D03*
X138430000Y-126445000D03*
G04 #@! TD*
D21*
G04 #@! TO.C,D1*
X116580000Y-87630000D03*
X119380000Y-87630000D03*
G04 #@! TD*
D17*
G04 #@! TO.C,D2*
X121920000Y-87630000D03*
D22*
X114300000Y-87630000D03*
G04 #@! TD*
D23*
G04 #@! TO.C,D3*
X103505000Y-130810000D03*
D24*
X113665000Y-130810000D03*
G04 #@! TD*
D17*
G04 #@! TO.C,D4*
X121920000Y-74295000D03*
D22*
X114300000Y-74295000D03*
G04 #@! TD*
D21*
G04 #@! TO.C,D5*
X119640000Y-74295000D03*
X116840000Y-74295000D03*
G04 #@! TD*
D22*
G04 #@! TO.C,D6*
X114300000Y-80645000D03*
D17*
X121920000Y-80645000D03*
G04 #@! TD*
D21*
G04 #@! TO.C,D7*
X119380000Y-80645000D03*
X116580000Y-80645000D03*
G04 #@! TD*
D25*
G04 #@! TO.C,D8*
X188341000Y-62255400D03*
X188341000Y-68249800D03*
X188341000Y-74244200D03*
X188341000Y-80238600D03*
X188341000Y-86233000D03*
X188341000Y-92227400D03*
X188341000Y-98221800D03*
X188341000Y-104216200D03*
X188341000Y-110210600D03*
X187960000Y-64795400D03*
X187960000Y-70789800D03*
X187960000Y-76784200D03*
X187960000Y-82778600D03*
X187960000Y-88773000D03*
X187960000Y-94767400D03*
X187960000Y-100761800D03*
X187960000Y-106756200D03*
X187960000Y-112750600D03*
X188341000Y-116205000D03*
D12*
G36*
X188476068Y-117807263D02*
X188521692Y-117814031D01*
X188566434Y-117825238D01*
X188609861Y-117840777D01*
X188651556Y-117860497D01*
X188691118Y-117884209D01*
X188728165Y-117911685D01*
X188762340Y-117942660D01*
X188793315Y-117976835D01*
X188820791Y-118013882D01*
X188844503Y-118053444D01*
X188864223Y-118095139D01*
X188879762Y-118138566D01*
X188890969Y-118183308D01*
X188897737Y-118228932D01*
X188900000Y-118275000D01*
X188900000Y-119215000D01*
X188897737Y-119261068D01*
X188890969Y-119306692D01*
X188879762Y-119351434D01*
X188864223Y-119394861D01*
X188844503Y-119436556D01*
X188820791Y-119476118D01*
X188793315Y-119513165D01*
X188762340Y-119547340D01*
X188728165Y-119578315D01*
X188691118Y-119605791D01*
X188651556Y-119629503D01*
X188609861Y-119649223D01*
X188566434Y-119664762D01*
X188521692Y-119675969D01*
X188476068Y-119682737D01*
X188430000Y-119685000D01*
X187490000Y-119685000D01*
X187443932Y-119682737D01*
X187398308Y-119675969D01*
X187353566Y-119664762D01*
X187310139Y-119649223D01*
X187268444Y-119629503D01*
X187228882Y-119605791D01*
X187191835Y-119578315D01*
X187157660Y-119547340D01*
X187126685Y-119513165D01*
X187099209Y-119476118D01*
X187075497Y-119436556D01*
X187055777Y-119394861D01*
X187040238Y-119351434D01*
X187029031Y-119306692D01*
X187022263Y-119261068D01*
X187020000Y-119215000D01*
X187020000Y-118275000D01*
X187022263Y-118228932D01*
X187029031Y-118183308D01*
X187040238Y-118138566D01*
X187055777Y-118095139D01*
X187075497Y-118053444D01*
X187099209Y-118013882D01*
X187126685Y-117976835D01*
X187157660Y-117942660D01*
X187191835Y-117911685D01*
X187228882Y-117884209D01*
X187268444Y-117860497D01*
X187310139Y-117840777D01*
X187353566Y-117825238D01*
X187398308Y-117814031D01*
X187443932Y-117807263D01*
X187490000Y-117805000D01*
X188430000Y-117805000D01*
X188476068Y-117807263D01*
X188476068Y-117807263D01*
G37*
D25*
X187960000Y-118745000D03*
G04 #@! TD*
D26*
G04 #@! TO.C,D9*
X183480000Y-129413000D03*
X182280000Y-129413000D03*
G04 #@! TD*
G04 #@! TO.C,D10*
X182280000Y-128016000D03*
X183480000Y-128016000D03*
G04 #@! TD*
D12*
G04 #@! TO.C,D11*
G36*
X184666068Y-117807263D02*
X184711692Y-117814031D01*
X184756434Y-117825238D01*
X184799861Y-117840777D01*
X184841556Y-117860497D01*
X184881118Y-117884209D01*
X184918165Y-117911685D01*
X184952340Y-117942660D01*
X184983315Y-117976835D01*
X185010791Y-118013882D01*
X185034503Y-118053444D01*
X185054223Y-118095139D01*
X185069762Y-118138566D01*
X185080969Y-118183308D01*
X185087737Y-118228932D01*
X185090000Y-118275000D01*
X185090000Y-119215000D01*
X185087737Y-119261068D01*
X185080969Y-119306692D01*
X185069762Y-119351434D01*
X185054223Y-119394861D01*
X185034503Y-119436556D01*
X185010791Y-119476118D01*
X184983315Y-119513165D01*
X184952340Y-119547340D01*
X184918165Y-119578315D01*
X184881118Y-119605791D01*
X184841556Y-119629503D01*
X184799861Y-119649223D01*
X184756434Y-119664762D01*
X184711692Y-119675969D01*
X184666068Y-119682737D01*
X184620000Y-119685000D01*
X183680000Y-119685000D01*
X183633932Y-119682737D01*
X183588308Y-119675969D01*
X183543566Y-119664762D01*
X183500139Y-119649223D01*
X183458444Y-119629503D01*
X183418882Y-119605791D01*
X183381835Y-119578315D01*
X183347660Y-119547340D01*
X183316685Y-119513165D01*
X183289209Y-119476118D01*
X183265497Y-119436556D01*
X183245777Y-119394861D01*
X183230238Y-119351434D01*
X183219031Y-119306692D01*
X183212263Y-119261068D01*
X183210000Y-119215000D01*
X183210000Y-118275000D01*
X183212263Y-118228932D01*
X183219031Y-118183308D01*
X183230238Y-118138566D01*
X183245777Y-118095139D01*
X183265497Y-118053444D01*
X183289209Y-118013882D01*
X183316685Y-117976835D01*
X183347660Y-117942660D01*
X183381835Y-117911685D01*
X183418882Y-117884209D01*
X183458444Y-117860497D01*
X183500139Y-117840777D01*
X183543566Y-117825238D01*
X183588308Y-117814031D01*
X183633932Y-117807263D01*
X183680000Y-117805000D01*
X184620000Y-117805000D01*
X184666068Y-117807263D01*
X184666068Y-117807263D01*
G37*
D25*
X184150000Y-118745000D03*
X184531000Y-116205000D03*
X184150000Y-112750600D03*
X184150000Y-106756200D03*
X184150000Y-100761800D03*
X184150000Y-94767400D03*
X184150000Y-88773000D03*
X184150000Y-82778600D03*
X184150000Y-76784200D03*
X184150000Y-70789800D03*
X184150000Y-64795400D03*
X184531000Y-110210600D03*
X184531000Y-104216200D03*
X184531000Y-98221800D03*
X184531000Y-92227400D03*
X184531000Y-86233000D03*
X184531000Y-80238600D03*
X184531000Y-74244200D03*
X184531000Y-68249800D03*
X184531000Y-62255400D03*
G04 #@! TD*
D27*
G04 #@! TO.C,D12*
X182753000Y-122301000D03*
D28*
X182753000Y-124841000D03*
G04 #@! TD*
D12*
G04 #@! TO.C,F1*
G36*
X173794756Y-128525929D02*
X173833634Y-128531695D01*
X173871759Y-128541245D01*
X173908765Y-128554486D01*
X173944294Y-128571291D01*
X173978006Y-128591496D01*
X174009575Y-128614909D01*
X174038696Y-128641304D01*
X174065091Y-128670425D01*
X174088504Y-128701994D01*
X174108709Y-128735706D01*
X174125514Y-128771235D01*
X174138755Y-128808241D01*
X174148305Y-128846366D01*
X174154071Y-128885244D01*
X174156000Y-128924500D01*
X174156000Y-131425500D01*
X174154071Y-131464756D01*
X174148305Y-131503634D01*
X174138755Y-131541759D01*
X174125514Y-131578765D01*
X174108709Y-131614294D01*
X174088504Y-131648006D01*
X174065091Y-131679575D01*
X174038696Y-131708696D01*
X174009575Y-131735091D01*
X173978006Y-131758504D01*
X173944294Y-131778709D01*
X173908765Y-131795514D01*
X173871759Y-131808755D01*
X173833634Y-131818305D01*
X173794756Y-131824071D01*
X173755500Y-131826000D01*
X172954500Y-131826000D01*
X172915244Y-131824071D01*
X172876366Y-131818305D01*
X172838241Y-131808755D01*
X172801235Y-131795514D01*
X172765706Y-131778709D01*
X172731994Y-131758504D01*
X172700425Y-131735091D01*
X172671304Y-131708696D01*
X172644909Y-131679575D01*
X172621496Y-131648006D01*
X172601291Y-131614294D01*
X172584486Y-131578765D01*
X172571245Y-131541759D01*
X172561695Y-131503634D01*
X172555929Y-131464756D01*
X172554000Y-131425500D01*
X172554000Y-128924500D01*
X172555929Y-128885244D01*
X172561695Y-128846366D01*
X172571245Y-128808241D01*
X172584486Y-128771235D01*
X172601291Y-128735706D01*
X172621496Y-128701994D01*
X172644909Y-128670425D01*
X172671304Y-128641304D01*
X172700425Y-128614909D01*
X172731994Y-128591496D01*
X172765706Y-128571291D01*
X172801235Y-128554486D01*
X172838241Y-128541245D01*
X172876366Y-128531695D01*
X172915244Y-128525929D01*
X172954500Y-128524000D01*
X173755500Y-128524000D01*
X173794756Y-128525929D01*
X173794756Y-128525929D01*
G37*
D29*
X173355000Y-130175000D03*
D12*
G36*
X166894756Y-128525929D02*
X166933634Y-128531695D01*
X166971759Y-128541245D01*
X167008765Y-128554486D01*
X167044294Y-128571291D01*
X167078006Y-128591496D01*
X167109575Y-128614909D01*
X167138696Y-128641304D01*
X167165091Y-128670425D01*
X167188504Y-128701994D01*
X167208709Y-128735706D01*
X167225514Y-128771235D01*
X167238755Y-128808241D01*
X167248305Y-128846366D01*
X167254071Y-128885244D01*
X167256000Y-128924500D01*
X167256000Y-131425500D01*
X167254071Y-131464756D01*
X167248305Y-131503634D01*
X167238755Y-131541759D01*
X167225514Y-131578765D01*
X167208709Y-131614294D01*
X167188504Y-131648006D01*
X167165091Y-131679575D01*
X167138696Y-131708696D01*
X167109575Y-131735091D01*
X167078006Y-131758504D01*
X167044294Y-131778709D01*
X167008765Y-131795514D01*
X166971759Y-131808755D01*
X166933634Y-131818305D01*
X166894756Y-131824071D01*
X166855500Y-131826000D01*
X166054500Y-131826000D01*
X166015244Y-131824071D01*
X165976366Y-131818305D01*
X165938241Y-131808755D01*
X165901235Y-131795514D01*
X165865706Y-131778709D01*
X165831994Y-131758504D01*
X165800425Y-131735091D01*
X165771304Y-131708696D01*
X165744909Y-131679575D01*
X165721496Y-131648006D01*
X165701291Y-131614294D01*
X165684486Y-131578765D01*
X165671245Y-131541759D01*
X165661695Y-131503634D01*
X165655929Y-131464756D01*
X165654000Y-131425500D01*
X165654000Y-128924500D01*
X165655929Y-128885244D01*
X165661695Y-128846366D01*
X165671245Y-128808241D01*
X165684486Y-128771235D01*
X165701291Y-128735706D01*
X165721496Y-128701994D01*
X165744909Y-128670425D01*
X165771304Y-128641304D01*
X165800425Y-128614909D01*
X165831994Y-128591496D01*
X165865706Y-128571291D01*
X165901235Y-128554486D01*
X165938241Y-128541245D01*
X165976366Y-128531695D01*
X166015244Y-128525929D01*
X166054500Y-128524000D01*
X166855500Y-128524000D01*
X166894756Y-128525929D01*
X166894756Y-128525929D01*
G37*
D29*
X166455000Y-130175000D03*
G04 #@! TD*
D30*
G04 #@! TO.C,J1*
X83820000Y-91440000D03*
X83820000Y-101600000D03*
D25*
X88900000Y-99060000D03*
X88900000Y-96520000D03*
G04 #@! TD*
D31*
G04 #@! TO.C,J2*
X99060000Y-119634000D03*
X99060000Y-111760000D03*
D32*
X80822800Y-123088400D03*
X80822800Y-108305600D03*
G04 #@! TD*
D25*
G04 #@! TO.C,J3*
X88900000Y-75565000D03*
X88900000Y-78105000D03*
D30*
X83820000Y-80645000D03*
X83820000Y-70485000D03*
G04 #@! TD*
D33*
G04 #@! TO.C,J4*
X188945000Y-130900000D03*
X188945000Y-125100000D03*
D34*
X188945000Y-124500000D03*
X188945000Y-131500000D03*
D35*
X188945000Y-129000000D03*
D36*
X186245000Y-125500000D03*
D37*
X186245000Y-128000000D03*
X186245000Y-127350000D03*
X186245000Y-126700000D03*
X186245000Y-129300000D03*
X186245000Y-128650000D03*
D36*
X186245000Y-130500000D03*
D35*
X188945000Y-127000000D03*
G04 #@! TD*
D38*
G04 #@! TO.C,J5*
X136525000Y-103505000D03*
X136525000Y-106045000D03*
X133985000Y-103505000D03*
X133985000Y-106045000D03*
X131445000Y-103505000D03*
D39*
X131445000Y-106045000D03*
G04 #@! TD*
D40*
G04 #@! TO.C,JP1*
X163459000Y-130048000D03*
X162179000Y-130048000D03*
G04 #@! TD*
D41*
G04 #@! TO.C,Q1*
X161925000Y-86360000D03*
D42*
X167005000Y-86360000D03*
X164465000Y-83820000D03*
G04 #@! TD*
G04 #@! TO.C,Q2*
X164465000Y-76835000D03*
X167005000Y-79375000D03*
D41*
X161925000Y-79375000D03*
G04 #@! TD*
G04 #@! TO.C,Q3*
X151765000Y-65405000D03*
D42*
X156845000Y-65405000D03*
X154305000Y-62865000D03*
G04 #@! TD*
D43*
G04 #@! TO.C,Q4*
X127635000Y-122150000D03*
X126685000Y-119150000D03*
X128585000Y-119150000D03*
G04 #@! TD*
D41*
G04 #@! TO.C,Q5*
X161925000Y-65405000D03*
D42*
X167005000Y-65405000D03*
X164465000Y-62865000D03*
G04 #@! TD*
G04 #@! TO.C,Q6*
X164465000Y-69850000D03*
X167005000Y-72390000D03*
D41*
X161925000Y-72390000D03*
G04 #@! TD*
D16*
G04 #@! TO.C,R1*
X128270000Y-99060000D03*
D17*
X138430000Y-99060000D03*
G04 #@! TD*
G04 #@! TO.C,R2*
X138430000Y-93980000D03*
D16*
X128270000Y-93980000D03*
G04 #@! TD*
G04 #@! TO.C,R3*
X134747000Y-89281000D03*
D17*
X144907000Y-89281000D03*
G04 #@! TD*
D44*
G04 #@! TO.C,R4*
X97155000Y-98425000D03*
D45*
X117475000Y-98425000D03*
G04 #@! TD*
D17*
G04 #@! TO.C,R5*
X157226000Y-84455000D03*
D16*
X147066000Y-84455000D03*
G04 #@! TD*
D17*
G04 #@! TO.C,R6*
X136525000Y-84455000D03*
D16*
X126365000Y-84455000D03*
G04 #@! TD*
G04 #@! TO.C,R7*
X126365000Y-79375000D03*
D17*
X136525000Y-79375000D03*
G04 #@! TD*
D45*
G04 #@! TO.C,R8*
X117475000Y-62230000D03*
D44*
X97155000Y-62230000D03*
G04 #@! TD*
D16*
G04 #@! TO.C,R9*
X141605000Y-93980000D03*
D17*
X151765000Y-93980000D03*
G04 #@! TD*
G04 #@! TO.C,R10*
X155575000Y-74295000D03*
D16*
X145415000Y-74295000D03*
G04 #@! TD*
D17*
G04 #@! TO.C,R11*
X132080000Y-68580000D03*
D16*
X121920000Y-68580000D03*
G04 #@! TD*
G04 #@! TO.C,R12*
X135255000Y-68580000D03*
D17*
X145415000Y-68580000D03*
G04 #@! TD*
G04 #@! TO.C,R13*
X145415000Y-64135000D03*
D16*
X135255000Y-64135000D03*
G04 #@! TD*
G04 #@! TO.C,R14*
X105410000Y-114935000D03*
D17*
X105410000Y-104775000D03*
G04 #@! TD*
G04 #@! TO.C,R15*
X108585000Y-104775000D03*
D16*
X108585000Y-114935000D03*
G04 #@! TD*
G04 #@! TO.C,R16*
X111760000Y-114935000D03*
D17*
X111760000Y-104775000D03*
G04 #@! TD*
G04 #@! TO.C,R17*
X114935000Y-114935000D03*
D16*
X114935000Y-104775000D03*
G04 #@! TD*
D46*
G04 #@! TO.C,R18*
X170370000Y-123190000D03*
X166370000Y-123190000D03*
G04 #@! TD*
G04 #@! TO.C,R19*
X166370000Y-126365000D03*
X170370000Y-126365000D03*
G04 #@! TD*
D16*
G04 #@! TO.C,R20*
X140335000Y-108585000D03*
D17*
X150495000Y-108585000D03*
G04 #@! TD*
G04 #@! TO.C,R21*
X121920000Y-99695000D03*
D16*
X121920000Y-109855000D03*
G04 #@! TD*
G04 #@! TO.C,R22*
X176911000Y-81788000D03*
D17*
X176911000Y-71628000D03*
G04 #@! TD*
G04 #@! TO.C,R23*
X180467000Y-71628000D03*
D16*
X180467000Y-81788000D03*
G04 #@! TD*
D17*
G04 #@! TO.C,R25*
X157226000Y-95123000D03*
D16*
X167386000Y-95123000D03*
G04 #@! TD*
D17*
G04 #@! TO.C,R26*
X178435000Y-88265000D03*
X178435000Y-90805000D03*
X178435000Y-93345000D03*
X178435000Y-95885000D03*
X178435000Y-98425000D03*
X178435000Y-100965000D03*
X178435000Y-103505000D03*
X178435000Y-106045000D03*
X178435000Y-108585000D03*
D22*
X178435000Y-111125000D03*
G04 #@! TD*
G04 #@! TO.C,R27*
X172720000Y-85090000D03*
D17*
X172720000Y-82550000D03*
X172720000Y-80010000D03*
X172720000Y-77470000D03*
X172720000Y-74930000D03*
X172720000Y-72390000D03*
X172720000Y-69850000D03*
X172720000Y-67310000D03*
X172720000Y-64770000D03*
X172720000Y-62230000D03*
G04 #@! TD*
D12*
G04 #@! TO.C,RV1*
G36*
X119896068Y-118442263D02*
X119941692Y-118449031D01*
X119986434Y-118460238D01*
X120029861Y-118475777D01*
X120071556Y-118495497D01*
X120111118Y-118519209D01*
X120148165Y-118546685D01*
X120182340Y-118577660D01*
X120213315Y-118611835D01*
X120240791Y-118648882D01*
X120264503Y-118688444D01*
X120284223Y-118730139D01*
X120299762Y-118773566D01*
X120310969Y-118818308D01*
X120317737Y-118863932D01*
X120320000Y-118910000D01*
X120320000Y-119850000D01*
X120317737Y-119896068D01*
X120310969Y-119941692D01*
X120299762Y-119986434D01*
X120284223Y-120029861D01*
X120264503Y-120071556D01*
X120240791Y-120111118D01*
X120213315Y-120148165D01*
X120182340Y-120182340D01*
X120148165Y-120213315D01*
X120111118Y-120240791D01*
X120071556Y-120264503D01*
X120029861Y-120284223D01*
X119986434Y-120299762D01*
X119941692Y-120310969D01*
X119896068Y-120317737D01*
X119850000Y-120320000D01*
X118910000Y-120320000D01*
X118863932Y-120317737D01*
X118818308Y-120310969D01*
X118773566Y-120299762D01*
X118730139Y-120284223D01*
X118688444Y-120264503D01*
X118648882Y-120240791D01*
X118611835Y-120213315D01*
X118577660Y-120182340D01*
X118546685Y-120148165D01*
X118519209Y-120111118D01*
X118495497Y-120071556D01*
X118475777Y-120029861D01*
X118460238Y-119986434D01*
X118449031Y-119941692D01*
X118442263Y-119896068D01*
X118440000Y-119850000D01*
X118440000Y-118910000D01*
X118442263Y-118863932D01*
X118449031Y-118818308D01*
X118460238Y-118773566D01*
X118475777Y-118730139D01*
X118495497Y-118688444D01*
X118519209Y-118648882D01*
X118546685Y-118611835D01*
X118577660Y-118577660D01*
X118611835Y-118546685D01*
X118648882Y-118519209D01*
X118688444Y-118495497D01*
X118730139Y-118475777D01*
X118773566Y-118460238D01*
X118818308Y-118449031D01*
X118863932Y-118442263D01*
X118910000Y-118440000D01*
X119850000Y-118440000D01*
X119896068Y-118442263D01*
X119896068Y-118442263D01*
G37*
D25*
X119380000Y-119380000D03*
X121880000Y-114380000D03*
X124380000Y-119380000D03*
G04 #@! TD*
D47*
G04 #@! TO.C,SW1*
X172720000Y-91059000D03*
X172720000Y-93599000D03*
G04 #@! TD*
D12*
G04 #@! TO.C,T1*
G36*
X100846068Y-92216763D02*
X100891692Y-92223531D01*
X100936434Y-92234738D01*
X100979861Y-92250277D01*
X101021556Y-92269997D01*
X101061118Y-92293709D01*
X101098165Y-92321185D01*
X101132340Y-92352160D01*
X101163315Y-92386335D01*
X101190791Y-92423382D01*
X101214503Y-92462944D01*
X101234223Y-92504639D01*
X101249762Y-92548066D01*
X101260969Y-92592808D01*
X101267737Y-92638432D01*
X101270000Y-92684500D01*
X101270000Y-93624500D01*
X101267737Y-93670568D01*
X101260969Y-93716192D01*
X101249762Y-93760934D01*
X101234223Y-93804361D01*
X101214503Y-93846056D01*
X101190791Y-93885618D01*
X101163315Y-93922665D01*
X101132340Y-93956840D01*
X101098165Y-93987815D01*
X101061118Y-94015291D01*
X101021556Y-94039003D01*
X100979861Y-94058723D01*
X100936434Y-94074262D01*
X100891692Y-94085469D01*
X100846068Y-94092237D01*
X100800000Y-94094500D01*
X99860000Y-94094500D01*
X99813932Y-94092237D01*
X99768308Y-94085469D01*
X99723566Y-94074262D01*
X99680139Y-94058723D01*
X99638444Y-94039003D01*
X99598882Y-94015291D01*
X99561835Y-93987815D01*
X99527660Y-93956840D01*
X99496685Y-93922665D01*
X99469209Y-93885618D01*
X99445497Y-93846056D01*
X99425777Y-93804361D01*
X99410238Y-93760934D01*
X99399031Y-93716192D01*
X99392263Y-93670568D01*
X99390000Y-93624500D01*
X99390000Y-92684500D01*
X99392263Y-92638432D01*
X99399031Y-92592808D01*
X99410238Y-92548066D01*
X99425777Y-92504639D01*
X99445497Y-92462944D01*
X99469209Y-92423382D01*
X99496685Y-92386335D01*
X99527660Y-92352160D01*
X99561835Y-92321185D01*
X99598882Y-92293709D01*
X99638444Y-92269997D01*
X99680139Y-92250277D01*
X99723566Y-92234738D01*
X99768308Y-92223531D01*
X99813932Y-92216763D01*
X99860000Y-92214500D01*
X100800000Y-92214500D01*
X100846068Y-92216763D01*
X100846068Y-92216763D01*
G37*
D25*
X100330000Y-93154500D03*
X100330000Y-67754500D03*
X106045000Y-67754500D03*
X106045000Y-93154500D03*
D48*
X102108000Y-90932000D03*
X104203500Y-90932000D03*
X102108000Y-70104000D03*
X104203500Y-70104000D03*
G04 #@! TD*
D49*
G04 #@! TO.C,TP1*
X123825000Y-122555000D03*
G04 #@! TD*
G04 #@! TO.C,TP2*
X175006000Y-100330000D03*
G04 #@! TD*
G04 #@! TO.C,TP3*
X164846000Y-102870000D03*
G04 #@! TD*
G04 #@! TO.C,TP4*
X128905000Y-116205000D03*
G04 #@! TD*
G04 #@! TO.C,TP7*
X125095000Y-112395000D03*
G04 #@! TD*
G04 #@! TO.C,TP8*
X140843000Y-123952000D03*
G04 #@! TD*
G04 #@! TO.C,TP9*
X140843000Y-125349000D03*
G04 #@! TD*
G04 #@! TO.C,TP10*
X140970000Y-128778000D03*
G04 #@! TD*
G04 #@! TO.C,TP11*
X143510000Y-114300000D03*
G04 #@! TD*
D17*
G04 #@! TO.C,U1*
X174625000Y-102870000D03*
X167005000Y-110490000D03*
X174625000Y-105410000D03*
X167005000Y-107950000D03*
X174625000Y-107950000D03*
X167005000Y-105410000D03*
X174625000Y-110490000D03*
D22*
X167005000Y-102870000D03*
D12*
G36*
X172945702Y-103154845D02*
X172962738Y-103157372D01*
X172979445Y-103161557D01*
X172995661Y-103167359D01*
X173011230Y-103174723D01*
X173026003Y-103183577D01*
X173039836Y-103193837D01*
X173052597Y-103205403D01*
X173064163Y-103218164D01*
X173074423Y-103231997D01*
X173083277Y-103246770D01*
X173090641Y-103262339D01*
X173096443Y-103278555D01*
X173100628Y-103295262D01*
X173103155Y-103312298D01*
X173104000Y-103329500D01*
X173104000Y-104630500D01*
X173103155Y-104647702D01*
X173100628Y-104664738D01*
X173096443Y-104681445D01*
X173090641Y-104697661D01*
X173083277Y-104713230D01*
X173074423Y-104728003D01*
X173064163Y-104741836D01*
X173052597Y-104754597D01*
X173039836Y-104766163D01*
X173026003Y-104776423D01*
X173011230Y-104785277D01*
X172995661Y-104792641D01*
X172979445Y-104798443D01*
X172962738Y-104802628D01*
X172945702Y-104805155D01*
X172928500Y-104806000D01*
X172577500Y-104806000D01*
X172560298Y-104805155D01*
X172543262Y-104802628D01*
X172526555Y-104798443D01*
X172510339Y-104792641D01*
X172494770Y-104785277D01*
X172479997Y-104776423D01*
X172466164Y-104766163D01*
X172453403Y-104754597D01*
X172441837Y-104741836D01*
X172431577Y-104728003D01*
X172422723Y-104713230D01*
X172415359Y-104697661D01*
X172409557Y-104681445D01*
X172405372Y-104664738D01*
X172402845Y-104647702D01*
X172402000Y-104630500D01*
X172402000Y-103329500D01*
X172402845Y-103312298D01*
X172405372Y-103295262D01*
X172409557Y-103278555D01*
X172415359Y-103262339D01*
X172422723Y-103246770D01*
X172431577Y-103231997D01*
X172441837Y-103218164D01*
X172453403Y-103205403D01*
X172466164Y-103193837D01*
X172479997Y-103183577D01*
X172494770Y-103174723D01*
X172510339Y-103167359D01*
X172526555Y-103161557D01*
X172543262Y-103157372D01*
X172560298Y-103154845D01*
X172577500Y-103154000D01*
X172928500Y-103154000D01*
X172945702Y-103154845D01*
X172945702Y-103154845D01*
G37*
D50*
X172753000Y-103980000D03*
D12*
G36*
X171675702Y-103154845D02*
X171692738Y-103157372D01*
X171709445Y-103161557D01*
X171725661Y-103167359D01*
X171741230Y-103174723D01*
X171756003Y-103183577D01*
X171769836Y-103193837D01*
X171782597Y-103205403D01*
X171794163Y-103218164D01*
X171804423Y-103231997D01*
X171813277Y-103246770D01*
X171820641Y-103262339D01*
X171826443Y-103278555D01*
X171830628Y-103295262D01*
X171833155Y-103312298D01*
X171834000Y-103329500D01*
X171834000Y-104630500D01*
X171833155Y-104647702D01*
X171830628Y-104664738D01*
X171826443Y-104681445D01*
X171820641Y-104697661D01*
X171813277Y-104713230D01*
X171804423Y-104728003D01*
X171794163Y-104741836D01*
X171782597Y-104754597D01*
X171769836Y-104766163D01*
X171756003Y-104776423D01*
X171741230Y-104785277D01*
X171725661Y-104792641D01*
X171709445Y-104798443D01*
X171692738Y-104802628D01*
X171675702Y-104805155D01*
X171658500Y-104806000D01*
X171307500Y-104806000D01*
X171290298Y-104805155D01*
X171273262Y-104802628D01*
X171256555Y-104798443D01*
X171240339Y-104792641D01*
X171224770Y-104785277D01*
X171209997Y-104776423D01*
X171196164Y-104766163D01*
X171183403Y-104754597D01*
X171171837Y-104741836D01*
X171161577Y-104728003D01*
X171152723Y-104713230D01*
X171145359Y-104697661D01*
X171139557Y-104681445D01*
X171135372Y-104664738D01*
X171132845Y-104647702D01*
X171132000Y-104630500D01*
X171132000Y-103329500D01*
X171132845Y-103312298D01*
X171135372Y-103295262D01*
X171139557Y-103278555D01*
X171145359Y-103262339D01*
X171152723Y-103246770D01*
X171161577Y-103231997D01*
X171171837Y-103218164D01*
X171183403Y-103205403D01*
X171196164Y-103193837D01*
X171209997Y-103183577D01*
X171224770Y-103174723D01*
X171240339Y-103167359D01*
X171256555Y-103161557D01*
X171273262Y-103157372D01*
X171290298Y-103154845D01*
X171307500Y-103154000D01*
X171658500Y-103154000D01*
X171675702Y-103154845D01*
X171675702Y-103154845D01*
G37*
D50*
X171483000Y-103980000D03*
D12*
G36*
X170405702Y-103154845D02*
X170422738Y-103157372D01*
X170439445Y-103161557D01*
X170455661Y-103167359D01*
X170471230Y-103174723D01*
X170486003Y-103183577D01*
X170499836Y-103193837D01*
X170512597Y-103205403D01*
X170524163Y-103218164D01*
X170534423Y-103231997D01*
X170543277Y-103246770D01*
X170550641Y-103262339D01*
X170556443Y-103278555D01*
X170560628Y-103295262D01*
X170563155Y-103312298D01*
X170564000Y-103329500D01*
X170564000Y-104630500D01*
X170563155Y-104647702D01*
X170560628Y-104664738D01*
X170556443Y-104681445D01*
X170550641Y-104697661D01*
X170543277Y-104713230D01*
X170534423Y-104728003D01*
X170524163Y-104741836D01*
X170512597Y-104754597D01*
X170499836Y-104766163D01*
X170486003Y-104776423D01*
X170471230Y-104785277D01*
X170455661Y-104792641D01*
X170439445Y-104798443D01*
X170422738Y-104802628D01*
X170405702Y-104805155D01*
X170388500Y-104806000D01*
X170037500Y-104806000D01*
X170020298Y-104805155D01*
X170003262Y-104802628D01*
X169986555Y-104798443D01*
X169970339Y-104792641D01*
X169954770Y-104785277D01*
X169939997Y-104776423D01*
X169926164Y-104766163D01*
X169913403Y-104754597D01*
X169901837Y-104741836D01*
X169891577Y-104728003D01*
X169882723Y-104713230D01*
X169875359Y-104697661D01*
X169869557Y-104681445D01*
X169865372Y-104664738D01*
X169862845Y-104647702D01*
X169862000Y-104630500D01*
X169862000Y-103329500D01*
X169862845Y-103312298D01*
X169865372Y-103295262D01*
X169869557Y-103278555D01*
X169875359Y-103262339D01*
X169882723Y-103246770D01*
X169891577Y-103231997D01*
X169901837Y-103218164D01*
X169913403Y-103205403D01*
X169926164Y-103193837D01*
X169939997Y-103183577D01*
X169954770Y-103174723D01*
X169970339Y-103167359D01*
X169986555Y-103161557D01*
X170003262Y-103157372D01*
X170020298Y-103154845D01*
X170037500Y-103154000D01*
X170388500Y-103154000D01*
X170405702Y-103154845D01*
X170405702Y-103154845D01*
G37*
D50*
X170213000Y-103980000D03*
D12*
G36*
X169135702Y-103154845D02*
X169152738Y-103157372D01*
X169169445Y-103161557D01*
X169185661Y-103167359D01*
X169201230Y-103174723D01*
X169216003Y-103183577D01*
X169229836Y-103193837D01*
X169242597Y-103205403D01*
X169254163Y-103218164D01*
X169264423Y-103231997D01*
X169273277Y-103246770D01*
X169280641Y-103262339D01*
X169286443Y-103278555D01*
X169290628Y-103295262D01*
X169293155Y-103312298D01*
X169294000Y-103329500D01*
X169294000Y-104630500D01*
X169293155Y-104647702D01*
X169290628Y-104664738D01*
X169286443Y-104681445D01*
X169280641Y-104697661D01*
X169273277Y-104713230D01*
X169264423Y-104728003D01*
X169254163Y-104741836D01*
X169242597Y-104754597D01*
X169229836Y-104766163D01*
X169216003Y-104776423D01*
X169201230Y-104785277D01*
X169185661Y-104792641D01*
X169169445Y-104798443D01*
X169152738Y-104802628D01*
X169135702Y-104805155D01*
X169118500Y-104806000D01*
X168767500Y-104806000D01*
X168750298Y-104805155D01*
X168733262Y-104802628D01*
X168716555Y-104798443D01*
X168700339Y-104792641D01*
X168684770Y-104785277D01*
X168669997Y-104776423D01*
X168656164Y-104766163D01*
X168643403Y-104754597D01*
X168631837Y-104741836D01*
X168621577Y-104728003D01*
X168612723Y-104713230D01*
X168605359Y-104697661D01*
X168599557Y-104681445D01*
X168595372Y-104664738D01*
X168592845Y-104647702D01*
X168592000Y-104630500D01*
X168592000Y-103329500D01*
X168592845Y-103312298D01*
X168595372Y-103295262D01*
X168599557Y-103278555D01*
X168605359Y-103262339D01*
X168612723Y-103246770D01*
X168621577Y-103231997D01*
X168631837Y-103218164D01*
X168643403Y-103205403D01*
X168656164Y-103193837D01*
X168669997Y-103183577D01*
X168684770Y-103174723D01*
X168700339Y-103167359D01*
X168716555Y-103161557D01*
X168733262Y-103157372D01*
X168750298Y-103154845D01*
X168767500Y-103154000D01*
X169118500Y-103154000D01*
X169135702Y-103154845D01*
X169135702Y-103154845D01*
G37*
D50*
X168943000Y-103980000D03*
D12*
G36*
X169135702Y-108554845D02*
X169152738Y-108557372D01*
X169169445Y-108561557D01*
X169185661Y-108567359D01*
X169201230Y-108574723D01*
X169216003Y-108583577D01*
X169229836Y-108593837D01*
X169242597Y-108605403D01*
X169254163Y-108618164D01*
X169264423Y-108631997D01*
X169273277Y-108646770D01*
X169280641Y-108662339D01*
X169286443Y-108678555D01*
X169290628Y-108695262D01*
X169293155Y-108712298D01*
X169294000Y-108729500D01*
X169294000Y-110030500D01*
X169293155Y-110047702D01*
X169290628Y-110064738D01*
X169286443Y-110081445D01*
X169280641Y-110097661D01*
X169273277Y-110113230D01*
X169264423Y-110128003D01*
X169254163Y-110141836D01*
X169242597Y-110154597D01*
X169229836Y-110166163D01*
X169216003Y-110176423D01*
X169201230Y-110185277D01*
X169185661Y-110192641D01*
X169169445Y-110198443D01*
X169152738Y-110202628D01*
X169135702Y-110205155D01*
X169118500Y-110206000D01*
X168767500Y-110206000D01*
X168750298Y-110205155D01*
X168733262Y-110202628D01*
X168716555Y-110198443D01*
X168700339Y-110192641D01*
X168684770Y-110185277D01*
X168669997Y-110176423D01*
X168656164Y-110166163D01*
X168643403Y-110154597D01*
X168631837Y-110141836D01*
X168621577Y-110128003D01*
X168612723Y-110113230D01*
X168605359Y-110097661D01*
X168599557Y-110081445D01*
X168595372Y-110064738D01*
X168592845Y-110047702D01*
X168592000Y-110030500D01*
X168592000Y-108729500D01*
X168592845Y-108712298D01*
X168595372Y-108695262D01*
X168599557Y-108678555D01*
X168605359Y-108662339D01*
X168612723Y-108646770D01*
X168621577Y-108631997D01*
X168631837Y-108618164D01*
X168643403Y-108605403D01*
X168656164Y-108593837D01*
X168669997Y-108583577D01*
X168684770Y-108574723D01*
X168700339Y-108567359D01*
X168716555Y-108561557D01*
X168733262Y-108557372D01*
X168750298Y-108554845D01*
X168767500Y-108554000D01*
X169118500Y-108554000D01*
X169135702Y-108554845D01*
X169135702Y-108554845D01*
G37*
D50*
X168943000Y-109380000D03*
D12*
G36*
X170405702Y-108554845D02*
X170422738Y-108557372D01*
X170439445Y-108561557D01*
X170455661Y-108567359D01*
X170471230Y-108574723D01*
X170486003Y-108583577D01*
X170499836Y-108593837D01*
X170512597Y-108605403D01*
X170524163Y-108618164D01*
X170534423Y-108631997D01*
X170543277Y-108646770D01*
X170550641Y-108662339D01*
X170556443Y-108678555D01*
X170560628Y-108695262D01*
X170563155Y-108712298D01*
X170564000Y-108729500D01*
X170564000Y-110030500D01*
X170563155Y-110047702D01*
X170560628Y-110064738D01*
X170556443Y-110081445D01*
X170550641Y-110097661D01*
X170543277Y-110113230D01*
X170534423Y-110128003D01*
X170524163Y-110141836D01*
X170512597Y-110154597D01*
X170499836Y-110166163D01*
X170486003Y-110176423D01*
X170471230Y-110185277D01*
X170455661Y-110192641D01*
X170439445Y-110198443D01*
X170422738Y-110202628D01*
X170405702Y-110205155D01*
X170388500Y-110206000D01*
X170037500Y-110206000D01*
X170020298Y-110205155D01*
X170003262Y-110202628D01*
X169986555Y-110198443D01*
X169970339Y-110192641D01*
X169954770Y-110185277D01*
X169939997Y-110176423D01*
X169926164Y-110166163D01*
X169913403Y-110154597D01*
X169901837Y-110141836D01*
X169891577Y-110128003D01*
X169882723Y-110113230D01*
X169875359Y-110097661D01*
X169869557Y-110081445D01*
X169865372Y-110064738D01*
X169862845Y-110047702D01*
X169862000Y-110030500D01*
X169862000Y-108729500D01*
X169862845Y-108712298D01*
X169865372Y-108695262D01*
X169869557Y-108678555D01*
X169875359Y-108662339D01*
X169882723Y-108646770D01*
X169891577Y-108631997D01*
X169901837Y-108618164D01*
X169913403Y-108605403D01*
X169926164Y-108593837D01*
X169939997Y-108583577D01*
X169954770Y-108574723D01*
X169970339Y-108567359D01*
X169986555Y-108561557D01*
X170003262Y-108557372D01*
X170020298Y-108554845D01*
X170037500Y-108554000D01*
X170388500Y-108554000D01*
X170405702Y-108554845D01*
X170405702Y-108554845D01*
G37*
D50*
X170213000Y-109380000D03*
D12*
G36*
X171675702Y-108554845D02*
X171692738Y-108557372D01*
X171709445Y-108561557D01*
X171725661Y-108567359D01*
X171741230Y-108574723D01*
X171756003Y-108583577D01*
X171769836Y-108593837D01*
X171782597Y-108605403D01*
X171794163Y-108618164D01*
X171804423Y-108631997D01*
X171813277Y-108646770D01*
X171820641Y-108662339D01*
X171826443Y-108678555D01*
X171830628Y-108695262D01*
X171833155Y-108712298D01*
X171834000Y-108729500D01*
X171834000Y-110030500D01*
X171833155Y-110047702D01*
X171830628Y-110064738D01*
X171826443Y-110081445D01*
X171820641Y-110097661D01*
X171813277Y-110113230D01*
X171804423Y-110128003D01*
X171794163Y-110141836D01*
X171782597Y-110154597D01*
X171769836Y-110166163D01*
X171756003Y-110176423D01*
X171741230Y-110185277D01*
X171725661Y-110192641D01*
X171709445Y-110198443D01*
X171692738Y-110202628D01*
X171675702Y-110205155D01*
X171658500Y-110206000D01*
X171307500Y-110206000D01*
X171290298Y-110205155D01*
X171273262Y-110202628D01*
X171256555Y-110198443D01*
X171240339Y-110192641D01*
X171224770Y-110185277D01*
X171209997Y-110176423D01*
X171196164Y-110166163D01*
X171183403Y-110154597D01*
X171171837Y-110141836D01*
X171161577Y-110128003D01*
X171152723Y-110113230D01*
X171145359Y-110097661D01*
X171139557Y-110081445D01*
X171135372Y-110064738D01*
X171132845Y-110047702D01*
X171132000Y-110030500D01*
X171132000Y-108729500D01*
X171132845Y-108712298D01*
X171135372Y-108695262D01*
X171139557Y-108678555D01*
X171145359Y-108662339D01*
X171152723Y-108646770D01*
X171161577Y-108631997D01*
X171171837Y-108618164D01*
X171183403Y-108605403D01*
X171196164Y-108593837D01*
X171209997Y-108583577D01*
X171224770Y-108574723D01*
X171240339Y-108567359D01*
X171256555Y-108561557D01*
X171273262Y-108557372D01*
X171290298Y-108554845D01*
X171307500Y-108554000D01*
X171658500Y-108554000D01*
X171675702Y-108554845D01*
X171675702Y-108554845D01*
G37*
D50*
X171483000Y-109380000D03*
D12*
G36*
X172945702Y-108554845D02*
X172962738Y-108557372D01*
X172979445Y-108561557D01*
X172995661Y-108567359D01*
X173011230Y-108574723D01*
X173026003Y-108583577D01*
X173039836Y-108593837D01*
X173052597Y-108605403D01*
X173064163Y-108618164D01*
X173074423Y-108631997D01*
X173083277Y-108646770D01*
X173090641Y-108662339D01*
X173096443Y-108678555D01*
X173100628Y-108695262D01*
X173103155Y-108712298D01*
X173104000Y-108729500D01*
X173104000Y-110030500D01*
X173103155Y-110047702D01*
X173100628Y-110064738D01*
X173096443Y-110081445D01*
X173090641Y-110097661D01*
X173083277Y-110113230D01*
X173074423Y-110128003D01*
X173064163Y-110141836D01*
X173052597Y-110154597D01*
X173039836Y-110166163D01*
X173026003Y-110176423D01*
X173011230Y-110185277D01*
X172995661Y-110192641D01*
X172979445Y-110198443D01*
X172962738Y-110202628D01*
X172945702Y-110205155D01*
X172928500Y-110206000D01*
X172577500Y-110206000D01*
X172560298Y-110205155D01*
X172543262Y-110202628D01*
X172526555Y-110198443D01*
X172510339Y-110192641D01*
X172494770Y-110185277D01*
X172479997Y-110176423D01*
X172466164Y-110166163D01*
X172453403Y-110154597D01*
X172441837Y-110141836D01*
X172431577Y-110128003D01*
X172422723Y-110113230D01*
X172415359Y-110097661D01*
X172409557Y-110081445D01*
X172405372Y-110064738D01*
X172402845Y-110047702D01*
X172402000Y-110030500D01*
X172402000Y-108729500D01*
X172402845Y-108712298D01*
X172405372Y-108695262D01*
X172409557Y-108678555D01*
X172415359Y-108662339D01*
X172422723Y-108646770D01*
X172431577Y-108631997D01*
X172441837Y-108618164D01*
X172453403Y-108605403D01*
X172466164Y-108593837D01*
X172479997Y-108583577D01*
X172494770Y-108574723D01*
X172510339Y-108567359D01*
X172526555Y-108561557D01*
X172543262Y-108557372D01*
X172560298Y-108554845D01*
X172577500Y-108554000D01*
X172928500Y-108554000D01*
X172945702Y-108554845D01*
X172945702Y-108554845D01*
G37*
D50*
X172753000Y-109380000D03*
G04 #@! TD*
D12*
G04 #@! TO.C,U2*
G36*
X159864702Y-108681845D02*
X159881738Y-108684372D01*
X159898445Y-108688557D01*
X159914661Y-108694359D01*
X159930230Y-108701723D01*
X159945003Y-108710577D01*
X159958836Y-108720837D01*
X159971597Y-108732403D01*
X159983163Y-108745164D01*
X159993423Y-108758997D01*
X160002277Y-108773770D01*
X160009641Y-108789339D01*
X160015443Y-108805555D01*
X160019628Y-108822262D01*
X160022155Y-108839298D01*
X160023000Y-108856500D01*
X160023000Y-110157500D01*
X160022155Y-110174702D01*
X160019628Y-110191738D01*
X160015443Y-110208445D01*
X160009641Y-110224661D01*
X160002277Y-110240230D01*
X159993423Y-110255003D01*
X159983163Y-110268836D01*
X159971597Y-110281597D01*
X159958836Y-110293163D01*
X159945003Y-110303423D01*
X159930230Y-110312277D01*
X159914661Y-110319641D01*
X159898445Y-110325443D01*
X159881738Y-110329628D01*
X159864702Y-110332155D01*
X159847500Y-110333000D01*
X159496500Y-110333000D01*
X159479298Y-110332155D01*
X159462262Y-110329628D01*
X159445555Y-110325443D01*
X159429339Y-110319641D01*
X159413770Y-110312277D01*
X159398997Y-110303423D01*
X159385164Y-110293163D01*
X159372403Y-110281597D01*
X159360837Y-110268836D01*
X159350577Y-110255003D01*
X159341723Y-110240230D01*
X159334359Y-110224661D01*
X159328557Y-110208445D01*
X159324372Y-110191738D01*
X159321845Y-110174702D01*
X159321000Y-110157500D01*
X159321000Y-108856500D01*
X159321845Y-108839298D01*
X159324372Y-108822262D01*
X159328557Y-108805555D01*
X159334359Y-108789339D01*
X159341723Y-108773770D01*
X159350577Y-108758997D01*
X159360837Y-108745164D01*
X159372403Y-108732403D01*
X159385164Y-108720837D01*
X159398997Y-108710577D01*
X159413770Y-108701723D01*
X159429339Y-108694359D01*
X159445555Y-108688557D01*
X159462262Y-108684372D01*
X159479298Y-108681845D01*
X159496500Y-108681000D01*
X159847500Y-108681000D01*
X159864702Y-108681845D01*
X159864702Y-108681845D01*
G37*
D50*
X159672000Y-109507000D03*
D12*
G36*
X158594702Y-108681845D02*
X158611738Y-108684372D01*
X158628445Y-108688557D01*
X158644661Y-108694359D01*
X158660230Y-108701723D01*
X158675003Y-108710577D01*
X158688836Y-108720837D01*
X158701597Y-108732403D01*
X158713163Y-108745164D01*
X158723423Y-108758997D01*
X158732277Y-108773770D01*
X158739641Y-108789339D01*
X158745443Y-108805555D01*
X158749628Y-108822262D01*
X158752155Y-108839298D01*
X158753000Y-108856500D01*
X158753000Y-110157500D01*
X158752155Y-110174702D01*
X158749628Y-110191738D01*
X158745443Y-110208445D01*
X158739641Y-110224661D01*
X158732277Y-110240230D01*
X158723423Y-110255003D01*
X158713163Y-110268836D01*
X158701597Y-110281597D01*
X158688836Y-110293163D01*
X158675003Y-110303423D01*
X158660230Y-110312277D01*
X158644661Y-110319641D01*
X158628445Y-110325443D01*
X158611738Y-110329628D01*
X158594702Y-110332155D01*
X158577500Y-110333000D01*
X158226500Y-110333000D01*
X158209298Y-110332155D01*
X158192262Y-110329628D01*
X158175555Y-110325443D01*
X158159339Y-110319641D01*
X158143770Y-110312277D01*
X158128997Y-110303423D01*
X158115164Y-110293163D01*
X158102403Y-110281597D01*
X158090837Y-110268836D01*
X158080577Y-110255003D01*
X158071723Y-110240230D01*
X158064359Y-110224661D01*
X158058557Y-110208445D01*
X158054372Y-110191738D01*
X158051845Y-110174702D01*
X158051000Y-110157500D01*
X158051000Y-108856500D01*
X158051845Y-108839298D01*
X158054372Y-108822262D01*
X158058557Y-108805555D01*
X158064359Y-108789339D01*
X158071723Y-108773770D01*
X158080577Y-108758997D01*
X158090837Y-108745164D01*
X158102403Y-108732403D01*
X158115164Y-108720837D01*
X158128997Y-108710577D01*
X158143770Y-108701723D01*
X158159339Y-108694359D01*
X158175555Y-108688557D01*
X158192262Y-108684372D01*
X158209298Y-108681845D01*
X158226500Y-108681000D01*
X158577500Y-108681000D01*
X158594702Y-108681845D01*
X158594702Y-108681845D01*
G37*
D50*
X158402000Y-109507000D03*
D12*
G36*
X157324702Y-108681845D02*
X157341738Y-108684372D01*
X157358445Y-108688557D01*
X157374661Y-108694359D01*
X157390230Y-108701723D01*
X157405003Y-108710577D01*
X157418836Y-108720837D01*
X157431597Y-108732403D01*
X157443163Y-108745164D01*
X157453423Y-108758997D01*
X157462277Y-108773770D01*
X157469641Y-108789339D01*
X157475443Y-108805555D01*
X157479628Y-108822262D01*
X157482155Y-108839298D01*
X157483000Y-108856500D01*
X157483000Y-110157500D01*
X157482155Y-110174702D01*
X157479628Y-110191738D01*
X157475443Y-110208445D01*
X157469641Y-110224661D01*
X157462277Y-110240230D01*
X157453423Y-110255003D01*
X157443163Y-110268836D01*
X157431597Y-110281597D01*
X157418836Y-110293163D01*
X157405003Y-110303423D01*
X157390230Y-110312277D01*
X157374661Y-110319641D01*
X157358445Y-110325443D01*
X157341738Y-110329628D01*
X157324702Y-110332155D01*
X157307500Y-110333000D01*
X156956500Y-110333000D01*
X156939298Y-110332155D01*
X156922262Y-110329628D01*
X156905555Y-110325443D01*
X156889339Y-110319641D01*
X156873770Y-110312277D01*
X156858997Y-110303423D01*
X156845164Y-110293163D01*
X156832403Y-110281597D01*
X156820837Y-110268836D01*
X156810577Y-110255003D01*
X156801723Y-110240230D01*
X156794359Y-110224661D01*
X156788557Y-110208445D01*
X156784372Y-110191738D01*
X156781845Y-110174702D01*
X156781000Y-110157500D01*
X156781000Y-108856500D01*
X156781845Y-108839298D01*
X156784372Y-108822262D01*
X156788557Y-108805555D01*
X156794359Y-108789339D01*
X156801723Y-108773770D01*
X156810577Y-108758997D01*
X156820837Y-108745164D01*
X156832403Y-108732403D01*
X156845164Y-108720837D01*
X156858997Y-108710577D01*
X156873770Y-108701723D01*
X156889339Y-108694359D01*
X156905555Y-108688557D01*
X156922262Y-108684372D01*
X156939298Y-108681845D01*
X156956500Y-108681000D01*
X157307500Y-108681000D01*
X157324702Y-108681845D01*
X157324702Y-108681845D01*
G37*
D50*
X157132000Y-109507000D03*
D12*
G36*
X156054702Y-108681845D02*
X156071738Y-108684372D01*
X156088445Y-108688557D01*
X156104661Y-108694359D01*
X156120230Y-108701723D01*
X156135003Y-108710577D01*
X156148836Y-108720837D01*
X156161597Y-108732403D01*
X156173163Y-108745164D01*
X156183423Y-108758997D01*
X156192277Y-108773770D01*
X156199641Y-108789339D01*
X156205443Y-108805555D01*
X156209628Y-108822262D01*
X156212155Y-108839298D01*
X156213000Y-108856500D01*
X156213000Y-110157500D01*
X156212155Y-110174702D01*
X156209628Y-110191738D01*
X156205443Y-110208445D01*
X156199641Y-110224661D01*
X156192277Y-110240230D01*
X156183423Y-110255003D01*
X156173163Y-110268836D01*
X156161597Y-110281597D01*
X156148836Y-110293163D01*
X156135003Y-110303423D01*
X156120230Y-110312277D01*
X156104661Y-110319641D01*
X156088445Y-110325443D01*
X156071738Y-110329628D01*
X156054702Y-110332155D01*
X156037500Y-110333000D01*
X155686500Y-110333000D01*
X155669298Y-110332155D01*
X155652262Y-110329628D01*
X155635555Y-110325443D01*
X155619339Y-110319641D01*
X155603770Y-110312277D01*
X155588997Y-110303423D01*
X155575164Y-110293163D01*
X155562403Y-110281597D01*
X155550837Y-110268836D01*
X155540577Y-110255003D01*
X155531723Y-110240230D01*
X155524359Y-110224661D01*
X155518557Y-110208445D01*
X155514372Y-110191738D01*
X155511845Y-110174702D01*
X155511000Y-110157500D01*
X155511000Y-108856500D01*
X155511845Y-108839298D01*
X155514372Y-108822262D01*
X155518557Y-108805555D01*
X155524359Y-108789339D01*
X155531723Y-108773770D01*
X155540577Y-108758997D01*
X155550837Y-108745164D01*
X155562403Y-108732403D01*
X155575164Y-108720837D01*
X155588997Y-108710577D01*
X155603770Y-108701723D01*
X155619339Y-108694359D01*
X155635555Y-108688557D01*
X155652262Y-108684372D01*
X155669298Y-108681845D01*
X155686500Y-108681000D01*
X156037500Y-108681000D01*
X156054702Y-108681845D01*
X156054702Y-108681845D01*
G37*
D50*
X155862000Y-109507000D03*
D12*
G36*
X156054702Y-103281845D02*
X156071738Y-103284372D01*
X156088445Y-103288557D01*
X156104661Y-103294359D01*
X156120230Y-103301723D01*
X156135003Y-103310577D01*
X156148836Y-103320837D01*
X156161597Y-103332403D01*
X156173163Y-103345164D01*
X156183423Y-103358997D01*
X156192277Y-103373770D01*
X156199641Y-103389339D01*
X156205443Y-103405555D01*
X156209628Y-103422262D01*
X156212155Y-103439298D01*
X156213000Y-103456500D01*
X156213000Y-104757500D01*
X156212155Y-104774702D01*
X156209628Y-104791738D01*
X156205443Y-104808445D01*
X156199641Y-104824661D01*
X156192277Y-104840230D01*
X156183423Y-104855003D01*
X156173163Y-104868836D01*
X156161597Y-104881597D01*
X156148836Y-104893163D01*
X156135003Y-104903423D01*
X156120230Y-104912277D01*
X156104661Y-104919641D01*
X156088445Y-104925443D01*
X156071738Y-104929628D01*
X156054702Y-104932155D01*
X156037500Y-104933000D01*
X155686500Y-104933000D01*
X155669298Y-104932155D01*
X155652262Y-104929628D01*
X155635555Y-104925443D01*
X155619339Y-104919641D01*
X155603770Y-104912277D01*
X155588997Y-104903423D01*
X155575164Y-104893163D01*
X155562403Y-104881597D01*
X155550837Y-104868836D01*
X155540577Y-104855003D01*
X155531723Y-104840230D01*
X155524359Y-104824661D01*
X155518557Y-104808445D01*
X155514372Y-104791738D01*
X155511845Y-104774702D01*
X155511000Y-104757500D01*
X155511000Y-103456500D01*
X155511845Y-103439298D01*
X155514372Y-103422262D01*
X155518557Y-103405555D01*
X155524359Y-103389339D01*
X155531723Y-103373770D01*
X155540577Y-103358997D01*
X155550837Y-103345164D01*
X155562403Y-103332403D01*
X155575164Y-103320837D01*
X155588997Y-103310577D01*
X155603770Y-103301723D01*
X155619339Y-103294359D01*
X155635555Y-103288557D01*
X155652262Y-103284372D01*
X155669298Y-103281845D01*
X155686500Y-103281000D01*
X156037500Y-103281000D01*
X156054702Y-103281845D01*
X156054702Y-103281845D01*
G37*
D50*
X155862000Y-104107000D03*
D12*
G36*
X157324702Y-103281845D02*
X157341738Y-103284372D01*
X157358445Y-103288557D01*
X157374661Y-103294359D01*
X157390230Y-103301723D01*
X157405003Y-103310577D01*
X157418836Y-103320837D01*
X157431597Y-103332403D01*
X157443163Y-103345164D01*
X157453423Y-103358997D01*
X157462277Y-103373770D01*
X157469641Y-103389339D01*
X157475443Y-103405555D01*
X157479628Y-103422262D01*
X157482155Y-103439298D01*
X157483000Y-103456500D01*
X157483000Y-104757500D01*
X157482155Y-104774702D01*
X157479628Y-104791738D01*
X157475443Y-104808445D01*
X157469641Y-104824661D01*
X157462277Y-104840230D01*
X157453423Y-104855003D01*
X157443163Y-104868836D01*
X157431597Y-104881597D01*
X157418836Y-104893163D01*
X157405003Y-104903423D01*
X157390230Y-104912277D01*
X157374661Y-104919641D01*
X157358445Y-104925443D01*
X157341738Y-104929628D01*
X157324702Y-104932155D01*
X157307500Y-104933000D01*
X156956500Y-104933000D01*
X156939298Y-104932155D01*
X156922262Y-104929628D01*
X156905555Y-104925443D01*
X156889339Y-104919641D01*
X156873770Y-104912277D01*
X156858997Y-104903423D01*
X156845164Y-104893163D01*
X156832403Y-104881597D01*
X156820837Y-104868836D01*
X156810577Y-104855003D01*
X156801723Y-104840230D01*
X156794359Y-104824661D01*
X156788557Y-104808445D01*
X156784372Y-104791738D01*
X156781845Y-104774702D01*
X156781000Y-104757500D01*
X156781000Y-103456500D01*
X156781845Y-103439298D01*
X156784372Y-103422262D01*
X156788557Y-103405555D01*
X156794359Y-103389339D01*
X156801723Y-103373770D01*
X156810577Y-103358997D01*
X156820837Y-103345164D01*
X156832403Y-103332403D01*
X156845164Y-103320837D01*
X156858997Y-103310577D01*
X156873770Y-103301723D01*
X156889339Y-103294359D01*
X156905555Y-103288557D01*
X156922262Y-103284372D01*
X156939298Y-103281845D01*
X156956500Y-103281000D01*
X157307500Y-103281000D01*
X157324702Y-103281845D01*
X157324702Y-103281845D01*
G37*
D50*
X157132000Y-104107000D03*
D12*
G36*
X158594702Y-103281845D02*
X158611738Y-103284372D01*
X158628445Y-103288557D01*
X158644661Y-103294359D01*
X158660230Y-103301723D01*
X158675003Y-103310577D01*
X158688836Y-103320837D01*
X158701597Y-103332403D01*
X158713163Y-103345164D01*
X158723423Y-103358997D01*
X158732277Y-103373770D01*
X158739641Y-103389339D01*
X158745443Y-103405555D01*
X158749628Y-103422262D01*
X158752155Y-103439298D01*
X158753000Y-103456500D01*
X158753000Y-104757500D01*
X158752155Y-104774702D01*
X158749628Y-104791738D01*
X158745443Y-104808445D01*
X158739641Y-104824661D01*
X158732277Y-104840230D01*
X158723423Y-104855003D01*
X158713163Y-104868836D01*
X158701597Y-104881597D01*
X158688836Y-104893163D01*
X158675003Y-104903423D01*
X158660230Y-104912277D01*
X158644661Y-104919641D01*
X158628445Y-104925443D01*
X158611738Y-104929628D01*
X158594702Y-104932155D01*
X158577500Y-104933000D01*
X158226500Y-104933000D01*
X158209298Y-104932155D01*
X158192262Y-104929628D01*
X158175555Y-104925443D01*
X158159339Y-104919641D01*
X158143770Y-104912277D01*
X158128997Y-104903423D01*
X158115164Y-104893163D01*
X158102403Y-104881597D01*
X158090837Y-104868836D01*
X158080577Y-104855003D01*
X158071723Y-104840230D01*
X158064359Y-104824661D01*
X158058557Y-104808445D01*
X158054372Y-104791738D01*
X158051845Y-104774702D01*
X158051000Y-104757500D01*
X158051000Y-103456500D01*
X158051845Y-103439298D01*
X158054372Y-103422262D01*
X158058557Y-103405555D01*
X158064359Y-103389339D01*
X158071723Y-103373770D01*
X158080577Y-103358997D01*
X158090837Y-103345164D01*
X158102403Y-103332403D01*
X158115164Y-103320837D01*
X158128997Y-103310577D01*
X158143770Y-103301723D01*
X158159339Y-103294359D01*
X158175555Y-103288557D01*
X158192262Y-103284372D01*
X158209298Y-103281845D01*
X158226500Y-103281000D01*
X158577500Y-103281000D01*
X158594702Y-103281845D01*
X158594702Y-103281845D01*
G37*
D50*
X158402000Y-104107000D03*
D12*
G36*
X159864702Y-103281845D02*
X159881738Y-103284372D01*
X159898445Y-103288557D01*
X159914661Y-103294359D01*
X159930230Y-103301723D01*
X159945003Y-103310577D01*
X159958836Y-103320837D01*
X159971597Y-103332403D01*
X159983163Y-103345164D01*
X159993423Y-103358997D01*
X160002277Y-103373770D01*
X160009641Y-103389339D01*
X160015443Y-103405555D01*
X160019628Y-103422262D01*
X160022155Y-103439298D01*
X160023000Y-103456500D01*
X160023000Y-104757500D01*
X160022155Y-104774702D01*
X160019628Y-104791738D01*
X160015443Y-104808445D01*
X160009641Y-104824661D01*
X160002277Y-104840230D01*
X159993423Y-104855003D01*
X159983163Y-104868836D01*
X159971597Y-104881597D01*
X159958836Y-104893163D01*
X159945003Y-104903423D01*
X159930230Y-104912277D01*
X159914661Y-104919641D01*
X159898445Y-104925443D01*
X159881738Y-104929628D01*
X159864702Y-104932155D01*
X159847500Y-104933000D01*
X159496500Y-104933000D01*
X159479298Y-104932155D01*
X159462262Y-104929628D01*
X159445555Y-104925443D01*
X159429339Y-104919641D01*
X159413770Y-104912277D01*
X159398997Y-104903423D01*
X159385164Y-104893163D01*
X159372403Y-104881597D01*
X159360837Y-104868836D01*
X159350577Y-104855003D01*
X159341723Y-104840230D01*
X159334359Y-104824661D01*
X159328557Y-104808445D01*
X159324372Y-104791738D01*
X159321845Y-104774702D01*
X159321000Y-104757500D01*
X159321000Y-103456500D01*
X159321845Y-103439298D01*
X159324372Y-103422262D01*
X159328557Y-103405555D01*
X159334359Y-103389339D01*
X159341723Y-103373770D01*
X159350577Y-103358997D01*
X159360837Y-103345164D01*
X159372403Y-103332403D01*
X159385164Y-103320837D01*
X159398997Y-103310577D01*
X159413770Y-103301723D01*
X159429339Y-103294359D01*
X159445555Y-103288557D01*
X159462262Y-103284372D01*
X159479298Y-103281845D01*
X159496500Y-103281000D01*
X159847500Y-103281000D01*
X159864702Y-103281845D01*
X159864702Y-103281845D01*
G37*
D50*
X159672000Y-104107000D03*
D22*
X153924000Y-102997000D03*
D17*
X161544000Y-110617000D03*
X153924000Y-105537000D03*
X161544000Y-108077000D03*
X153924000Y-108077000D03*
X161544000Y-105537000D03*
X153924000Y-110617000D03*
X161544000Y-102997000D03*
G04 #@! TD*
D41*
G04 #@! TO.C,U3*
X118110000Y-125730000D03*
D42*
X118110000Y-130810000D03*
X118110000Y-128270000D03*
G04 #@! TD*
D51*
G04 #@! TO.C,Y1*
X133350000Y-119575000D03*
X133350000Y-128075000D03*
G04 #@! TD*
D52*
G04 #@! TO.C,U4*
X154694000Y-119825000D03*
X154694000Y-120625000D03*
X154694000Y-121425000D03*
X154694000Y-122225000D03*
X154694000Y-123025000D03*
X154694000Y-123825000D03*
X154694000Y-124625000D03*
X154694000Y-125425000D03*
X154694000Y-126225000D03*
X154694000Y-127025000D03*
X154694000Y-127825000D03*
D53*
X152844000Y-129675000D03*
X152044000Y-129675000D03*
X151244000Y-129675000D03*
X150444000Y-129675000D03*
X149644000Y-129675000D03*
X148844000Y-129675000D03*
X148044000Y-129675000D03*
X147244000Y-129675000D03*
X146444000Y-129675000D03*
X145644000Y-129675000D03*
X144844000Y-129675000D03*
D52*
X142994000Y-127825000D03*
X142994000Y-127025000D03*
X142994000Y-126225000D03*
X142994000Y-125425000D03*
X142994000Y-124625000D03*
X142994000Y-123825000D03*
X142994000Y-123025000D03*
X142994000Y-122225000D03*
X142994000Y-121425000D03*
X142994000Y-120625000D03*
X142994000Y-119825000D03*
D53*
X144844000Y-117975000D03*
X145644000Y-117975000D03*
X146444000Y-117975000D03*
X147244000Y-117975000D03*
X148044000Y-117975000D03*
X148844000Y-117975000D03*
X149644000Y-117975000D03*
X150444000Y-117975000D03*
X151244000Y-117975000D03*
X152044000Y-117975000D03*
X152844000Y-117975000D03*
G04 #@! TD*
D49*
G04 #@! TO.C,TP5*
X160401000Y-100457000D03*
G04 #@! TD*
M02*
